<svg xmlns="http://www.w3.org/2000/svg" xmlns:svg="http://www.w3.org/2000/svg" id="svg2" width="603.129" height="476.797" version="1.1" viewBox="0 0 603.129 476.797" xml:space="preserve"><metadata id="metadata8"/><defs id="defs6"><clipPath id="clipPath20" clipPathUnits="userSpaceOnUse"><path id="path22" d="m 28.903125,22.825 446.399995,0 0,345.6 -446.399995,0 0,-345.6 z"/></clipPath><clipPath id="clipPath30" clipPathUnits="userSpaceOnUse"><path id="path32" d="m 28.903125,22.825 446.399995,0 0,345.6 -446.399995,0 0,-345.6 z"/></clipPath><clipPath id="clipPath40" clipPathUnits="userSpaceOnUse"><path id="path42" d="m 28.903125,22.825 446.399995,0 0,345.6 -446.399995,0 0,-345.6 z"/></clipPath><clipPath id="clipPath72" clipPathUnits="userSpaceOnUse"><path id="path74" d="m -184,-236 1472,0 0,1165 -1472,0 0,-1165 z"/></clipPath><clipPath id="clipPath94" clipPathUnits="userSpaceOnUse"><path id="path96" d="m -184,-236 1472,0 0,1165 -1472,0 0,-1165 z"/></clipPath><clipPath id="clipPath140" clipPathUnits="userSpaceOnUse"><path id="path142" d="m -184,-236 1472,0 0,1165 -1472,0 0,-1165 z"/></clipPath><clipPath id="clipPath162" clipPathUnits="userSpaceOnUse"><path id="path164" d="m -184,-236 1472,0 0,1165 -1472,0 0,-1165 z"/></clipPath><clipPath id="clipPath184" clipPathUnits="userSpaceOnUse"><path id="path186" d="m -184,-236 1472,0 0,1165 -1472,0 0,-1165 z"/></clipPath><clipPath id="clipPath206" clipPathUnits="userSpaceOnUse"><path id="path208" d="m -184,-236 1472,0 0,1165 -1472,0 0,-1165 z"/></clipPath></defs><g id="g10" transform="matrix(1.25,0,0,-1.25,0,476.79687)"><path id="path12" d="m 0,0 482.50312,0 0,381.4375 L 0,381.4375 0,0 Z" style="fill:#fff;fill-opacity:1;fill-rule:nonzero;stroke:none"/><path id="path14" d="m 28.903125,22.825 446.399995,0 0,345.6 -446.399995,0 0,-345.6 z" style="fill:#fff;fill-opacity:1;fill-rule:nonzero;stroke:none"/><g id="g16"><g id="g18" clip-path="url(#clipPath20)"><path id="path24" d="m 254.19576,-1 0.41245,17.228186 0.69102,20.573267 0.69103,14.807528 0.69103,11.313235 1.03654,12.873701 1.03654,9.732408 1.03654,7.690761 1.03654,6.275742 1.38205,6.814462 1.38206,5.54441 1.38205,4.62545 1.38206,3.93518 1.72756,4.18166 1.72757,3.55371 1.72757,3.06866 2.07308,3.18255 2.07308,2.75305 2.07308,2.41222 2.4186,2.46921 2.41859,2.16927 2.76411,2.18329 3.10962,2.15218 3.45514,2.08906 3.45513,1.8336 3.80065,1.77898 4.49167,1.84334 4.83719,1.73342 5.18271,1.62569 5.87373,1.61095 6.56475,1.56843 7.25579,1.50739 8.29232,1.49317 9.32887,1.44992 10.71091,1.43077 12.09298,1.38259 13.82054,1.34758 15.54811,1.28913 17.9667,1.26211 20.73081,1.22732 23.84043,1.18419 17.78616,0.76154 0,0" style="fill:none;stroke:#00f;stroke-width:2;stroke-linecap:square;stroke-linejoin:round;stroke-miterlimit:10;stroke-dasharray:none;stroke-opacity:1"/></g></g><g id="g26"><g id="g28" clip-path="url(#clipPath30)"><path id="path34" d="m -1,196.88351 38.694476,0.49524 28.302703,0.57397 21.643243,0.65297 16.981618,0.72593 13.6519,0.7948 11.32108,0.8704 9.65621,0.95862 8.32433,1.04842 6.99243,1.09593 6.32649,1.21645 5.32756,1.23967 4.9946,1.3916 4.32865,1.43285 3.99567,1.5566 3.66271,1.67124 3.32972,1.76866 2.99676,1.83915 2.66379,1.87181 2.66378,2.13915 2.33081,2.13275 2.33081,2.4226 2.33081,2.76745 1.99784,2.69819 1.99784,3.05529 1.99784,3.47831 1.99783,3.98317 1.66487,3.77825 1.66486,4.27327 1.66487,4.85869 1.66486,5.55612 1.66487,6.39373 1.66486,7.40856 1.66487,8.65012 1.33189,8.00855 1.33189,9.18078 1.33189,10.59347 1.33189,12.31159 1.3319,14.42238 1.33189,17.04477 1.33189,20.34372 0.50821,8.84877 0,0" style="fill:none;stroke:green;stroke-width:2;stroke-linecap:square;stroke-linejoin:round;stroke-miterlimit:10;stroke-dasharray:none;stroke-opacity:1"/></g></g><g id="g36"><g id="g38" clip-path="url(#clipPath40)"><path id="path44" d="m 79.303125,22.825 345.599995,345.6 0,0" style="fill:none;stroke:red;stroke-width:2;stroke-linecap:square;stroke-linejoin:round;stroke-miterlimit:10;stroke-dasharray:none;stroke-opacity:1"/></g></g><g id="g46"><path id="path48" d="m 475.30312,22.825 0,345.6" style="fill:none;stroke:#000;stroke-width:1;stroke-linecap:square;stroke-linejoin:miter;stroke-miterlimit:10;stroke-dasharray:none;stroke-opacity:1"/><path id="path50" d="m 28.903125,368.425 446.399995,0" style="fill:none;stroke:#000;stroke-width:1;stroke-linecap:square;stroke-linejoin:miter;stroke-miterlimit:10;stroke-dasharray:none;stroke-opacity:1"/><path id="path52" d="m 28.903125,22.825 0,345.6" style="fill:none;stroke:#000;stroke-width:1;stroke-linecap:square;stroke-linejoin:miter;stroke-miterlimit:10;stroke-dasharray:none;stroke-opacity:1"/><path id="path54" d="m 28.903125,22.825 446.399995,0" style="fill:none;stroke:#000;stroke-width:1;stroke-linecap:square;stroke-linejoin:miter;stroke-miterlimit:10;stroke-dasharray:none;stroke-opacity:1"/><path id="path56" d="m 79.303125,22.825 0,4" style="fill:#000;fill-opacity:1;fill-rule:nonzero;stroke:#000;stroke-width:.5;stroke-linecap:butt;stroke-linejoin:round;stroke-miterlimit:10;stroke-dasharray:none;stroke-opacity:1"/><path id="path58" d="m 79.303125,368.425 0,-4" style="fill:#000;fill-opacity:1;fill-rule:nonzero;stroke:#000;stroke-width:.5;stroke-linecap:butt;stroke-linejoin:round;stroke-miterlimit:10;stroke-dasharray:none;stroke-opacity:1"/><g id="g60" transform="translate(70.451563,9.7)"><text id="text62" transform="matrix(1,0,0,-1,10.054688,0)" style="font-variant:normal;font-weight:400;font-size:12px;font-family:'Bitstream Vera Sans';-inkscape-font-specification:BitstreamVeraSans-Roman;writing-mode:lr-tb;fill:#000;fill-opacity:1;fill-rule:nonzero;stroke:none"><tspan id="tspan64" x="0" y="0">4</tspan></text><g id="g66" transform="scale(0.012,0.012)"><g id="g68"><g id="g70" clip-path="url(#clipPath72)"><path id="path76" d="m 106,355 626,0 0,-83 -626,0 0,83" style="fill:#000;fill-opacity:1;fill-rule:nonzero;stroke:none"/></g></g></g></g><path id="path78" d="m 165.70312,22.825 0,4" style="fill:#000;fill-opacity:1;fill-rule:nonzero;stroke:#000;stroke-width:.5;stroke-linecap:butt;stroke-linejoin:round;stroke-miterlimit:10;stroke-dasharray:none;stroke-opacity:1"/><path id="path80" d="m 165.70312,368.425 0,-4" style="fill:#000;fill-opacity:1;fill-rule:nonzero;stroke:#000;stroke-width:.5;stroke-linecap:butt;stroke-linejoin:round;stroke-miterlimit:10;stroke-dasharray:none;stroke-opacity:1"/><g id="g82" transform="translate(156.85156,9.7)"><text id="text84" transform="matrix(1,0,0,-1,10.054688,0)" style="font-variant:normal;font-weight:400;font-size:12px;font-family:'Bitstream Vera Sans';-inkscape-font-specification:BitstreamVeraSans-Roman;writing-mode:lr-tb;fill:#000;fill-opacity:1;fill-rule:nonzero;stroke:none"><tspan id="tspan86" x="0" y="0">2</tspan></text><g id="g88" transform="scale(0.012,0.012)"><g id="g90"><g id="g92" clip-path="url(#clipPath94)"><path id="path98" d="m 106,355 626,0 0,-83 -626,0 0,83" style="fill:#000;fill-opacity:1;fill-rule:nonzero;stroke:none"/></g></g></g></g><path id="path100" d="m 252.10312,22.825 0,4" style="fill:#000;fill-opacity:1;fill-rule:nonzero;stroke:#000;stroke-width:.5;stroke-linecap:butt;stroke-linejoin:round;stroke-miterlimit:10;stroke-dasharray:none;stroke-opacity:1"/><path id="path102" d="m 252.10312,368.425 0,-4" style="fill:#000;fill-opacity:1;fill-rule:nonzero;stroke:#000;stroke-width:.5;stroke-linecap:butt;stroke-linejoin:round;stroke-miterlimit:10;stroke-dasharray:none;stroke-opacity:1"/><text id="text104" transform="matrix(1,0,0,-1,248.28281,9.7)" style="font-variant:normal;font-weight:400;font-size:12px;font-family:'Bitstream Vera Sans';-inkscape-font-specification:BitstreamVeraSans-Roman;writing-mode:lr-tb;fill:#000;fill-opacity:1;fill-rule:nonzero;stroke:none"><tspan id="tspan106" x="0" y="0">0</tspan></text><path id="path108" d="m 338.50312,22.825 0,4" style="fill:#000;fill-opacity:1;fill-rule:nonzero;stroke:#000;stroke-width:.5;stroke-linecap:butt;stroke-linejoin:round;stroke-miterlimit:10;stroke-dasharray:none;stroke-opacity:1"/><path id="path110" d="m 338.50312,368.425 0,-4" style="fill:#000;fill-opacity:1;fill-rule:nonzero;stroke:#000;stroke-width:.5;stroke-linecap:butt;stroke-linejoin:round;stroke-miterlimit:10;stroke-dasharray:none;stroke-opacity:1"/><text id="text112" transform="matrix(1,0,0,-1,334.68281,9.7)" style="font-variant:normal;font-weight:400;font-size:12px;font-family:'Bitstream Vera Sans';-inkscape-font-specification:BitstreamVeraSans-Roman;writing-mode:lr-tb;fill:#000;fill-opacity:1;fill-rule:nonzero;stroke:none"><tspan id="tspan114" x="0" y="0">2</tspan></text><path id="path116" d="m 424.90312,22.825 0,4" style="fill:#000;fill-opacity:1;fill-rule:nonzero;stroke:#000;stroke-width:.5;stroke-linecap:butt;stroke-linejoin:round;stroke-miterlimit:10;stroke-dasharray:none;stroke-opacity:1"/><path id="path118" d="m 424.90312,368.425 0,-4" style="fill:#000;fill-opacity:1;fill-rule:nonzero;stroke:#000;stroke-width:.5;stroke-linecap:butt;stroke-linejoin:round;stroke-miterlimit:10;stroke-dasharray:none;stroke-opacity:1"/><text id="text120" transform="matrix(1,0,0,-1,421.08281,9.7)" style="font-variant:normal;font-weight:400;font-size:12px;font-family:'Bitstream Vera Sans';-inkscape-font-specification:BitstreamVeraSans-Roman;writing-mode:lr-tb;fill:#000;fill-opacity:1;fill-rule:nonzero;stroke:none"><tspan id="tspan122" x="0" y="0">4</tspan></text><path id="path124" d="m 28.903125,22.825 4,0" style="fill:#000;fill-opacity:1;fill-rule:nonzero;stroke:#000;stroke-width:.5;stroke-linecap:butt;stroke-linejoin:round;stroke-miterlimit:10;stroke-dasharray:none;stroke-opacity:1"/><path id="path126" d="m 475.30312,22.825 -4,0" style="fill:#000;fill-opacity:1;fill-rule:nonzero;stroke:#000;stroke-width:.5;stroke-linecap:butt;stroke-linejoin:round;stroke-miterlimit:10;stroke-dasharray:none;stroke-opacity:1"/><g id="g128" transform="translate(7.2,19.5125)"><text id="text130" transform="matrix(1,0,0,-1,10.054688,0)" style="font-variant:normal;font-weight:400;font-size:12px;font-family:'Bitstream Vera Sans';-inkscape-font-specification:BitstreamVeraSans-Roman;writing-mode:lr-tb;fill:#000;fill-opacity:1;fill-rule:nonzero;stroke:none"><tspan id="tspan132" x="0" y="0">4</tspan></text><g id="g134" transform="scale(0.012,0.012)"><g id="g136"><g id="g138" clip-path="url(#clipPath140)"><path id="path144" d="m 106,355 626,0 0,-83 -626,0 0,83" style="fill:#000;fill-opacity:1;fill-rule:nonzero;stroke:none"/></g></g></g></g><path id="path146" d="m 28.903125,66.025 4,0" style="fill:#000;fill-opacity:1;fill-rule:nonzero;stroke:#000;stroke-width:.5;stroke-linecap:butt;stroke-linejoin:round;stroke-miterlimit:10;stroke-dasharray:none;stroke-opacity:1"/><path id="path148" d="m 475.30312,66.025 -4,0" style="fill:#000;fill-opacity:1;fill-rule:nonzero;stroke:#000;stroke-width:.5;stroke-linecap:butt;stroke-linejoin:round;stroke-miterlimit:10;stroke-dasharray:none;stroke-opacity:1"/><g id="g150" transform="translate(7.2,62.7125)"><text id="text152" transform="matrix(1,0,0,-1,10.054688,0)" style="font-variant:normal;font-weight:400;font-size:12px;font-family:'Bitstream Vera Sans';-inkscape-font-specification:BitstreamVeraSans-Roman;writing-mode:lr-tb;fill:#000;fill-opacity:1;fill-rule:nonzero;stroke:none"><tspan id="tspan154" x="0" y="0">3</tspan></text><g id="g156" transform="scale(0.012,0.012)"><g id="g158"><g id="g160" clip-path="url(#clipPath162)"><path id="path166" d="m 106,355 626,0 0,-83 -626,0 0,83" style="fill:#000;fill-opacity:1;fill-rule:nonzero;stroke:none"/></g></g></g></g><path id="path168" d="m 28.903125,109.225 4,0" style="fill:#000;fill-opacity:1;fill-rule:nonzero;stroke:#000;stroke-width:.5;stroke-linecap:butt;stroke-linejoin:round;stroke-miterlimit:10;stroke-dasharray:none;stroke-opacity:1"/><path id="path170" d="m 475.30312,109.225 -4,0" style="fill:#000;fill-opacity:1;fill-rule:nonzero;stroke:#000;stroke-width:.5;stroke-linecap:butt;stroke-linejoin:round;stroke-miterlimit:10;stroke-dasharray:none;stroke-opacity:1"/><g id="g172" transform="translate(7.2,105.9125)"><text id="text174" transform="matrix(1,0,0,-1,10.054688,0)" style="font-variant:normal;font-weight:400;font-size:12px;font-family:'Bitstream Vera Sans';-inkscape-font-specification:BitstreamVeraSans-Roman;writing-mode:lr-tb;fill:#000;fill-opacity:1;fill-rule:nonzero;stroke:none"><tspan id="tspan176" x="0" y="0">2</tspan></text><g id="g178" transform="scale(0.012,0.012)"><g id="g180"><g id="g182" clip-path="url(#clipPath184)"><path id="path188" d="m 106,355 626,0 0,-83 -626,0 0,83" style="fill:#000;fill-opacity:1;fill-rule:nonzero;stroke:none"/></g></g></g></g><path id="path190" d="m 28.903125,152.425 4,0" style="fill:#000;fill-opacity:1;fill-rule:nonzero;stroke:#000;stroke-width:.5;stroke-linecap:butt;stroke-linejoin:round;stroke-miterlimit:10;stroke-dasharray:none;stroke-opacity:1"/><path id="path192" d="m 475.30312,152.425 -4,0" style="fill:#000;fill-opacity:1;fill-rule:nonzero;stroke:#000;stroke-width:.5;stroke-linecap:butt;stroke-linejoin:round;stroke-miterlimit:10;stroke-dasharray:none;stroke-opacity:1"/><g id="g194" transform="translate(7.2,149.1125)"><text id="text196" transform="matrix(1,0,0,-1,10.054688,0)" style="font-variant:normal;font-weight:400;font-size:12px;font-family:'Bitstream Vera Sans';-inkscape-font-specification:BitstreamVeraSans-Roman;writing-mode:lr-tb;fill:#000;fill-opacity:1;fill-rule:nonzero;stroke:none"><tspan id="tspan198" x="0" y="0">1</tspan></text><g id="g200" transform="scale(0.012,0.012)"><g id="g202"><g id="g204" clip-path="url(#clipPath206)"><path id="path210" d="m 106,355 626,0 0,-83 -626,0 0,83" style="fill:#000;fill-opacity:1;fill-rule:nonzero;stroke:none"/></g></g></g></g><path id="path212" d="m 28.903125,195.625 4,0" style="fill:#000;fill-opacity:1;fill-rule:nonzero;stroke:#000;stroke-width:.5;stroke-linecap:butt;stroke-linejoin:round;stroke-miterlimit:10;stroke-dasharray:none;stroke-opacity:1"/><path id="path214" d="m 475.30312,195.625 -4,0" style="fill:#000;fill-opacity:1;fill-rule:nonzero;stroke:#000;stroke-width:.5;stroke-linecap:butt;stroke-linejoin:round;stroke-miterlimit:10;stroke-dasharray:none;stroke-opacity:1"/><text id="text216" transform="matrix(1,0,0,-1,17.2625,192.3125)" style="font-variant:normal;font-weight:400;font-size:12px;font-family:'Bitstream Vera Sans';-inkscape-font-specification:BitstreamVeraSans-Roman;writing-mode:lr-tb;fill:#000;fill-opacity:1;fill-rule:nonzero;stroke:none"><tspan id="tspan218" x="0" y="0">0</tspan></text><path id="path220" d="m 28.903125,238.825 4,0" style="fill:#000;fill-opacity:1;fill-rule:nonzero;stroke:#000;stroke-width:.5;stroke-linecap:butt;stroke-linejoin:round;stroke-miterlimit:10;stroke-dasharray:none;stroke-opacity:1"/><path id="path222" d="m 475.30312,238.825 -4,0" style="fill:#000;fill-opacity:1;fill-rule:nonzero;stroke:#000;stroke-width:.5;stroke-linecap:butt;stroke-linejoin:round;stroke-miterlimit:10;stroke-dasharray:none;stroke-opacity:1"/><text id="text224" transform="matrix(1,0,0,-1,17.2625,235.5125)" style="font-variant:normal;font-weight:400;font-size:12px;font-family:'Bitstream Vera Sans';-inkscape-font-specification:BitstreamVeraSans-Roman;writing-mode:lr-tb;fill:#000;fill-opacity:1;fill-rule:nonzero;stroke:none"><tspan id="tspan226" x="0" y="0">1</tspan></text><path id="path228" d="m 28.903125,282.025 4,0" style="fill:#000;fill-opacity:1;fill-rule:nonzero;stroke:#000;stroke-width:.5;stroke-linecap:butt;stroke-linejoin:round;stroke-miterlimit:10;stroke-dasharray:none;stroke-opacity:1"/><path id="path230" d="m 475.30312,282.025 -4,0" style="fill:#000;fill-opacity:1;fill-rule:nonzero;stroke:#000;stroke-width:.5;stroke-linecap:butt;stroke-linejoin:round;stroke-miterlimit:10;stroke-dasharray:none;stroke-opacity:1"/><text id="text232" transform="matrix(1,0,0,-1,17.2625,278.7125)" style="font-variant:normal;font-weight:400;font-size:12px;font-family:'Bitstream Vera Sans';-inkscape-font-specification:BitstreamVeraSans-Roman;writing-mode:lr-tb;fill:#000;fill-opacity:1;fill-rule:nonzero;stroke:none"><tspan id="tspan234" x="0" y="0">2</tspan></text><path id="path236" d="m 28.903125,325.225 4,0" style="fill:#000;fill-opacity:1;fill-rule:nonzero;stroke:#000;stroke-width:.5;stroke-linecap:butt;stroke-linejoin:round;stroke-miterlimit:10;stroke-dasharray:none;stroke-opacity:1"/><path id="path238" d="m 475.30312,325.225 -4,0" style="fill:#000;fill-opacity:1;fill-rule:nonzero;stroke:#000;stroke-width:.5;stroke-linecap:butt;stroke-linejoin:round;stroke-miterlimit:10;stroke-dasharray:none;stroke-opacity:1"/><text id="text240" transform="matrix(1,0,0,-1,17.2625,321.9125)" style="font-variant:normal;font-weight:400;font-size:12px;font-family:'Bitstream Vera Sans';-inkscape-font-specification:BitstreamVeraSans-Roman;writing-mode:lr-tb;fill:#000;fill-opacity:1;fill-rule:nonzero;stroke:none"><tspan id="tspan242" x="0" y="0">3</tspan></text><path id="path244" d="m 28.903125,368.425 4,0" style="fill:#000;fill-opacity:1;fill-rule:nonzero;stroke:#000;stroke-width:.5;stroke-linecap:butt;stroke-linejoin:round;stroke-miterlimit:10;stroke-dasharray:none;stroke-opacity:1"/><path id="path246" d="m 475.30312,368.425 -4,0" style="fill:#000;fill-opacity:1;fill-rule:nonzero;stroke:#000;stroke-width:.5;stroke-linecap:butt;stroke-linejoin:round;stroke-miterlimit:10;stroke-dasharray:none;stroke-opacity:1"/><text id="text248" transform="matrix(1,0,0,-1,17.2625,365.1125)" style="font-variant:normal;font-weight:400;font-size:12px;font-family:'Bitstream Vera Sans';-inkscape-font-specification:BitstreamVeraSans-Roman;writing-mode:lr-tb;fill:#000;fill-opacity:1;fill-rule:nonzero;stroke:none"><tspan id="tspan250" x="0" y="0">4</tspan></text></g></g></svg>