<svg xmlns="http://www.w3.org/2000/svg" xmlns:svg="http://www.w3.org/2000/svg" id="svg2" width="604.867" height="476.797" version="1.1" viewBox="0 0 604.867 476.797" xml:space="preserve"><metadata id="metadata8"/><defs id="defs6"><clipPath id="clipPath20" clipPathUnits="userSpaceOnUse"><path id="path22" d="m 30.29375,22.825 446.4,0 0,345.6 -446.4,0 0,-345.6 z"/></clipPath><clipPath id="clipPath30" clipPathUnits="userSpaceOnUse"><path id="path32" d="m 30.29375,22.825 446.4,0 0,345.6 -446.4,0 0,-345.6 z"/></clipPath><clipPath id="clipPath40" clipPathUnits="userSpaceOnUse"><path id="path42" d="m 30.29375,22.825 446.4,0 0,345.6 -446.4,0 0,-345.6 z"/></clipPath></defs><g id="g10" transform="matrix(1.25,0,0,-1.25,0,476.79687)"><path id="path12" d="m 0,0 483.89375,0 0,381.4375 L 0,381.4375 0,0 Z" style="fill:#fff;fill-opacity:1;fill-rule:nonzero;stroke:none"/><path id="path14" d="m 30.29375,22.825 446.4,0 0,345.6 -446.4,0 0,-345.6 z" style="fill:#fff;fill-opacity:1;fill-rule:nonzero;stroke:none"/><g id="g16"><g id="g18" clip-path="url(#clipPath20)"><path id="path24" d="m 46.13375,22.825 4.151351,0.09973 4.151352,0.299197 4.151351,0.49866 4.67027,0.799416 4.670271,1.051863 4.67027,1.30431 4.67027,1.556756 4.67027,1.809204 4.670271,2.061651 4.67027,2.314098 4.67027,2.566545 4.670274,2.818992 4.67027,3.071439 4.67027,3.323886 4.67027,3.576333 5.18919,4.269783 5.18919,4.581446 5.18918,4.89311 5.18919,5.204772 5.18919,5.516435 5.18919,5.828099 5.18919,6.139761 5.70811,7.113708 5.70811,7.490826 5.70811,7.86793 5.7081,8.24505 5.70811,8.62215 5.70811,8.99927 6.22703,10.24748 6.22702,10.69628 6.22703,11.14507 6.22703,11.59386 6.22702,12.04266 6.74595,13.55267 6.74595,14.07937 6.74594,14.60609 6.74595,15.1328 6.74594,15.6595 7.26487,17.45313 7.26486,18.06399 7.26487,18.67485 7.26486,19.28571 7.26487,19.89656 7.78378,21.99562 1.23768,3.56244 0,0" style="fill:none;stroke:#00f;stroke-width:2;stroke-linecap:square;stroke-linejoin:round;stroke-miterlimit:10;stroke-dasharray:none;stroke-opacity:1"/></g></g><g id="g26"><g id="g28" clip-path="url(#clipPath30)"><path id="path34" d="m 46.30655,28.289416 0.518746,5.46715 1.037492,6.353622 1.037492,4.579311 1.556238,5.46633 1.556237,4.542234 2.074984,5.200503 2.074984,4.555829 2.59373,5.073956 2.593729,4.57432 3.112476,5.000525 3.112476,4.591099 3.631221,4.952785 4.149968,5.238884 4.149968,4.878321 4.668713,5.138015 5.18746,5.35141 5.187459,5.03885 5.706207,5.23997 6.22495,5.41014 6.7437,5.55466 7.26244,5.67792 7.78119,5.78358 8.29994,5.87456 8.81868,5.95331 9.33742,6.02178 9.85618,6.08161 10.37491,6.13413 10.89367,6.18042 11.41241,6.2214 11.93116,6.25783 12.96865,6.5475 13.48739,6.55828 14.00614,6.56792 15.04363,6.80735 15.56238,6.79979 16.59987,7.00841 17.11862,6.98844 18.15611,7.17204 19.1936,7.33845 19.71234,7.30033 20.74984,7.44909 21.78733,7.58465 22.82482,7.70833 23.86231,7.82134 24.62794,7.83939 0,0" style="fill:none;stroke:green;stroke-width:2;stroke-linecap:square;stroke-linejoin:round;stroke-miterlimit:10;stroke-dasharray:none;stroke-opacity:1"/></g></g><g id="g36"><g id="g38" clip-path="url(#clipPath40)"><path id="path44" d="m 46.13375,22.825 359.6125,359.6125 0,0" style="fill:none;stroke:red;stroke-width:2;stroke-linecap:square;stroke-linejoin:round;stroke-miterlimit:10;stroke-dasharray:none;stroke-opacity:1"/></g></g><g id="g46"><path id="path48" d="m 30.29375,368.425 446.4,0" style="fill:none;stroke:#000;stroke-width:1;stroke-linecap:square;stroke-linejoin:miter;stroke-miterlimit:10;stroke-dasharray:none;stroke-opacity:1"/><path id="path50" d="m 30.29375,22.825 446.4,0" style="fill:none;stroke:#000;stroke-width:1;stroke-linecap:square;stroke-linejoin:miter;stroke-miterlimit:10;stroke-dasharray:none;stroke-opacity:1"/><path id="path52" d="m 30.29375,22.825 0,345.6" style="fill:none;stroke:#000;stroke-width:1;stroke-linecap:square;stroke-linejoin:miter;stroke-miterlimit:10;stroke-dasharray:none;stroke-opacity:1"/><path id="path54" d="m 476.69375,22.825 0,345.6" style="fill:none;stroke:#000;stroke-width:1;stroke-linecap:square;stroke-linejoin:miter;stroke-miterlimit:10;stroke-dasharray:none;stroke-opacity:1"/><path id="path56" d="m 46.13375,22.825 0,4" style="fill:#000;fill-opacity:1;fill-rule:nonzero;stroke:#000;stroke-width:.5;stroke-linecap:butt;stroke-linejoin:round;stroke-miterlimit:10;stroke-dasharray:none;stroke-opacity:1"/><path id="path58" d="m 46.13375,368.425 0,-4" style="fill:#000;fill-opacity:1;fill-rule:nonzero;stroke:#000;stroke-width:.5;stroke-linecap:butt;stroke-linejoin:round;stroke-miterlimit:10;stroke-dasharray:none;stroke-opacity:1"/><text id="text60" transform="matrix(1,0,0,-1,36.586875,9.7)" style="font-variant:normal;font-weight:400;font-size:12px;font-family:'Bitstream Vera Sans';-inkscape-font-specification:BitstreamVeraSans-Roman;writing-mode:lr-tb;fill:#000;fill-opacity:1;fill-rule:nonzero;stroke:none"><tspan id="tspan62" x="0 7.632 11.448" y="0">0.0</tspan></text><path id="path64" d="m 132.53375,22.825 0,4" style="fill:#000;fill-opacity:1;fill-rule:nonzero;stroke:#000;stroke-width:.5;stroke-linecap:butt;stroke-linejoin:round;stroke-miterlimit:10;stroke-dasharray:none;stroke-opacity:1"/><path id="path66" d="m 132.53375,368.425 0,-4" style="fill:#000;fill-opacity:1;fill-rule:nonzero;stroke:#000;stroke-width:.5;stroke-linecap:butt;stroke-linejoin:round;stroke-miterlimit:10;stroke-dasharray:none;stroke-opacity:1"/><text id="text68" transform="matrix(1,0,0,-1,122.98687,9.7)" style="font-variant:normal;font-weight:400;font-size:12px;font-family:'Bitstream Vera Sans';-inkscape-font-specification:BitstreamVeraSans-Roman;writing-mode:lr-tb;fill:#000;fill-opacity:1;fill-rule:nonzero;stroke:none"><tspan id="tspan70" x="0 7.632 11.448" y="0">0.5</tspan></text><path id="path72" d="m 218.93375,22.825 0,4" style="fill:#000;fill-opacity:1;fill-rule:nonzero;stroke:#000;stroke-width:.5;stroke-linecap:butt;stroke-linejoin:round;stroke-miterlimit:10;stroke-dasharray:none;stroke-opacity:1"/><path id="path74" d="m 218.93375,368.425 0,-4" style="fill:#000;fill-opacity:1;fill-rule:nonzero;stroke:#000;stroke-width:.5;stroke-linecap:butt;stroke-linejoin:round;stroke-miterlimit:10;stroke-dasharray:none;stroke-opacity:1"/><text id="text76" transform="matrix(1,0,0,-1,209.38687,9.7)" style="font-variant:normal;font-weight:400;font-size:12px;font-family:'Bitstream Vera Sans';-inkscape-font-specification:BitstreamVeraSans-Roman;writing-mode:lr-tb;fill:#000;fill-opacity:1;fill-rule:nonzero;stroke:none"><tspan id="tspan78" x="0 7.632 11.448" y="0">1.0</tspan></text><path id="path80" d="m 305.33375,22.825 0,4" style="fill:#000;fill-opacity:1;fill-rule:nonzero;stroke:#000;stroke-width:.5;stroke-linecap:butt;stroke-linejoin:round;stroke-miterlimit:10;stroke-dasharray:none;stroke-opacity:1"/><path id="path82" d="m 305.33375,368.425 0,-4" style="fill:#000;fill-opacity:1;fill-rule:nonzero;stroke:#000;stroke-width:.5;stroke-linecap:butt;stroke-linejoin:round;stroke-miterlimit:10;stroke-dasharray:none;stroke-opacity:1"/><text id="text84" transform="matrix(1,0,0,-1,295.78687,9.7)" style="font-variant:normal;font-weight:400;font-size:12px;font-family:'Bitstream Vera Sans';-inkscape-font-specification:BitstreamVeraSans-Roman;writing-mode:lr-tb;fill:#000;fill-opacity:1;fill-rule:nonzero;stroke:none"><tspan id="tspan86" x="0 7.632 11.448" y="0">1.5</tspan></text><path id="path88" d="m 391.73375,22.825 0,4" style="fill:#000;fill-opacity:1;fill-rule:nonzero;stroke:#000;stroke-width:.5;stroke-linecap:butt;stroke-linejoin:round;stroke-miterlimit:10;stroke-dasharray:none;stroke-opacity:1"/><path id="path90" d="m 391.73375,368.425 0,-4" style="fill:#000;fill-opacity:1;fill-rule:nonzero;stroke:#000;stroke-width:.5;stroke-linecap:butt;stroke-linejoin:round;stroke-miterlimit:10;stroke-dasharray:none;stroke-opacity:1"/><text id="text92" transform="matrix(1,0,0,-1,382.18687,9.7)" style="font-variant:normal;font-weight:400;font-size:12px;font-family:'Bitstream Vera Sans';-inkscape-font-specification:BitstreamVeraSans-Roman;writing-mode:lr-tb;fill:#000;fill-opacity:1;fill-rule:nonzero;stroke:none"><tspan id="tspan94" x="0 7.632 11.448" y="0">2.0</tspan></text><path id="path96" d="m 30.29375,22.825 4,0" style="fill:#000;fill-opacity:1;fill-rule:nonzero;stroke:#000;stroke-width:.5;stroke-linecap:butt;stroke-linejoin:round;stroke-miterlimit:10;stroke-dasharray:none;stroke-opacity:1"/><path id="path98" d="m 476.69375,22.825 -4,0" style="fill:#000;fill-opacity:1;fill-rule:nonzero;stroke:#000;stroke-width:.5;stroke-linecap:butt;stroke-linejoin:round;stroke-miterlimit:10;stroke-dasharray:none;stroke-opacity:1"/><text id="text100" transform="matrix(1,0,0,-1,7.2,19.5125)" style="font-variant:normal;font-weight:400;font-size:12px;font-family:'Bitstream Vera Sans';-inkscape-font-specification:BitstreamVeraSans-Roman;writing-mode:lr-tb;fill:#000;fill-opacity:1;fill-rule:nonzero;stroke:none"><tspan id="tspan102" x="0 7.632 11.448" y="0">0.0</tspan></text><path id="path104" d="m 30.29375,109.225 4,0" style="fill:#000;fill-opacity:1;fill-rule:nonzero;stroke:#000;stroke-width:.5;stroke-linecap:butt;stroke-linejoin:round;stroke-miterlimit:10;stroke-dasharray:none;stroke-opacity:1"/><path id="path106" d="m 476.69375,109.225 -4,0" style="fill:#000;fill-opacity:1;fill-rule:nonzero;stroke:#000;stroke-width:.5;stroke-linecap:butt;stroke-linejoin:round;stroke-miterlimit:10;stroke-dasharray:none;stroke-opacity:1"/><text id="text108" transform="matrix(1,0,0,-1,7.2,105.9125)" style="font-variant:normal;font-weight:400;font-size:12px;font-family:'Bitstream Vera Sans';-inkscape-font-specification:BitstreamVeraSans-Roman;writing-mode:lr-tb;fill:#000;fill-opacity:1;fill-rule:nonzero;stroke:none"><tspan id="tspan110" x="0 7.632 11.448" y="0">0.5</tspan></text><path id="path112" d="m 30.29375,195.625 4,0" style="fill:#000;fill-opacity:1;fill-rule:nonzero;stroke:#000;stroke-width:.5;stroke-linecap:butt;stroke-linejoin:round;stroke-miterlimit:10;stroke-dasharray:none;stroke-opacity:1"/><path id="path114" d="m 476.69375,195.625 -4,0" style="fill:#000;fill-opacity:1;fill-rule:nonzero;stroke:#000;stroke-width:.5;stroke-linecap:butt;stroke-linejoin:round;stroke-miterlimit:10;stroke-dasharray:none;stroke-opacity:1"/><text id="text116" transform="matrix(1,0,0,-1,7.2,192.3125)" style="font-variant:normal;font-weight:400;font-size:12px;font-family:'Bitstream Vera Sans';-inkscape-font-specification:BitstreamVeraSans-Roman;writing-mode:lr-tb;fill:#000;fill-opacity:1;fill-rule:nonzero;stroke:none"><tspan id="tspan118" x="0 7.632 11.448" y="0">1.0</tspan></text><path id="path120" d="m 30.29375,282.025 4,0" style="fill:#000;fill-opacity:1;fill-rule:nonzero;stroke:#000;stroke-width:.5;stroke-linecap:butt;stroke-linejoin:round;stroke-miterlimit:10;stroke-dasharray:none;stroke-opacity:1"/><path id="path122" d="m 476.69375,282.025 -4,0" style="fill:#000;fill-opacity:1;fill-rule:nonzero;stroke:#000;stroke-width:.5;stroke-linecap:butt;stroke-linejoin:round;stroke-miterlimit:10;stroke-dasharray:none;stroke-opacity:1"/><text id="text124" transform="matrix(1,0,0,-1,7.2,278.7125)" style="font-variant:normal;font-weight:400;font-size:12px;font-family:'Bitstream Vera Sans';-inkscape-font-specification:BitstreamVeraSans-Roman;writing-mode:lr-tb;fill:#000;fill-opacity:1;fill-rule:nonzero;stroke:none"><tspan id="tspan126" x="0 7.632 11.448" y="0">1.5</tspan></text><path id="path128" d="m 30.29375,368.425 4,0" style="fill:#000;fill-opacity:1;fill-rule:nonzero;stroke:#000;stroke-width:.5;stroke-linecap:butt;stroke-linejoin:round;stroke-miterlimit:10;stroke-dasharray:none;stroke-opacity:1"/><path id="path130" d="m 476.69375,368.425 -4,0" style="fill:#000;fill-opacity:1;fill-rule:nonzero;stroke:#000;stroke-width:.5;stroke-linecap:butt;stroke-linejoin:round;stroke-miterlimit:10;stroke-dasharray:none;stroke-opacity:1"/><text id="text132" transform="matrix(1,0,0,-1,7.2,365.1125)" style="font-variant:normal;font-weight:400;font-size:12px;font-family:'Bitstream Vera Sans';-inkscape-font-specification:BitstreamVeraSans-Roman;writing-mode:lr-tb;fill:#000;fill-opacity:1;fill-rule:nonzero;stroke:none"><tspan id="tspan134" x="0 7.632 11.448" y="0">2.0</tspan></text></g></g></svg>