<svg xmlns="http://www.w3.org/2000/svg" xmlns:svg="http://www.w3.org/2000/svg" id="svg2" width="616.801" height="476.797" version="1.1" viewBox="0 0 616.801 476.797" xml:space="preserve"><metadata id="metadata8"/><defs id="defs6"><clipPath id="clipPath20" clipPathUnits="userSpaceOnUse"><path id="path22" d="m 30.29375,22.825 446.4,0 0,345.6 -446.4,0 0,-345.6 z"/></clipPath></defs><g id="g10" transform="matrix(1.25,0,0,-1.25,0,476.79687)"><path id="path12" d="m 0,0 493.44062,0 0,381.4375 L 0,381.4375 0,0 Z" style="fill:#fff;fill-opacity:1;fill-rule:nonzero;stroke:none"/><path id="path14" d="m 30.29375,22.825 446.4,0 0,345.6 -446.4,0 0,-345.6 z" style="fill:#fff;fill-opacity:1;fill-rule:nonzero;stroke:none"/><g id="g16"><g id="g18" clip-path="url(#clipPath20)"><path id="path24" d="m 30.293894,22.825 0,161.84169 4.463998,0 0,-7.0848 4.463997,0 0,-8.22241 4.463998,0 0,-2.4192 4.463997,0 0,-2.808 4.463998,0 0,-1.5984 4.463997,0 0,-4.49281 4.463998,0 0,-5.256 4.463997,0 0,-3.312 4.463998,0 0,-3.384 4.463997,0 0,-5.80321 4.463998,0 0,-4.6224 4.463998,0 0,-1.8288 4.463997,0 0,-4.2336 4.463998,0 0,-1.9008 4.463997,0 0,-2.7936 4.464003,0 0,-3.096 4.46399,0 0,-4.82401 4.464,0 0,-1.7568 4.464,0 0,-2.1312 4.46399,0 0,-4.032 4.464,0 0,-1.944 4.464,0 0,-0.432 4.464,0 0,-4.37761 4.46399,0 0,-0.4752 4.464,0 0,-3.787198 4.464,0 0,-2.462402 4.464,0 0,-2.894401 4.46399,0 0,-0.446401 4.464,0 0,-3.240001 4.464,0 0,-0.806401 4.464,0 0,-2.822401 4.46399,0 0,-0.504001 4.464,0 0,-4.118402 4.464,0 0,0.4176 4.464,0 0,-2.217601 4.46399,0 0,-3.052802 4.464,0 0,-1.2096 4.464,0 0,-1.008001 4.464,0 0,-2.203201 13.39199,0.0144 0,-2.419201 4.464,0 0,-2.707202 4.464,0 0,-0.2304 4.46399,0 0,-1.756801 4.464,0 0,-0.993601 4.464,0 0,-2.433601 4.464,0 0,-0.3456 4.46399,0 0,-1.252801 4.464,0 0,-0.4896 4.464,0 0,-2.232001 4.464,0 0,-0.676801 4.46399,0 0,-11.808006 4.464,0 0,-21.326412 53.56797,0 0,99.97926 4.464,0 0,205.34411 4.464,0 0,-3.744 4.46399,0 0,1.9152 4.464,0 0,-1.2528 4.464,0 0,-2.304 4.464,0 0,2.8656 4.46399,0 0,-4.32001 4.464,0 0,3.05281 4.464,0 0,1.6128 4.464,0 0,-2.2608 4.46399,0 0,3.6144 4.464,0 0,1.4832 4.464,0 0,-4.896 4.464,0 0,0.4032 4.46399,0 0,-1.0224 4.464,0 0,2.4912 4.464,0 0,-0.5616 4.464,0 0,-1.2528 4.46399,0 0,4.9968 4.464,0 0,-5.4864 4.464,0 0,3.2544 4.464,0 0,-2.4624 8.92799,-0.0288 0,3.096 4.464,0 0,1.8576 4.464,0 0,-6.0768 4.464,0 0,1.0944 4.46399,0 0,-1.1376 4.464,0 0,3.2544 4.464,0 0,-0.1584 4.46399,0 0,-1.7424 4.464,0 0,3.024 4.464,0 0,-0.4752 4.464,0 0,-304.15697 0,0" style="fill:none;stroke:red;stroke-width:1;stroke-linecap:butt;stroke-linejoin:miter;stroke-miterlimit:10;stroke-dasharray:none;stroke-opacity:1"/></g></g><g id="g26"><path id="path28" d="m 30.29375,368.425 446.4,0" style="fill:none;stroke:#000;stroke-width:1;stroke-linecap:square;stroke-linejoin:miter;stroke-miterlimit:10;stroke-dasharray:none;stroke-opacity:1"/><path id="path30" d="m 30.29375,22.825 446.4,0" style="fill:none;stroke:#000;stroke-width:1;stroke-linecap:square;stroke-linejoin:miter;stroke-miterlimit:10;stroke-dasharray:none;stroke-opacity:1"/><path id="path32" d="m 476.69375,22.825 0,345.6" style="fill:none;stroke:#000;stroke-width:1;stroke-linecap:square;stroke-linejoin:miter;stroke-miterlimit:10;stroke-dasharray:none;stroke-opacity:1"/><path id="path34" d="m 30.29375,22.825 0,345.6" style="fill:none;stroke:#000;stroke-width:1;stroke-linecap:square;stroke-linejoin:miter;stroke-miterlimit:10;stroke-dasharray:none;stroke-opacity:1"/><path id="path36" d="m 30.29375,22.825 0,4" style="fill:#000;fill-opacity:1;fill-rule:nonzero;stroke:#000;stroke-width:.5;stroke-linecap:butt;stroke-linejoin:round;stroke-miterlimit:10;stroke-dasharray:none;stroke-opacity:1"/><path id="path38" d="m 30.29375,368.425 0,-4" style="fill:#000;fill-opacity:1;fill-rule:nonzero;stroke:#000;stroke-width:.5;stroke-linecap:butt;stroke-linejoin:round;stroke-miterlimit:10;stroke-dasharray:none;stroke-opacity:1"/><text id="text40" transform="matrix(1,0,0,-1,20.746875,9.7)" style="font-variant:normal;font-weight:400;font-size:12px;font-family:'Bitstream Vera Sans';-inkscape-font-specification:BitstreamVeraSans-Roman;writing-mode:lr-tb;fill:#000;fill-opacity:1;fill-rule:nonzero;stroke:none"><tspan id="tspan42" x="0 7.632 11.448" y="0">0.0</tspan></text><path id="path44" d="m 104.69375,22.825 0,4" style="fill:#000;fill-opacity:1;fill-rule:nonzero;stroke:#000;stroke-width:.5;stroke-linecap:butt;stroke-linejoin:round;stroke-miterlimit:10;stroke-dasharray:none;stroke-opacity:1"/><path id="path46" d="m 104.69375,368.425 0,-4" style="fill:#000;fill-opacity:1;fill-rule:nonzero;stroke:#000;stroke-width:.5;stroke-linecap:butt;stroke-linejoin:round;stroke-miterlimit:10;stroke-dasharray:none;stroke-opacity:1"/><text id="text48" transform="matrix(1,0,0,-1,95.146875,9.7)" style="font-variant:normal;font-weight:400;font-size:12px;font-family:'Bitstream Vera Sans';-inkscape-font-specification:BitstreamVeraSans-Roman;writing-mode:lr-tb;fill:#000;fill-opacity:1;fill-rule:nonzero;stroke:none"><tspan id="tspan50" x="0 7.632 11.448" y="0">0.5</tspan></text><path id="path52" d="m 179.09375,22.825 0,4" style="fill:#000;fill-opacity:1;fill-rule:nonzero;stroke:#000;stroke-width:.5;stroke-linecap:butt;stroke-linejoin:round;stroke-miterlimit:10;stroke-dasharray:none;stroke-opacity:1"/><path id="path54" d="m 179.09375,368.425 0,-4" style="fill:#000;fill-opacity:1;fill-rule:nonzero;stroke:#000;stroke-width:.5;stroke-linecap:butt;stroke-linejoin:round;stroke-miterlimit:10;stroke-dasharray:none;stroke-opacity:1"/><text id="text56" transform="matrix(1,0,0,-1,169.54687,9.7)" style="font-variant:normal;font-weight:400;font-size:12px;font-family:'Bitstream Vera Sans';-inkscape-font-specification:BitstreamVeraSans-Roman;writing-mode:lr-tb;fill:#000;fill-opacity:1;fill-rule:nonzero;stroke:none"><tspan id="tspan58" x="0 7.632 11.448" y="0">1.0</tspan></text><path id="path60" d="m 253.49375,22.825 0,4" style="fill:#000;fill-opacity:1;fill-rule:nonzero;stroke:#000;stroke-width:.5;stroke-linecap:butt;stroke-linejoin:round;stroke-miterlimit:10;stroke-dasharray:none;stroke-opacity:1"/><path id="path62" d="m 253.49375,368.425 0,-4" style="fill:#000;fill-opacity:1;fill-rule:nonzero;stroke:#000;stroke-width:.5;stroke-linecap:butt;stroke-linejoin:round;stroke-miterlimit:10;stroke-dasharray:none;stroke-opacity:1"/><text id="text64" transform="matrix(1,0,0,-1,243.94687,9.7)" style="font-variant:normal;font-weight:400;font-size:12px;font-family:'Bitstream Vera Sans';-inkscape-font-specification:BitstreamVeraSans-Roman;writing-mode:lr-tb;fill:#000;fill-opacity:1;fill-rule:nonzero;stroke:none"><tspan id="tspan66" x="0 7.632 11.448" y="0">1.5</tspan></text><path id="path68" d="m 327.89375,22.825 0,4" style="fill:#000;fill-opacity:1;fill-rule:nonzero;stroke:#000;stroke-width:.5;stroke-linecap:butt;stroke-linejoin:round;stroke-miterlimit:10;stroke-dasharray:none;stroke-opacity:1"/><path id="path70" d="m 327.89375,368.425 0,-4" style="fill:#000;fill-opacity:1;fill-rule:nonzero;stroke:#000;stroke-width:.5;stroke-linecap:butt;stroke-linejoin:round;stroke-miterlimit:10;stroke-dasharray:none;stroke-opacity:1"/><text id="text72" transform="matrix(1,0,0,-1,318.34687,9.7)" style="font-variant:normal;font-weight:400;font-size:12px;font-family:'Bitstream Vera Sans';-inkscape-font-specification:BitstreamVeraSans-Roman;writing-mode:lr-tb;fill:#000;fill-opacity:1;fill-rule:nonzero;stroke:none"><tspan id="tspan74" x="0 7.632 11.448" y="0">2.0</tspan></text><path id="path76" d="m 402.29375,22.825 0,4" style="fill:#000;fill-opacity:1;fill-rule:nonzero;stroke:#000;stroke-width:.5;stroke-linecap:butt;stroke-linejoin:round;stroke-miterlimit:10;stroke-dasharray:none;stroke-opacity:1"/><path id="path78" d="m 402.29375,368.425 0,-4" style="fill:#000;fill-opacity:1;fill-rule:nonzero;stroke:#000;stroke-width:.5;stroke-linecap:butt;stroke-linejoin:round;stroke-miterlimit:10;stroke-dasharray:none;stroke-opacity:1"/><text id="text80" transform="matrix(1,0,0,-1,392.74687,9.7)" style="font-variant:normal;font-weight:400;font-size:12px;font-family:'Bitstream Vera Sans';-inkscape-font-specification:BitstreamVeraSans-Roman;writing-mode:lr-tb;fill:#000;fill-opacity:1;fill-rule:nonzero;stroke:none"><tspan id="tspan82" x="0 7.632 11.448" y="0">2.5</tspan></text><path id="path84" d="m 476.69375,22.825 0,4" style="fill:#000;fill-opacity:1;fill-rule:nonzero;stroke:#000;stroke-width:.5;stroke-linecap:butt;stroke-linejoin:round;stroke-miterlimit:10;stroke-dasharray:none;stroke-opacity:1"/><path id="path86" d="m 476.69375,368.425 0,-4" style="fill:#000;fill-opacity:1;fill-rule:nonzero;stroke:#000;stroke-width:.5;stroke-linecap:butt;stroke-linejoin:round;stroke-miterlimit:10;stroke-dasharray:none;stroke-opacity:1"/><text id="text88" transform="matrix(1,0,0,-1,467.14688,9.7)" style="font-variant:normal;font-weight:400;font-size:12px;font-family:'Bitstream Vera Sans';-inkscape-font-specification:BitstreamVeraSans-Roman;writing-mode:lr-tb;fill:#000;fill-opacity:1;fill-rule:nonzero;stroke:none"><tspan id="tspan90" x="0 7.632 11.448" y="0">3.0</tspan></text><path id="path92" d="m 30.29375,22.825 4,0" style="fill:#000;fill-opacity:1;fill-rule:nonzero;stroke:#000;stroke-width:.5;stroke-linecap:butt;stroke-linejoin:round;stroke-miterlimit:10;stroke-dasharray:none;stroke-opacity:1"/><path id="path94" d="m 476.69375,22.825 -4,0" style="fill:#000;fill-opacity:1;fill-rule:nonzero;stroke:#000;stroke-width:.5;stroke-linecap:butt;stroke-linejoin:round;stroke-miterlimit:10;stroke-dasharray:none;stroke-opacity:1"/><text id="text96" transform="matrix(1,0,0,-1,7.2,19.5125)" style="font-variant:normal;font-weight:400;font-size:12px;font-family:'Bitstream Vera Sans';-inkscape-font-specification:BitstreamVeraSans-Roman;writing-mode:lr-tb;fill:#000;fill-opacity:1;fill-rule:nonzero;stroke:none"><tspan id="tspan98" x="0 7.632 11.448" y="0">0.0</tspan></text><path id="path100" d="m 30.29375,66.025 4,0" style="fill:#000;fill-opacity:1;fill-rule:nonzero;stroke:#000;stroke-width:.5;stroke-linecap:butt;stroke-linejoin:round;stroke-miterlimit:10;stroke-dasharray:none;stroke-opacity:1"/><path id="path102" d="m 476.69375,66.025 -4,0" style="fill:#000;fill-opacity:1;fill-rule:nonzero;stroke:#000;stroke-width:.5;stroke-linecap:butt;stroke-linejoin:round;stroke-miterlimit:10;stroke-dasharray:none;stroke-opacity:1"/><text id="text104" transform="matrix(1,0,0,-1,7.2,62.7125)" style="font-variant:normal;font-weight:400;font-size:12px;font-family:'Bitstream Vera Sans';-inkscape-font-specification:BitstreamVeraSans-Roman;writing-mode:lr-tb;fill:#000;fill-opacity:1;fill-rule:nonzero;stroke:none"><tspan id="tspan106" x="0 7.632 11.448" y="0">0.1</tspan></text><path id="path108" d="m 30.29375,109.225 4,0" style="fill:#000;fill-opacity:1;fill-rule:nonzero;stroke:#000;stroke-width:.5;stroke-linecap:butt;stroke-linejoin:round;stroke-miterlimit:10;stroke-dasharray:none;stroke-opacity:1"/><path id="path110" d="m 476.69375,109.225 -4,0" style="fill:#000;fill-opacity:1;fill-rule:nonzero;stroke:#000;stroke-width:.5;stroke-linecap:butt;stroke-linejoin:round;stroke-miterlimit:10;stroke-dasharray:none;stroke-opacity:1"/><text id="text112" transform="matrix(1,0,0,-1,7.2,105.9125)" style="font-variant:normal;font-weight:400;font-size:12px;font-family:'Bitstream Vera Sans';-inkscape-font-specification:BitstreamVeraSans-Roman;writing-mode:lr-tb;fill:#000;fill-opacity:1;fill-rule:nonzero;stroke:none"><tspan id="tspan114" x="0 7.632 11.448" y="0">0.2</tspan></text><path id="path116" d="m 30.29375,152.425 4,0" style="fill:#000;fill-opacity:1;fill-rule:nonzero;stroke:#000;stroke-width:.5;stroke-linecap:butt;stroke-linejoin:round;stroke-miterlimit:10;stroke-dasharray:none;stroke-opacity:1"/><path id="path118" d="m 476.69375,152.425 -4,0" style="fill:#000;fill-opacity:1;fill-rule:nonzero;stroke:#000;stroke-width:.5;stroke-linecap:butt;stroke-linejoin:round;stroke-miterlimit:10;stroke-dasharray:none;stroke-opacity:1"/><text id="text120" transform="matrix(1,0,0,-1,7.2,149.1125)" style="font-variant:normal;font-weight:400;font-size:12px;font-family:'Bitstream Vera Sans';-inkscape-font-specification:BitstreamVeraSans-Roman;writing-mode:lr-tb;fill:#000;fill-opacity:1;fill-rule:nonzero;stroke:none"><tspan id="tspan122" x="0 7.632 11.448" y="0">0.3</tspan></text><path id="path124" d="m 30.29375,195.625 4,0" style="fill:#000;fill-opacity:1;fill-rule:nonzero;stroke:#000;stroke-width:.5;stroke-linecap:butt;stroke-linejoin:round;stroke-miterlimit:10;stroke-dasharray:none;stroke-opacity:1"/><path id="path126" d="m 476.69375,195.625 -4,0" style="fill:#000;fill-opacity:1;fill-rule:nonzero;stroke:#000;stroke-width:.5;stroke-linecap:butt;stroke-linejoin:round;stroke-miterlimit:10;stroke-dasharray:none;stroke-opacity:1"/><text id="text128" transform="matrix(1,0,0,-1,7.2,192.3125)" style="font-variant:normal;font-weight:400;font-size:12px;font-family:'Bitstream Vera Sans';-inkscape-font-specification:BitstreamVeraSans-Roman;writing-mode:lr-tb;fill:#000;fill-opacity:1;fill-rule:nonzero;stroke:none"><tspan id="tspan130" x="0 7.632 11.448" y="0">0.4</tspan></text><path id="path132" d="m 30.29375,238.825 4,0" style="fill:#000;fill-opacity:1;fill-rule:nonzero;stroke:#000;stroke-width:.5;stroke-linecap:butt;stroke-linejoin:round;stroke-miterlimit:10;stroke-dasharray:none;stroke-opacity:1"/><path id="path134" d="m 476.69375,238.825 -4,0" style="fill:#000;fill-opacity:1;fill-rule:nonzero;stroke:#000;stroke-width:.5;stroke-linecap:butt;stroke-linejoin:round;stroke-miterlimit:10;stroke-dasharray:none;stroke-opacity:1"/><text id="text136" transform="matrix(1,0,0,-1,7.2,235.5125)" style="font-variant:normal;font-weight:400;font-size:12px;font-family:'Bitstream Vera Sans';-inkscape-font-specification:BitstreamVeraSans-Roman;writing-mode:lr-tb;fill:#000;fill-opacity:1;fill-rule:nonzero;stroke:none"><tspan id="tspan138" x="0 7.632 11.448" y="0">0.5</tspan></text><path id="path140" d="m 30.29375,282.025 4,0" style="fill:#000;fill-opacity:1;fill-rule:nonzero;stroke:#000;stroke-width:.5;stroke-linecap:butt;stroke-linejoin:round;stroke-miterlimit:10;stroke-dasharray:none;stroke-opacity:1"/><path id="path142" d="m 476.69375,282.025 -4,0" style="fill:#000;fill-opacity:1;fill-rule:nonzero;stroke:#000;stroke-width:.5;stroke-linecap:butt;stroke-linejoin:round;stroke-miterlimit:10;stroke-dasharray:none;stroke-opacity:1"/><text id="text144" transform="matrix(1,0,0,-1,7.2,278.7125)" style="font-variant:normal;font-weight:400;font-size:12px;font-family:'Bitstream Vera Sans';-inkscape-font-specification:BitstreamVeraSans-Roman;writing-mode:lr-tb;fill:#000;fill-opacity:1;fill-rule:nonzero;stroke:none"><tspan id="tspan146" x="0 7.632 11.448" y="0">0.6</tspan></text><path id="path148" d="m 30.29375,325.225 4,0" style="fill:#000;fill-opacity:1;fill-rule:nonzero;stroke:#000;stroke-width:.5;stroke-linecap:butt;stroke-linejoin:round;stroke-miterlimit:10;stroke-dasharray:none;stroke-opacity:1"/><path id="path150" d="m 476.69375,325.225 -4,0" style="fill:#000;fill-opacity:1;fill-rule:nonzero;stroke:#000;stroke-width:.5;stroke-linecap:butt;stroke-linejoin:round;stroke-miterlimit:10;stroke-dasharray:none;stroke-opacity:1"/><text id="text152" transform="matrix(1,0,0,-1,7.2,321.9125)" style="font-variant:normal;font-weight:400;font-size:12px;font-family:'Bitstream Vera Sans';-inkscape-font-specification:BitstreamVeraSans-Roman;writing-mode:lr-tb;fill:#000;fill-opacity:1;fill-rule:nonzero;stroke:none"><tspan id="tspan154" x="0 7.632 11.448" y="0">0.7</tspan></text><path id="path156" d="m 30.29375,368.425 4,0" style="fill:#000;fill-opacity:1;fill-rule:nonzero;stroke:#000;stroke-width:.5;stroke-linecap:butt;stroke-linejoin:round;stroke-miterlimit:10;stroke-dasharray:none;stroke-opacity:1"/><path id="path158" d="m 476.69375,368.425 -4,0" style="fill:#000;fill-opacity:1;fill-rule:nonzero;stroke:#000;stroke-width:.5;stroke-linecap:butt;stroke-linejoin:round;stroke-miterlimit:10;stroke-dasharray:none;stroke-opacity:1"/><text id="text160" transform="matrix(1,0,0,-1,7.2,365.1125)" style="font-variant:normal;font-weight:400;font-size:12px;font-family:'Bitstream Vera Sans';-inkscape-font-specification:BitstreamVeraSans-Roman;writing-mode:lr-tb;fill:#000;fill-opacity:1;fill-rule:nonzero;stroke:none"><tspan id="tspan162" x="0 7.632 11.448" y="0">0.8</tspan></text></g></g></svg>