<svg xmlns="http://www.w3.org/2000/svg" xmlns:svg="http://www.w3.org/2000/svg" id="svg2" width="616.801" height="476.797" version="1.1" viewBox="0 0 616.801 476.797" xml:space="preserve"><metadata id="metadata8"/><defs id="defs6"><clipPath id="clipPath20" clipPathUnits="userSpaceOnUse"><path id="path22" d="m 30.29375,22.825 446.4,0 0,345.6 -446.4,0 0,-345.6 z"/></clipPath></defs><g id="g10" transform="matrix(1.25,0,0,-1.25,0,476.79687)"><path id="path12" d="m 0,0 493.44062,0 0,381.4375 L 0,381.4375 0,0 Z" style="fill:#fff;fill-opacity:1;fill-rule:nonzero;stroke:none"/><path id="path14" d="m 30.29375,22.825 446.4,0 0,345.6 -446.4,0 0,-345.6 z" style="fill:#fff;fill-opacity:1;fill-rule:nonzero;stroke:none"/><g id="g16"><g id="g18" clip-path="url(#clipPath20)"><path id="path24" d="m 30.293894,22.825 0,3.884198 4.463998,0 0,3.714164 4.463997,0 0,3.516825 4.463998,0 0,3.458765 4.463997,0 0,3.391373 4.463998,0 0,3.353011 4.463997,0 0,3.245184 4.463998,0 0,3.11904 4.463997,0 0,3.039552 4.463998,0 0,2.958336 4.463997,0 0,2.819059 4.463998,0 0,2.708122 4.463998,0 0,2.66423 4.463997,0 0,2.562624 4.463998,0 0,2.517005 4.463997,0 0,2.449958 4.464003,0 0,2.375655 4.46399,0 0,2.259878 4.464,0 0,2.217715 4.464,0 0,2.166567 4.46399,0 0,2.069798 4.464,0 0,2.023143 4.464,0 0,2.012774 4.464,0 0,1.907712 4.46399,0 0,1.896307 4.464,0 0,1.805415 4.464,0 0,1.746316 4.464,0 0,1.676852 4.46399,0 0,1.666137 4.464,0 0,1.588378 4.464,0 0,1.569027 4.464,0 0,1.50128 4.46399,0 0,1.48919 4.464,0 0,1.39035 4.464,0 0,1.40037 4.464,0 0,1.34715 4.46399,0 0,1.27388 4.464,0 0,1.24485 4.464,0 0,1.22066 4.464,0 0,1.16779 4.46399,0 0,1.16985 4.464,0 0,1.16813 4.464,0 0,1.11007 4.464,0 0,1.04509 4.464,0 0,1.03957 4.46399,0 0,0.9974 4.464,0 0,0.97355 4.464,0 0,0.91515 4.464,0 0,0.90686 4.46399,0 0,0.87678 4.464,0 0,0.86504 4.464,0 0,0.81147 4.464,0 0,0.79523 4.46399,0 0,0.51183 58.03197,0 0,2.3995 4.464,0 0,7.32776 4.464,0 0,7.2379 4.46399,0 0,7.28386 4.464,0 0,7.2538 4.464,0 0,7.1985 4.464,0 0,7.26728 4.46399,0 0,7.1636 4.464,0 0,7.23686 4.464,0 0,7.27557 4.464,0 0,7.22131 4.46399,0 0,7.30806 4.464,0 0,7.34366 4.464,0 0,7.22615 4.464,0 0,7.23582 4.46399,0 0,7.21129 4.464,0 0,7.27108 4.464,0 0,7.2576 4.464,0 0,7.22753 4.46399,0 0,7.34746 4.464,0 0,7.21578 4.464,0 0,7.29389 4.464,0 0,7.23479 4.46399,0 0,7.2341 4.464,0 0,7.3084 4.464,0 0,7.35299 4.464,0 0,7.20714 4.464,0 0,7.23341 4.46399,0 0,7.20611 4.464,0 0,7.28421 4.464,0 0,7.28041 4.46399,0 0,7.23859 4.464,0 0,7.31117 4.464,0 0,7.29976 4.464,0 0,-345.6 0,0" style="fill:none;stroke:red;stroke-width:1;stroke-linecap:butt;stroke-linejoin:miter;stroke-miterlimit:10;stroke-dasharray:none;stroke-opacity:1"/></g></g><g id="g26"><path id="path28" d="m 30.29375,368.425 446.4,0" style="fill:none;stroke:#000;stroke-width:1;stroke-linecap:square;stroke-linejoin:miter;stroke-miterlimit:10;stroke-dasharray:none;stroke-opacity:1"/><path id="path30" d="m 30.29375,22.825 446.4,0" style="fill:none;stroke:#000;stroke-width:1;stroke-linecap:square;stroke-linejoin:miter;stroke-miterlimit:10;stroke-dasharray:none;stroke-opacity:1"/><path id="path32" d="m 476.69375,22.825 0,345.6" style="fill:none;stroke:#000;stroke-width:1;stroke-linecap:square;stroke-linejoin:miter;stroke-miterlimit:10;stroke-dasharray:none;stroke-opacity:1"/><path id="path34" d="m 30.29375,22.825 0,345.6" style="fill:none;stroke:#000;stroke-width:1;stroke-linecap:square;stroke-linejoin:miter;stroke-miterlimit:10;stroke-dasharray:none;stroke-opacity:1"/><path id="path36" d="m 30.29375,22.825 0,4" style="fill:#000;fill-opacity:1;fill-rule:nonzero;stroke:#000;stroke-width:.5;stroke-linecap:butt;stroke-linejoin:round;stroke-miterlimit:10;stroke-dasharray:none;stroke-opacity:1"/><path id="path38" d="m 30.29375,368.425 0,-4" style="fill:#000;fill-opacity:1;fill-rule:nonzero;stroke:#000;stroke-width:.5;stroke-linecap:butt;stroke-linejoin:round;stroke-miterlimit:10;stroke-dasharray:none;stroke-opacity:1"/><text id="text40" transform="matrix(1,0,0,-1,20.746875,9.7)" style="font-variant:normal;font-weight:400;font-size:12px;font-family:'Bitstream Vera Sans';-inkscape-font-specification:BitstreamVeraSans-Roman;writing-mode:lr-tb;fill:#000;fill-opacity:1;fill-rule:nonzero;stroke:none"><tspan id="tspan42" x="0 7.632 11.448" y="0">0.0</tspan></text><path id="path44" d="m 104.69375,22.825 0,4" style="fill:#000;fill-opacity:1;fill-rule:nonzero;stroke:#000;stroke-width:.5;stroke-linecap:butt;stroke-linejoin:round;stroke-miterlimit:10;stroke-dasharray:none;stroke-opacity:1"/><path id="path46" d="m 104.69375,368.425 0,-4" style="fill:#000;fill-opacity:1;fill-rule:nonzero;stroke:#000;stroke-width:.5;stroke-linecap:butt;stroke-linejoin:round;stroke-miterlimit:10;stroke-dasharray:none;stroke-opacity:1"/><text id="text48" transform="matrix(1,0,0,-1,95.146875,9.7)" style="font-variant:normal;font-weight:400;font-size:12px;font-family:'Bitstream Vera Sans';-inkscape-font-specification:BitstreamVeraSans-Roman;writing-mode:lr-tb;fill:#000;fill-opacity:1;fill-rule:nonzero;stroke:none"><tspan id="tspan50" x="0 7.632 11.448" y="0">0.5</tspan></text><path id="path52" d="m 179.09375,22.825 0,4" style="fill:#000;fill-opacity:1;fill-rule:nonzero;stroke:#000;stroke-width:.5;stroke-linecap:butt;stroke-linejoin:round;stroke-miterlimit:10;stroke-dasharray:none;stroke-opacity:1"/><path id="path54" d="m 179.09375,368.425 0,-4" style="fill:#000;fill-opacity:1;fill-rule:nonzero;stroke:#000;stroke-width:.5;stroke-linecap:butt;stroke-linejoin:round;stroke-miterlimit:10;stroke-dasharray:none;stroke-opacity:1"/><text id="text56" transform="matrix(1,0,0,-1,169.54687,9.7)" style="font-variant:normal;font-weight:400;font-size:12px;font-family:'Bitstream Vera Sans';-inkscape-font-specification:BitstreamVeraSans-Roman;writing-mode:lr-tb;fill:#000;fill-opacity:1;fill-rule:nonzero;stroke:none"><tspan id="tspan58" x="0 7.632 11.448" y="0">1.0</tspan></text><path id="path60" d="m 253.49375,22.825 0,4" style="fill:#000;fill-opacity:1;fill-rule:nonzero;stroke:#000;stroke-width:.5;stroke-linecap:butt;stroke-linejoin:round;stroke-miterlimit:10;stroke-dasharray:none;stroke-opacity:1"/><path id="path62" d="m 253.49375,368.425 0,-4" style="fill:#000;fill-opacity:1;fill-rule:nonzero;stroke:#000;stroke-width:.5;stroke-linecap:butt;stroke-linejoin:round;stroke-miterlimit:10;stroke-dasharray:none;stroke-opacity:1"/><text id="text64" transform="matrix(1,0,0,-1,243.94687,9.7)" style="font-variant:normal;font-weight:400;font-size:12px;font-family:'Bitstream Vera Sans';-inkscape-font-specification:BitstreamVeraSans-Roman;writing-mode:lr-tb;fill:#000;fill-opacity:1;fill-rule:nonzero;stroke:none"><tspan id="tspan66" x="0 7.632 11.448" y="0">1.5</tspan></text><path id="path68" d="m 327.89375,22.825 0,4" style="fill:#000;fill-opacity:1;fill-rule:nonzero;stroke:#000;stroke-width:.5;stroke-linecap:butt;stroke-linejoin:round;stroke-miterlimit:10;stroke-dasharray:none;stroke-opacity:1"/><path id="path70" d="m 327.89375,368.425 0,-4" style="fill:#000;fill-opacity:1;fill-rule:nonzero;stroke:#000;stroke-width:.5;stroke-linecap:butt;stroke-linejoin:round;stroke-miterlimit:10;stroke-dasharray:none;stroke-opacity:1"/><text id="text72" transform="matrix(1,0,0,-1,318.34687,9.7)" style="font-variant:normal;font-weight:400;font-size:12px;font-family:'Bitstream Vera Sans';-inkscape-font-specification:BitstreamVeraSans-Roman;writing-mode:lr-tb;fill:#000;fill-opacity:1;fill-rule:nonzero;stroke:none"><tspan id="tspan74" x="0 7.632 11.448" y="0">2.0</tspan></text><path id="path76" d="m 402.29375,22.825 0,4" style="fill:#000;fill-opacity:1;fill-rule:nonzero;stroke:#000;stroke-width:.5;stroke-linecap:butt;stroke-linejoin:round;stroke-miterlimit:10;stroke-dasharray:none;stroke-opacity:1"/><path id="path78" d="m 402.29375,368.425 0,-4" style="fill:#000;fill-opacity:1;fill-rule:nonzero;stroke:#000;stroke-width:.5;stroke-linecap:butt;stroke-linejoin:round;stroke-miterlimit:10;stroke-dasharray:none;stroke-opacity:1"/><text id="text80" transform="matrix(1,0,0,-1,392.74687,9.7)" style="font-variant:normal;font-weight:400;font-size:12px;font-family:'Bitstream Vera Sans';-inkscape-font-specification:BitstreamVeraSans-Roman;writing-mode:lr-tb;fill:#000;fill-opacity:1;fill-rule:nonzero;stroke:none"><tspan id="tspan82" x="0 7.632 11.448" y="0">2.5</tspan></text><path id="path84" d="m 476.69375,22.825 0,4" style="fill:#000;fill-opacity:1;fill-rule:nonzero;stroke:#000;stroke-width:.5;stroke-linecap:butt;stroke-linejoin:round;stroke-miterlimit:10;stroke-dasharray:none;stroke-opacity:1"/><path id="path86" d="m 476.69375,368.425 0,-4" style="fill:#000;fill-opacity:1;fill-rule:nonzero;stroke:#000;stroke-width:.5;stroke-linecap:butt;stroke-linejoin:round;stroke-miterlimit:10;stroke-dasharray:none;stroke-opacity:1"/><text id="text88" transform="matrix(1,0,0,-1,467.14688,9.7)" style="font-variant:normal;font-weight:400;font-size:12px;font-family:'Bitstream Vera Sans';-inkscape-font-specification:BitstreamVeraSans-Roman;writing-mode:lr-tb;fill:#000;fill-opacity:1;fill-rule:nonzero;stroke:none"><tspan id="tspan90" x="0 7.632 11.448" y="0">3.0</tspan></text><path id="path92" d="m 30.29375,22.825 4,0" style="fill:#000;fill-opacity:1;fill-rule:nonzero;stroke:#000;stroke-width:.5;stroke-linecap:butt;stroke-linejoin:round;stroke-miterlimit:10;stroke-dasharray:none;stroke-opacity:1"/><path id="path94" d="m 476.69375,22.825 -4,0" style="fill:#000;fill-opacity:1;fill-rule:nonzero;stroke:#000;stroke-width:.5;stroke-linecap:butt;stroke-linejoin:round;stroke-miterlimit:10;stroke-dasharray:none;stroke-opacity:1"/><text id="text96" transform="matrix(1,0,0,-1,7.2,19.5125)" style="font-variant:normal;font-weight:400;font-size:12px;font-family:'Bitstream Vera Sans';-inkscape-font-specification:BitstreamVeraSans-Roman;writing-mode:lr-tb;fill:#000;fill-opacity:1;fill-rule:nonzero;stroke:none"><tspan id="tspan98" x="0 7.632 11.448" y="0">0.0</tspan></text><path id="path100" d="m 30.29375,91.945 4,0" style="fill:#000;fill-opacity:1;fill-rule:nonzero;stroke:#000;stroke-width:.5;stroke-linecap:butt;stroke-linejoin:round;stroke-miterlimit:10;stroke-dasharray:none;stroke-opacity:1"/><path id="path102" d="m 476.69375,91.945 -4,0" style="fill:#000;fill-opacity:1;fill-rule:nonzero;stroke:#000;stroke-width:.5;stroke-linecap:butt;stroke-linejoin:round;stroke-miterlimit:10;stroke-dasharray:none;stroke-opacity:1"/><text id="text104" transform="matrix(1,0,0,-1,7.2,88.6325)" style="font-variant:normal;font-weight:400;font-size:12px;font-family:'Bitstream Vera Sans';-inkscape-font-specification:BitstreamVeraSans-Roman;writing-mode:lr-tb;fill:#000;fill-opacity:1;fill-rule:nonzero;stroke:none"><tspan id="tspan106" x="0 7.632 11.448" y="0">0.2</tspan></text><path id="path108" d="m 30.29375,161.065 4,0" style="fill:#000;fill-opacity:1;fill-rule:nonzero;stroke:#000;stroke-width:.5;stroke-linecap:butt;stroke-linejoin:round;stroke-miterlimit:10;stroke-dasharray:none;stroke-opacity:1"/><path id="path110" d="m 476.69375,161.065 -4,0" style="fill:#000;fill-opacity:1;fill-rule:nonzero;stroke:#000;stroke-width:.5;stroke-linecap:butt;stroke-linejoin:round;stroke-miterlimit:10;stroke-dasharray:none;stroke-opacity:1"/><text id="text112" transform="matrix(1,0,0,-1,7.2,157.7525)" style="font-variant:normal;font-weight:400;font-size:12px;font-family:'Bitstream Vera Sans';-inkscape-font-specification:BitstreamVeraSans-Roman;writing-mode:lr-tb;fill:#000;fill-opacity:1;fill-rule:nonzero;stroke:none"><tspan id="tspan114" x="0 7.632 11.448" y="0">0.4</tspan></text><path id="path116" d="m 30.29375,230.185 4,0" style="fill:#000;fill-opacity:1;fill-rule:nonzero;stroke:#000;stroke-width:.5;stroke-linecap:butt;stroke-linejoin:round;stroke-miterlimit:10;stroke-dasharray:none;stroke-opacity:1"/><path id="path118" d="m 476.69375,230.185 -4,0" style="fill:#000;fill-opacity:1;fill-rule:nonzero;stroke:#000;stroke-width:.5;stroke-linecap:butt;stroke-linejoin:round;stroke-miterlimit:10;stroke-dasharray:none;stroke-opacity:1"/><text id="text120" transform="matrix(1,0,0,-1,7.2,226.8725)" style="font-variant:normal;font-weight:400;font-size:12px;font-family:'Bitstream Vera Sans';-inkscape-font-specification:BitstreamVeraSans-Roman;writing-mode:lr-tb;fill:#000;fill-opacity:1;fill-rule:nonzero;stroke:none"><tspan id="tspan122" x="0 7.632 11.448" y="0">0.6</tspan></text><path id="path124" d="m 30.29375,299.305 4,0" style="fill:#000;fill-opacity:1;fill-rule:nonzero;stroke:#000;stroke-width:.5;stroke-linecap:butt;stroke-linejoin:round;stroke-miterlimit:10;stroke-dasharray:none;stroke-opacity:1"/><path id="path126" d="m 476.69375,299.305 -4,0" style="fill:#000;fill-opacity:1;fill-rule:nonzero;stroke:#000;stroke-width:.5;stroke-linecap:butt;stroke-linejoin:round;stroke-miterlimit:10;stroke-dasharray:none;stroke-opacity:1"/><text id="text128" transform="matrix(1,0,0,-1,7.2,295.9925)" style="font-variant:normal;font-weight:400;font-size:12px;font-family:'Bitstream Vera Sans';-inkscape-font-specification:BitstreamVeraSans-Roman;writing-mode:lr-tb;fill:#000;fill-opacity:1;fill-rule:nonzero;stroke:none"><tspan id="tspan130" x="0 7.632 11.448" y="0">0.8</tspan></text><path id="path132" d="m 30.29375,368.425 4,0" style="fill:#000;fill-opacity:1;fill-rule:nonzero;stroke:#000;stroke-width:.5;stroke-linecap:butt;stroke-linejoin:round;stroke-miterlimit:10;stroke-dasharray:none;stroke-opacity:1"/><path id="path134" d="m 476.69375,368.425 -4,0" style="fill:#000;fill-opacity:1;fill-rule:nonzero;stroke:#000;stroke-width:.5;stroke-linecap:butt;stroke-linejoin:round;stroke-miterlimit:10;stroke-dasharray:none;stroke-opacity:1"/><text id="text136" transform="matrix(1,0,0,-1,7.2,365.1125)" style="font-variant:normal;font-weight:400;font-size:12px;font-family:'Bitstream Vera Sans';-inkscape-font-specification:BitstreamVeraSans-Roman;writing-mode:lr-tb;fill:#000;fill-opacity:1;fill-rule:nonzero;stroke:none"><tspan id="tspan138" x="0 7.632 11.448" y="0">1.0</tspan></text></g></g></svg>