<svg xmlns="http://www.w3.org/2000/svg" xmlns:svg="http://www.w3.org/2000/svg" id="svg2" width="609.643" height="476.797" version="1.1" viewBox="0 0 609.643 476.797" xml:space="preserve"><metadata id="metadata8"/><defs id="defs6"><clipPath id="clipPath20" clipPathUnits="userSpaceOnUse"><path id="path22" d="m 30.29375,22.825 446.4,0 0,345.6 -446.4,0 0,-345.6 z"/></clipPath><clipPath id="clipPath30" clipPathUnits="userSpaceOnUse"><path id="path32" d="m 30.29375,22.825 446.4,0 0,345.6 -446.4,0 0,-345.6 z"/></clipPath></defs><g id="g10" transform="matrix(1.25,0,0,-1.25,0,476.79687)"><path id="path12" d="m 0,0 487.71406,0 0,381.4375 L 0,381.4375 0,0 Z" style="fill:#fff;fill-opacity:1;fill-rule:nonzero;stroke:none"/><path id="path14" d="m 30.29375,22.825 446.4,0 0,345.6 -446.4,0 0,-345.6 z" style="fill:#fff;fill-opacity:1;fill-rule:nonzero;stroke:none"/><g id="g16"><g id="g18" clip-path="url(#clipPath20)"><path id="path24" d="m 30.694313,22.825 0,0.22464 7.936688,0.10368 0,0.10368 3.968345,0 0,0.24192 3.968344,0 0,0.1728 3.968344,0 0,0.27648 3.968344,0 0,0.19008 3.968344,0 0,0.2592 3.968344,0 0,0.3456 3.968344,0 0,0.22464 3.968344,0 0,0.24192 3.968345,0 0,0.32832 3.968344,0 0,0.48384 3.968344,0 0,0.41472 3.968344,0 0,0.29376 3.968344,0 0,0.32832 3.968344,0 0,0.53568 3.968344,0 0,0.62208 3.968347,0 0,0.62208 3.96834,0 0,0.65664 3.96835,0 0,0.70848 3.96834,0 0,0.864 3.96834,0 0,0.84672 3.96835,0 0,0.7776 3.96834,0 0,0.93312 3.96835,0 0,0.81216 3.96834,0 0,1.01952 3.96834,0 0,1.14048 3.96835,0 0,1.19232 3.96834,0 0,1.296 3.96835,0 0,1.79712 3.96834,0 0,1.17504 3.96835,0 0,1.6416 3.96834,0 0,2.19456 3.96834,0 0,2.03904 3.96835,0 0,1.93536 3.96834,0 0,2.16 3.96835,0 0,2.5056 3.96834,0 0,2.98944 3.96834,0 0,2.74752 3.96835,0 0,3.57696 3.96834,0 0,3.23136 3.96835,0 0,4.02624 3.96834,0 0,3.95712 3.96834,0 0,4.02624 3.96835,0 0,4.56192 3.96834,0 0,4.30272 3.96835,0 0,5.20128 3.96834,0 0,4.94208 3.96834,0 0,5.92704 3.96835,0 0,6.15168 3.96834,0 0,6.49728 3.96835,0 0,6.6528 3.96834,0 0,6.92928 3.96835,0 0,7.58592 3.96834,0 0,7.6896 3.96834,0 0,7.48224 3.96835,0 0,8.74368 3.96834,0 0,8.32896 3.96835,0 0,8.77824 3.96834,0 0,8.60544 3.96834,0 0,10.12608 3.96835,0 0,9.78048 3.96834,0 0,10.05696 3.96835,0 0,9.83232 3.96834,0 0,10.1088 3.96834,0 0,10.60992 3.96835,0 0,9.55584 3.96834,0 0,10.38528 3.96835,0 0,10.50624 3.96834,0 0,10.22976 3.96835,0 0,8.8992 3.96834,0 0,8.64 3.96834,0 0,8.69184 3.96835,0 0,7.91424 3.96834,0 0,6.67008 3.96835,0 0,6.89472 3.96834,0 0,5.51232 3.96834,0 0,4.6656 3.96835,0 0,4.16448 3.96834,0 0,3.74976 3.96835,0 0,3.1968 3.96834,0 0,3.09312 3.96834,0 0,2.36736 3.96835,0 0,1.41696 3.96834,0 0,1.08864 3.96835,0 0,0.9504 3.96834,0 0,0.67392 3.96835,0 0,0.48384 3.96834,0 0,0.20736 3.96834,0 0,0.13824 3.96835,0 0,0.15552 11.90503,0.10368 0,0.0518 23.81006,0.0346" style="fill:none;stroke:#00f;stroke-width:1;stroke-linecap:butt;stroke-linejoin:miter;stroke-miterlimit:10;stroke-dasharray:none;stroke-opacity:1"/></g></g><g id="g26"><g id="g28" clip-path="url(#clipPath30)"><path id="path34" d="m 30.694313,22.838065 16.74,0.701199 14.136,0.805467 12.648,0.941039 11.16,1.051861 10.044,1.168015 8.927997,1.252153 8.556,1.425472 7.812,1.527997 7.068,1.598465 6.696,1.730953 6.324,1.853923 5.952,1.963236 5.952,2.199603 5.58,2.300306 5.208,2.376282 5.208,2.619005 4.836,2.668755 4.836,2.916288 4.836,3.183907 4.464,3.194761 4.464,3.458074 4.464,3.739286 4.464,4.038867 4.464,4.357144 4.464,4.694242 4.092,4.615176 4.092,4.92829 4.092,5.255024 4.092,5.594605 4.092,5.94596 4.464,6.89932 4.464,7.34068 4.464,7.7897 4.464,8.24238 4.464,8.69391 4.836,9.91981 4.836,10.42401 5.208,11.75741 5.58,13.15253 6.324,15.49532 7.812,19.76972 19.716,50.23481 5.58,13.45007 4.836,11.0801 4.092,8.85479 3.72,7.57051 3.72,7.06452 3.348,5.89242 3.348,5.42791 2.976,4.4223 2.976,4.03738 2.976,3.65173 2.976,3.27033 2.604,2.55578 2.604,2.27982 2.604,2.01547 2.604,1.76499 2.976,1.73075 2.976,1.45025 2.976,1.19758 2.976,0.97368 3.348,0.86375 3.72,0.71895 4.092,0.55734 4.836,0.42362 5.952,0.28701 8.556,0.16574 17.112,0.0538 9.672,10e-4 0,0" style="fill:none;stroke:#000;stroke-width:1;stroke-linecap:square;stroke-linejoin:round;stroke-miterlimit:10;stroke-dasharray:none;stroke-opacity:1"/></g></g><g id="g36"><path id="path38" d="m 30.29375,22.825 0,345.6" style="fill:none;stroke:#000;stroke-width:1;stroke-linecap:square;stroke-linejoin:miter;stroke-miterlimit:10;stroke-dasharray:none;stroke-opacity:1"/><path id="path40" d="m 30.29375,22.825 446.4,0" style="fill:none;stroke:#000;stroke-width:1;stroke-linecap:square;stroke-linejoin:miter;stroke-miterlimit:10;stroke-dasharray:none;stroke-opacity:1"/><path id="path42" d="m 476.69375,22.825 0,345.6" style="fill:none;stroke:#000;stroke-width:1;stroke-linecap:square;stroke-linejoin:miter;stroke-miterlimit:10;stroke-dasharray:none;stroke-opacity:1"/><path id="path44" d="m 30.29375,368.425 446.4,0" style="fill:none;stroke:#000;stroke-width:1;stroke-linecap:square;stroke-linejoin:miter;stroke-miterlimit:10;stroke-dasharray:none;stroke-opacity:1"/><path id="path46" d="m 30.29375,22.825 0,4" style="fill:#000;fill-opacity:1;fill-rule:nonzero;stroke:#000;stroke-width:.5;stroke-linecap:butt;stroke-linejoin:round;stroke-miterlimit:10;stroke-dasharray:none;stroke-opacity:1"/><path id="path48" d="m 30.29375,368.425 0,-4" style="fill:#000;fill-opacity:1;fill-rule:nonzero;stroke:#000;stroke-width:.5;stroke-linecap:butt;stroke-linejoin:round;stroke-miterlimit:10;stroke-dasharray:none;stroke-opacity:1"/><text id="text50" transform="matrix(1,0,0,-1,26.473437,9.7)" style="font-variant:normal;font-weight:400;font-size:12px;font-family:'Bitstream Vera Sans';-inkscape-font-specification:BitstreamVeraSans-Roman;writing-mode:lr-tb;fill:#000;fill-opacity:1;fill-rule:nonzero;stroke:none"><tspan id="tspan52" x="0" y="0">0</tspan></text><path id="path54" d="m 104.69375,22.825 0,4" style="fill:#000;fill-opacity:1;fill-rule:nonzero;stroke:#000;stroke-width:.5;stroke-linecap:butt;stroke-linejoin:round;stroke-miterlimit:10;stroke-dasharray:none;stroke-opacity:1"/><path id="path56" d="m 104.69375,368.425 0,-4" style="fill:#000;fill-opacity:1;fill-rule:nonzero;stroke:#000;stroke-width:.5;stroke-linecap:butt;stroke-linejoin:round;stroke-miterlimit:10;stroke-dasharray:none;stroke-opacity:1"/><text id="text58" transform="matrix(1,0,0,-1,100.87344,9.7)" style="font-variant:normal;font-weight:400;font-size:12px;font-family:'Bitstream Vera Sans';-inkscape-font-specification:BitstreamVeraSans-Roman;writing-mode:lr-tb;fill:#000;fill-opacity:1;fill-rule:nonzero;stroke:none"><tspan id="tspan60" x="0" y="0">1</tspan></text><path id="path62" d="m 179.09375,22.825 0,4" style="fill:#000;fill-opacity:1;fill-rule:nonzero;stroke:#000;stroke-width:.5;stroke-linecap:butt;stroke-linejoin:round;stroke-miterlimit:10;stroke-dasharray:none;stroke-opacity:1"/><path id="path64" d="m 179.09375,368.425 0,-4" style="fill:#000;fill-opacity:1;fill-rule:nonzero;stroke:#000;stroke-width:.5;stroke-linecap:butt;stroke-linejoin:round;stroke-miterlimit:10;stroke-dasharray:none;stroke-opacity:1"/><text id="text66" transform="matrix(1,0,0,-1,175.27344,9.7)" style="font-variant:normal;font-weight:400;font-size:12px;font-family:'Bitstream Vera Sans';-inkscape-font-specification:BitstreamVeraSans-Roman;writing-mode:lr-tb;fill:#000;fill-opacity:1;fill-rule:nonzero;stroke:none"><tspan id="tspan68" x="0" y="0">2</tspan></text><path id="path70" d="m 253.49375,22.825 0,4" style="fill:#000;fill-opacity:1;fill-rule:nonzero;stroke:#000;stroke-width:.5;stroke-linecap:butt;stroke-linejoin:round;stroke-miterlimit:10;stroke-dasharray:none;stroke-opacity:1"/><path id="path72" d="m 253.49375,368.425 0,-4" style="fill:#000;fill-opacity:1;fill-rule:nonzero;stroke:#000;stroke-width:.5;stroke-linecap:butt;stroke-linejoin:round;stroke-miterlimit:10;stroke-dasharray:none;stroke-opacity:1"/><text id="text74" transform="matrix(1,0,0,-1,249.67344,9.7)" style="font-variant:normal;font-weight:400;font-size:12px;font-family:'Bitstream Vera Sans';-inkscape-font-specification:BitstreamVeraSans-Roman;writing-mode:lr-tb;fill:#000;fill-opacity:1;fill-rule:nonzero;stroke:none"><tspan id="tspan76" x="0" y="0">3</tspan></text><path id="path78" d="m 327.89375,22.825 0,4" style="fill:#000;fill-opacity:1;fill-rule:nonzero;stroke:#000;stroke-width:.5;stroke-linecap:butt;stroke-linejoin:round;stroke-miterlimit:10;stroke-dasharray:none;stroke-opacity:1"/><path id="path80" d="m 327.89375,368.425 0,-4" style="fill:#000;fill-opacity:1;fill-rule:nonzero;stroke:#000;stroke-width:.5;stroke-linecap:butt;stroke-linejoin:round;stroke-miterlimit:10;stroke-dasharray:none;stroke-opacity:1"/><text id="text82" transform="matrix(1,0,0,-1,324.07344,9.7)" style="font-variant:normal;font-weight:400;font-size:12px;font-family:'Bitstream Vera Sans';-inkscape-font-specification:BitstreamVeraSans-Roman;writing-mode:lr-tb;fill:#000;fill-opacity:1;fill-rule:nonzero;stroke:none"><tspan id="tspan84" x="0" y="0">4</tspan></text><path id="path86" d="m 402.29375,22.825 0,4" style="fill:#000;fill-opacity:1;fill-rule:nonzero;stroke:#000;stroke-width:.5;stroke-linecap:butt;stroke-linejoin:round;stroke-miterlimit:10;stroke-dasharray:none;stroke-opacity:1"/><path id="path88" d="m 402.29375,368.425 0,-4" style="fill:#000;fill-opacity:1;fill-rule:nonzero;stroke:#000;stroke-width:.5;stroke-linecap:butt;stroke-linejoin:round;stroke-miterlimit:10;stroke-dasharray:none;stroke-opacity:1"/><text id="text90" transform="matrix(1,0,0,-1,398.47344,9.7)" style="font-variant:normal;font-weight:400;font-size:12px;font-family:'Bitstream Vera Sans';-inkscape-font-specification:BitstreamVeraSans-Roman;writing-mode:lr-tb;fill:#000;fill-opacity:1;fill-rule:nonzero;stroke:none"><tspan id="tspan92" x="0" y="0">5</tspan></text><path id="path94" d="m 476.69375,22.825 0,4" style="fill:#000;fill-opacity:1;fill-rule:nonzero;stroke:#000;stroke-width:.5;stroke-linecap:butt;stroke-linejoin:round;stroke-miterlimit:10;stroke-dasharray:none;stroke-opacity:1"/><path id="path96" d="m 476.69375,368.425 0,-4" style="fill:#000;fill-opacity:1;fill-rule:nonzero;stroke:#000;stroke-width:.5;stroke-linecap:butt;stroke-linejoin:round;stroke-miterlimit:10;stroke-dasharray:none;stroke-opacity:1"/><text id="text98" transform="matrix(1,0,0,-1,472.87344,9.7)" style="font-variant:normal;font-weight:400;font-size:12px;font-family:'Bitstream Vera Sans';-inkscape-font-specification:BitstreamVeraSans-Roman;writing-mode:lr-tb;fill:#000;fill-opacity:1;fill-rule:nonzero;stroke:none"><tspan id="tspan100" x="0" y="0">6</tspan></text><path id="path102" d="m 30.29375,22.825 4,0" style="fill:#000;fill-opacity:1;fill-rule:nonzero;stroke:#000;stroke-width:.5;stroke-linecap:butt;stroke-linejoin:round;stroke-miterlimit:10;stroke-dasharray:none;stroke-opacity:1"/><path id="path104" d="m 476.69375,22.825 -4,0" style="fill:#000;fill-opacity:1;fill-rule:nonzero;stroke:#000;stroke-width:.5;stroke-linecap:butt;stroke-linejoin:round;stroke-miterlimit:10;stroke-dasharray:none;stroke-opacity:1"/><text id="text106" transform="matrix(1,0,0,-1,7.2,19.5125)" style="font-variant:normal;font-weight:400;font-size:12px;font-family:'Bitstream Vera Sans';-inkscape-font-specification:BitstreamVeraSans-Roman;writing-mode:lr-tb;fill:#000;fill-opacity:1;fill-rule:nonzero;stroke:none"><tspan id="tspan108" x="0 7.632 11.448" y="0">0.0</tspan></text><path id="path110" d="m 30.29375,91.945 4,0" style="fill:#000;fill-opacity:1;fill-rule:nonzero;stroke:#000;stroke-width:.5;stroke-linecap:butt;stroke-linejoin:round;stroke-miterlimit:10;stroke-dasharray:none;stroke-opacity:1"/><path id="path112" d="m 476.69375,91.945 -4,0" style="fill:#000;fill-opacity:1;fill-rule:nonzero;stroke:#000;stroke-width:.5;stroke-linecap:butt;stroke-linejoin:round;stroke-miterlimit:10;stroke-dasharray:none;stroke-opacity:1"/><text id="text114" transform="matrix(1,0,0,-1,7.2,88.6325)" style="font-variant:normal;font-weight:400;font-size:12px;font-family:'Bitstream Vera Sans';-inkscape-font-specification:BitstreamVeraSans-Roman;writing-mode:lr-tb;fill:#000;fill-opacity:1;fill-rule:nonzero;stroke:none"><tspan id="tspan116" x="0 7.632 11.448" y="0">0.2</tspan></text><path id="path118" d="m 30.29375,161.065 4,0" style="fill:#000;fill-opacity:1;fill-rule:nonzero;stroke:#000;stroke-width:.5;stroke-linecap:butt;stroke-linejoin:round;stroke-miterlimit:10;stroke-dasharray:none;stroke-opacity:1"/><path id="path120" d="m 476.69375,161.065 -4,0" style="fill:#000;fill-opacity:1;fill-rule:nonzero;stroke:#000;stroke-width:.5;stroke-linecap:butt;stroke-linejoin:round;stroke-miterlimit:10;stroke-dasharray:none;stroke-opacity:1"/><text id="text122" transform="matrix(1,0,0,-1,7.2,157.7525)" style="font-variant:normal;font-weight:400;font-size:12px;font-family:'Bitstream Vera Sans';-inkscape-font-specification:BitstreamVeraSans-Roman;writing-mode:lr-tb;fill:#000;fill-opacity:1;fill-rule:nonzero;stroke:none"><tspan id="tspan124" x="0 7.632 11.448" y="0">0.4</tspan></text><path id="path126" d="m 30.29375,230.185 4,0" style="fill:#000;fill-opacity:1;fill-rule:nonzero;stroke:#000;stroke-width:.5;stroke-linecap:butt;stroke-linejoin:round;stroke-miterlimit:10;stroke-dasharray:none;stroke-opacity:1"/><path id="path128" d="m 476.69375,230.185 -4,0" style="fill:#000;fill-opacity:1;fill-rule:nonzero;stroke:#000;stroke-width:.5;stroke-linecap:butt;stroke-linejoin:round;stroke-miterlimit:10;stroke-dasharray:none;stroke-opacity:1"/><text id="text130" transform="matrix(1,0,0,-1,7.2,226.8725)" style="font-variant:normal;font-weight:400;font-size:12px;font-family:'Bitstream Vera Sans';-inkscape-font-specification:BitstreamVeraSans-Roman;writing-mode:lr-tb;fill:#000;fill-opacity:1;fill-rule:nonzero;stroke:none"><tspan id="tspan132" x="0 7.632 11.448" y="0">0.6</tspan></text><path id="path134" d="m 30.29375,299.305 4,0" style="fill:#000;fill-opacity:1;fill-rule:nonzero;stroke:#000;stroke-width:.5;stroke-linecap:butt;stroke-linejoin:round;stroke-miterlimit:10;stroke-dasharray:none;stroke-opacity:1"/><path id="path136" d="m 476.69375,299.305 -4,0" style="fill:#000;fill-opacity:1;fill-rule:nonzero;stroke:#000;stroke-width:.5;stroke-linecap:butt;stroke-linejoin:round;stroke-miterlimit:10;stroke-dasharray:none;stroke-opacity:1"/><text id="text138" transform="matrix(1,0,0,-1,7.2,295.9925)" style="font-variant:normal;font-weight:400;font-size:12px;font-family:'Bitstream Vera Sans';-inkscape-font-specification:BitstreamVeraSans-Roman;writing-mode:lr-tb;fill:#000;fill-opacity:1;fill-rule:nonzero;stroke:none"><tspan id="tspan140" x="0 7.632 11.448" y="0">0.8</tspan></text><path id="path142" d="m 30.29375,368.425 4,0" style="fill:#000;fill-opacity:1;fill-rule:nonzero;stroke:#000;stroke-width:.5;stroke-linecap:butt;stroke-linejoin:round;stroke-miterlimit:10;stroke-dasharray:none;stroke-opacity:1"/><path id="path144" d="m 476.69375,368.425 -4,0" style="fill:#000;fill-opacity:1;fill-rule:nonzero;stroke:#000;stroke-width:.5;stroke-linecap:butt;stroke-linejoin:round;stroke-miterlimit:10;stroke-dasharray:none;stroke-opacity:1"/><text id="text146" transform="matrix(1,0,0,-1,7.2,365.1125)" style="font-variant:normal;font-weight:400;font-size:12px;font-family:'Bitstream Vera Sans';-inkscape-font-specification:BitstreamVeraSans-Roman;writing-mode:lr-tb;fill:#000;fill-opacity:1;fill-rule:nonzero;stroke:none"><tspan id="tspan148" x="0 7.632 11.448" y="0">1.0</tspan></text></g></g></svg>