<svg xmlns="http://www.w3.org/2000/svg" xmlns:svg="http://www.w3.org/2000/svg" id="svg2" width="609.643" height="476.797" version="1.1" viewBox="0 0 609.643 476.797" xml:space="preserve"><metadata id="metadata8"/><defs id="defs6"><clipPath id="clipPath20" clipPathUnits="userSpaceOnUse"><path id="path22" d="m 30.29375,22.825 446.4,0 0,345.6 -446.4,0 0,-345.6 z"/></clipPath><clipPath id="clipPath30" clipPathUnits="userSpaceOnUse"><path id="path32" d="m 30.29375,22.825 446.4,0 0,345.6 -446.4,0 0,-345.6 z"/></clipPath><clipPath id="clipPath40" clipPathUnits="userSpaceOnUse"><path id="path42" d="m 30.29375,22.825 446.4,0 0,345.6 -446.4,0 0,-345.6 z"/></clipPath><clipPath id="clipPath50" clipPathUnits="userSpaceOnUse"><path id="path52" d="m 30.29375,22.825 446.4,0 0,345.6 -446.4,0 0,-345.6 z"/></clipPath><clipPath id="clipPath60" clipPathUnits="userSpaceOnUse"><path id="path62" d="m 30.29375,22.825 446.4,0 0,345.6 -446.4,0 0,-345.6 z"/></clipPath><clipPath id="clipPath70" clipPathUnits="userSpaceOnUse"><path id="path72" d="m 30.29375,22.825 446.4,0 0,345.6 -446.4,0 0,-345.6 z"/></clipPath><clipPath id="clipPath80" clipPathUnits="userSpaceOnUse"><path id="path82" d="m 30.29375,22.825 446.4,0 0,345.6 -446.4,0 0,-345.6 z"/></clipPath><clipPath id="clipPath90" clipPathUnits="userSpaceOnUse"><path id="path92" d="m 30.29375,22.825 446.4,0 0,345.6 -446.4,0 0,-345.6 z"/></clipPath><clipPath id="clipPath100" clipPathUnits="userSpaceOnUse"><path id="path102" d="m 30.29375,22.825 446.4,0 0,345.6 -446.4,0 0,-345.6 z"/></clipPath><clipPath id="clipPath110" clipPathUnits="userSpaceOnUse"><path id="path112" d="m 30.29375,22.825 446.4,0 0,345.6 -446.4,0 0,-345.6 z"/></clipPath><clipPath id="clipPath120" clipPathUnits="userSpaceOnUse"><path id="path122" d="m 30.29375,22.825 446.4,0 0,345.6 -446.4,0 0,-345.6 z"/></clipPath><clipPath id="clipPath130" clipPathUnits="userSpaceOnUse"><path id="path132" d="m 30.29375,22.825 446.4,0 0,345.6 -446.4,0 0,-345.6 z"/></clipPath><clipPath id="clipPath140" clipPathUnits="userSpaceOnUse"><path id="path142" d="m 30.29375,22.825 446.4,0 0,345.6 -446.4,0 0,-345.6 z"/></clipPath><clipPath id="clipPath150" clipPathUnits="userSpaceOnUse"><path id="path152" d="m 30.29375,22.825 446.4,0 0,345.6 -446.4,0 0,-345.6 z"/></clipPath><clipPath id="clipPath160" clipPathUnits="userSpaceOnUse"><path id="path162" d="m 30.29375,22.825 446.4,0 0,345.6 -446.4,0 0,-345.6 z"/></clipPath><clipPath id="clipPath170" clipPathUnits="userSpaceOnUse"><path id="path172" d="m 30.29375,22.825 446.4,0 0,345.6 -446.4,0 0,-345.6 z"/></clipPath><clipPath id="clipPath180" clipPathUnits="userSpaceOnUse"><path id="path182" d="m 30.29375,22.825 446.4,0 0,345.6 -446.4,0 0,-345.6 z"/></clipPath></defs><g id="g10" transform="matrix(1.25,0,0,-1.25,0,476.79687)"><path id="path12" d="m 0,0 487.71406,0 0,381.4375 L 0,381.4375 0,0 Z" style="fill:#fff;fill-opacity:1;fill-rule:nonzero;stroke:none"/><path id="path14" d="m 30.29375,22.825 446.4,0 0,345.6 -446.4,0 0,-345.6 z" style="fill:#fff;fill-opacity:1;fill-rule:nonzero;stroke:none"/><g id="g16"><g id="g18" clip-path="url(#clipPath20)"><path id="path24" d="m 30.29375,26.527855 11.904,0.998017 10.416,1.089883 9.672,1.234941 8.556,1.307775 8.184,1.475021 7.44,1.562746 7.068,1.710415 6.696,1.852107 6.324,1.983586 5.952,2.100415 5.58,2.198119 5.58,2.443382 5.208,2.523935 5.208,2.78152 4.836,2.83407 4.836,3.096536 4.464,3.109557 4.464,3.368578 4.464,3.645632 4.464,3.941257 4.464,4.25584 4.464,4.589575 4.092,4.516594 4.092,4.827509 4.092,5.152352 4.092,5.490323 4.092,5.84024 4.092,6.20057 4.464,7.18491 4.464,7.6308 4.464,8.07922 4.464,8.52433 4.836,9.72469 5.208,11.01453 5.58,12.36933 5.952,13.74178 7.812,18.63449 14.136,33.82633 5.208,11.79354 4.092,8.72196 3.348,6.65835 2.976,5.476 2.604,4.39315 2.604,3.97118 2.232,3.03097 2.232,2.65392 1.86,1.90113 1.86,1.59982 1.86,1.28091 1.488,0.78353 1.488,0.55987 1.488,0.32793 1.488,0.0881 1.488,-0.15936 1.488,-0.41386 1.488,-0.67494 1.488,-0.94202 1.488,-1.21446 1.488,-1.49157 1.488,-1.77256 1.86,-2.61543 1.86,-3.0632 1.86,-3.51261 1.86,-3.96112 2.232,-5.3401 2.232,-5.96894 2.232,-6.57992 2.604,-8.416 2.604,-9.16441 2.976,-11.30987 3.348,-13.65503 3.72,-16.10718 5.208,-23.64998 10.788,-49.3657 4.092,-17.50721 3.348,-13.373199 2.976,-11.013251 2.604,-8.881544 2.604,-8.127611 2.604,-7.345063 2.232,-5.66434 2.232,-5.084739 2.232,-4.51747 2.232,-3.970594 2.232,-3.451164 1.86,-2.503065 1.86,-2.18715 1.86,-1.894634 1.86,-1.626603 2.232,-1.633377 2.232,-1.32668 2.232,-1.06211 2.232,-0.837579 2.604,-0.742778 2.976,-0.604092 3.348,-0.447454 4.092,-0.319906 5.58,-0.202143 9.672,-0.09123 45.384,-0.01084 8.184,0 0,0" style="fill:none;stroke:#000;stroke-width:1;stroke-linecap:square;stroke-linejoin:round;stroke-miterlimit:10;stroke-dasharray:none;stroke-opacity:1"/></g></g><g id="g26"><g id="g28" clip-path="url(#clipPath30)"><path id="path34" d="m 30.29375,26.527855 6.696,1.351537 8.928,1.560689 11.532,1.77733 14.508,1.998437 17.484,2.178125 3.72,0.438922 0,0" style="fill:none;stroke:red;stroke-width:1;stroke-linecap:square;stroke-linejoin:round;stroke-miterlimit:10;stroke-dasharray:none;stroke-opacity:1"/></g></g><g id="g36"><g id="g38" clip-path="url(#clipPath40)"><path id="path44" d="m 93.320005,35.851403 3.72,2.809928 4.464005,3.073016 5.208,3.295642 5.952,3.489343 6.696,3.661553 7.44,3.817235 8.55599,4.134723 9.3,4.248588 10.416,4.514183 5.952,2.482135 0,0" style="fill:none;stroke:red;stroke-width:1;stroke-linecap:square;stroke-linejoin:round;stroke-miterlimit:10;stroke-dasharray:none;stroke-opacity:1"/></g></g><g id="g46"><g id="g48" clip-path="url(#clipPath50)"><path id="path54" d="m 161.27878,71.48257 3.348,8.196645 3.72,8.463236 4.092,8.716509 4.464,8.95756 4.836,9.1875 5.208,9.40736 5.58,9.61804 5.952,9.82038 6.324,10.01513 6.696,10.20287 7.44,10.92082 7.812,11.05998 8.184,11.19816 4.836,6.45045 0,0" style="fill:none;stroke:red;stroke-width:1;stroke-linecap:square;stroke-linejoin:round;stroke-miterlimit:10;stroke-dasharray:none;stroke-opacity:1"/></g></g><g id="g56"><g id="g58" clip-path="url(#clipPath60)"><path id="path64" d="m 240.04922,218.44631 0.372,0.71558 0.372,0.71429 0.372,0.71299 0.372,0.71171 0.372,0.71044 0.372,0.70917 0.372,0.70791 0.372,0.70667 0.372,0.70543 0.372,0.7042 0.372,0.70298 0.372,0.70177 0.372,0.70056 0.372,0.69937 0.372,0.69818 0.372,0.697 0.372,0.69583 0.372,0.69466 0.372,0.69351 0.372,0.69235 0.372,0.69122 0.372,0.69009 0.372,0.68895 0.372,0.68784 0.372,0.68673 0.372,0.68562 0.372,0.68452 0.372,0.68344 0.372,0.68235 0.372,0.68128 0.372,0.6802 0.372,0.67914 0.372,0.67808 0.372,0.67704 0.372,0.67599 0.372,0.67495 0.372,0.67392 0.372,0.6729 0.372,0.67188 0.372,0.67087 0.372,0.66986 0.372,0.66886 0.372,0.66787 0.372,0.66688 0.372,0.66589 0.372,0.66492 0.372,0.66395 0.372,0.66298 0.372,0.66202 0.372,0.66107 0.372,0.66012 0.372,0.65918 0.372,0.65824 0.372,0.6573 0.372,0.65638 0.372,0.65546 0.372,0.65454 0.372,0.65362 0.372,0.65272 0.372,0.65182 0.372,0.65092 0.372,0.65003 0.372,0.64914 0.372,0.64826 0.372,0.64739 0.372,0.64651 0.372,0.64564 0.372,0.64478 0.372,0.64391 0.372,0.64307 0.372,0.64221 0.372,0.64138 0.372,0.64052 0.372,0.6397 0.372,0.63886 0.372,0.63803 0.372,0.63721 0.372,0.63639 0.372,0.63557 0.372,0.63477 0.372,0.63395 0.372,0.63316 0.372,0.63235 0.372,0.63156 0.372,0.63077 0.372,0.62999 0.372,0.6292 0.372,0.62842 0.372,0.62764" style="fill:none;stroke:red;stroke-width:1;stroke-linecap:square;stroke-linejoin:round;stroke-miterlimit:10;stroke-dasharray:none;stroke-opacity:1"/></g></g><g id="g66"><g id="g68" clip-path="url(#clipPath70)"><path id="path74" d="m 273.45195,278.37968 0.372,0.62626 0.372,0.6255 0.372,0.62475 0.372,0.62398 0.372,0.62323 0.372,0.62248 0.372,0.62174 0.372,0.62099 0.372,0.62025 0.372,0.61952 0.372,0.61878 0.372,0.61806 0.372,0.61733 0.372,0.61661 0.372,0.61589 0.372,0.61517 0.372,0.61447 0.372,0.61375 0.372,0.61305 0.372,0.61235 0.372,0.61164 0.372,0.61096 0.372,0.61026 0.372,0.60957 0.372,0.60888 0.372,0.6082 0.372,0.60752 0.372,0.60684 0.372,0.60617 0.372,0.6055 0.372,0.60483 0.372,0.60416 0.372,0.60351 0.372,0.60284 0.372,0.60218 0.372,0.60154 0.372,0.60088 0.372,0.60023 0.372,0.59959 0.372,0.59894 0.372,0.59831 0.372,0.59767 0.372,0.59703 0.372,0.5964 0.372,0.59578 0.372,0.59514 0.372,0.59452 0.372,0.59391 0.372,0.59328 0.372,0.59267 0.372,0.59205 0.372,0.59144 0.372,0.59084 0.372,0.59023 0.372,0.58962 0.372,0.58902 0.372,0.58843 0.372,0.58783 0.372,0.58724 0.372,0.58664 0.372,0.58606 0.372,0.58546 0.372,0.58489 0.372,0.5843 0.372,0.58373 0.372,0.58314 0.372,0.58257 0.372,0.582 0.372,0.58143 0.372,0.58086 0.372,0.58029 0.372,0.57973 0.372,0.57917 0.372,0.57861 0.372,0.57805 0.372,0.57749 0.372,0.57694 0.372,0.5764 0.372,0.57584 0.372,0.57529 0.372,0.57475 0.372,0.57421 0.372,0.57367 0.372,0.57313 0.372,0.57259 0.372,0.57206 0.372,0.57153 0.372,0.57099 0.372,0.57047 0.372,0.56994 0.372,0.56941 0.372,0.56889 0.372,0.56837 0.372,0.56786 0.372,0.56733 0.372,0.56682 0.372,0.56631 0.372,0.56579 0.372,0.56529 0.372,0.56478 0.372,0.56427 0.372,0.56376 0.372,0.56327 0.372,0.56276 0.372,0.56227 0.372,0.56177 0.372,0.56127 0.372,0.56078 0.372,0.56028 0.372,0.5598 0.372,0.55931 0.372,0.55882 0.372,0.55834 0.372,0.55785 0.372,0.55738 0.372,0.55689 0.372,0.55641 0.372,0.55594 0.372,0.55546" style="fill:none;stroke:red;stroke-width:1;stroke-linecap:square;stroke-linejoin:round;stroke-miterlimit:10;stroke-dasharray:none;stroke-opacity:1"/></g></g><g id="g76"><g id="g78" clip-path="url(#clipPath80)"><path id="path84" d="m 318.06159,258.26356 6.696,-16.81883 6.324,-16.50156 5.952,-16.17163 5.58,-15.82764 5.208,-15.46805 4.836,-15.09093 4.464,-14.69398 4.092,-14.27438 3.72,-13.82859 3.348,-13.35213 2.976,-12.839096 2.604,-12.281594 2.232,-11.668578 1.86,-10.983877 1.488,-10.202279 1.116,-9.280947 0.372,-3.726612 0,0" style="fill:none;stroke:red;stroke-width:1;stroke-linecap:square;stroke-linejoin:round;stroke-miterlimit:10;stroke-dasharray:none;stroke-opacity:1"/></g></g><g id="g86"><g id="g88" clip-path="url(#clipPath90)"><path id="path94" d="m 380.94639,35.071846 25.668,-2.300433 20.46,-2.044956 16.368,-1.850659 12.276,-1.600259 8.928,-1.37538 5.952,-1.122592 3.72,-0.910828 1.86,-0.665602 0.372,-0.215854 0,0" style="fill:none;stroke:red;stroke-width:1;stroke-linecap:square;stroke-linejoin:round;stroke-miterlimit:10;stroke-dasharray:none;stroke-opacity:1"/></g></g><g id="g96"><g id="g98" clip-path="url(#clipPath100)"><path id="path104" d="m 476.69375,22.825 0,0" style="fill:none;stroke:red;stroke-width:1;stroke-linecap:square;stroke-linejoin:round;stroke-miterlimit:10;stroke-dasharray:none;stroke-opacity:1"/></g></g><g id="g106"><g id="g108" clip-path="url(#clipPath110)"><path id="path114" d="m 30.29375,26.527855 19.344,1.324676 25.668,1.525803 17.856,0.96249 0,0" style="fill:none;stroke:green;stroke-width:1;stroke-linecap:square;stroke-linejoin:round;stroke-miterlimit:10;stroke-dasharray:none;stroke-opacity:1"/></g></g><g id="g116"><g id="g118" clip-path="url(#clipPath120)"><path id="path124" d="m 93.320005,35.851403 10.044005,2.47662 11.904,2.700324 13.76399,2.891474 15.996,3.129114 15.996,2.938393 0,0" style="fill:none;stroke:green;stroke-width:1;stroke-linecap:square;stroke-linejoin:round;stroke-miterlimit:10;stroke-dasharray:none;stroke-opacity:1"/></g></g><g id="g126"><g id="g128" clip-path="url(#clipPath130)"><path id="path134" d="m 161.27878,71.48257 6.324,5.610076 6.696,5.639726 7.44,5.970126 8.184,6.269161 8.556,6.275081 9.3,6.5476 10.044,6.79912 10.788,7.03271 11.16,7.02088 0,0" style="fill:none;stroke:green;stroke-width:1;stroke-linecap:square;stroke-linejoin:round;stroke-miterlimit:10;stroke-dasharray:none;stroke-opacity:1"/></g></g><g id="g136"><g id="g138" clip-path="url(#clipPath140)"><path id="path144" d="m 240.04922,204.06509 0.372,0.89166 0.372,0.88948 0.372,0.88733 0.372,0.8852 0.372,0.88308 0.372,0.88098 0.372,0.87891 0.372,0.87685 0.372,0.87481 0.372,0.8728 0.372,0.8708 0.372,0.86882 0.372,0.86685 0.372,0.86491 0.372,0.86298 0.372,0.86107 0.372,0.85917 0.372,0.85729 0.372,0.85544 0.372,0.85359 0.372,0.85176 0.372,0.84994 0.372,0.84815 0.372,0.84636 0.372,0.84459 0.372,0.84284 0.372,0.8411 0.372,0.83938 0.372,0.83766 0.372,0.83597 0.372,0.83428 0.372,0.83261 0.372,0.83096 0.372,0.82931 0.372,0.82768 0.372,0.82607 0.372,0.82445 0.372,0.82287 0.372,0.82128 0.372,0.81972 0.372,0.81816 0.372,0.81661 0.372,0.81508 0.372,0.81355 0.372,0.81205 0.372,0.81055 0.372,0.80906 0.372,0.80758 0.372,0.80611 0.372,0.80466 0.372,0.80321 0.372,0.80178 0.372,0.80035 0.372,0.79893 0.372,0.79753 0.372,0.79614 0.372,0.79475 0.372,0.79337 0.372,0.79201 0.372,0.79064 0.372,0.78931 0.372,0.78796 0.372,0.78663 0.372,0.78531 0.372,0.784 0.372,0.7827 0.372,0.7814 0.372,0.78011 0.372,0.77884 0.372,0.77757 0.372,0.7763 0.372,0.77506 0.372,0.7738 0.372,0.77258 0.372,0.77134 0.372,0.77012 0.372,0.7689 0.372,0.76771 0.372,0.7665 0.372,0.76531 0.372,0.76413 0.372,0.76295 0.372,0.76178 0.372,0.76062 0.372,0.75946 0.372,0.75832 0.372,0.75718 0.372,0.75604 0.372,0.75491" style="fill:none;stroke:green;stroke-width:1;stroke-linecap:square;stroke-linejoin:round;stroke-miterlimit:10;stroke-dasharray:none;stroke-opacity:1"/></g></g><g id="g146"><g id="g148" clip-path="url(#clipPath150)"><path id="path154" d="m 273.45195,278.37968 0.372,-0.16443 0.372,-0.16449 0.372,-0.16453 0.372,-0.16459 0.372,-0.16464 0.372,-0.16469 0.372,-0.16475 0.372,-0.1648 0.372,-0.16486 0.372,-0.16491 0.372,-0.16496 0.372,-0.16501 0.372,-0.16507 0.372,-0.16512 0.372,-0.16518 0.372,-0.16523 0.372,-0.16529 0.372,-0.16533 0.372,-0.1654 0.372,-0.16544 0.372,-0.16551 0.372,-0.16555 0.372,-0.16561 0.372,-0.16567 0.372,-0.16571 0.372,-0.16578 0.372,-0.16583 0.372,-0.16588 0.372,-0.16594 0.372,-0.16599 0.372,-0.16605 0.372,-0.1661 0.372,-0.16616 0.372,-0.16621 0.372,-0.16627 0.372,-0.16633 0.372,-0.16637 0.372,-0.16644 0.372,-0.16649 0.372,-0.16655 0.372,-0.1666 0.372,-0.16666 0.372,-0.16671 0.372,-0.16677 0.372,-0.16682 0.372,-0.16689 0.372,-0.16693 0.372,-0.167 0.372,-0.16705 0.372,-0.16711 0.372,-0.16716 0.372,-0.16722 0.372,-0.16728 0.372,-0.16733 0.372,-0.16739 0.372,-0.16745 0.372,-0.1675 0.372,-0.16756 0.372,-0.16762 0.372,-0.16767 0.372,-0.16774 0.372,-0.16779 0.372,-0.16784 0.372,-0.16791 0.372,-0.16796 0.372,-0.16802 0.372,-0.16808 0.372,-0.16813 0.372,-0.1682 0.372,-0.16825 0.372,-0.16831 0.372,-0.16836 0.372,-0.16843 0.372,-0.16848 0.372,-0.16855 0.372,-0.1686 0.372,-0.16866 0.372,-0.16871 0.372,-0.16878 0.372,-0.16884 0.372,-0.16889 0.372,-0.16895 0.372,-0.16902 0.372,-0.16907 0.372,-0.16913 0.372,-0.16919 0.372,-0.16925 0.372,-0.16931 0.372,-0.16936 0.372,-0.16943 0.372,-0.16949 0.372,-0.16955 0.372,-0.1696 0.372,-0.16967 0.372,-0.16973 0.372,-0.16978 0.372,-0.16985 0.372,-0.16991 0.372,-0.16997 0.372,-0.17002 0.372,-0.17009 0.372,-0.17015 0.372,-0.17021 0.372,-0.17028 0.372,-0.17033 0.372,-0.17039 0.372,-0.17046 0.372,-0.17051 0.372,-0.17058 0.372,-0.17063 0.372,-0.1707 0.372,-0.17076 0.372,-0.17083 0.372,-0.17088 0.372,-0.17095 0.372,-0.171 0.372,-0.17107 0.372,-0.17114 0.372,-0.17119" style="fill:none;stroke:green;stroke-width:1;stroke-linecap:square;stroke-linejoin:round;stroke-miterlimit:10;stroke-dasharray:none;stroke-opacity:1"/></g></g><g id="g156"><g id="g158" clip-path="url(#clipPath160)"><path id="path164" d="m 318.06159,80.717111 9.3,-5.274423 8.556,-5.09765 7.812,-4.905942 7.068,-4.69596 6.324,-4.463203 5.58,-4.201496 4.836,-3.902252 4.464,-3.89066 3.72,-3.534825 2.976,-3.101274 2.232,-2.557351 0,0" style="fill:none;stroke:green;stroke-width:1;stroke-linecap:square;stroke-linejoin:round;stroke-miterlimit:10;stroke-dasharray:none;stroke-opacity:1"/></g></g><g id="g166"><g id="g168" clip-path="url(#clipPath170)"><path id="path174" d="m 380.94639,22.825 95.604,0 0,0" style="fill:none;stroke:green;stroke-width:1;stroke-linecap:square;stroke-linejoin:round;stroke-miterlimit:10;stroke-dasharray:none;stroke-opacity:1"/></g></g><g id="g176"><g id="g178" clip-path="url(#clipPath180)"><path id="path184" d="m 476.69375,22.825 0,0" style="fill:none;stroke:green;stroke-width:1;stroke-linecap:square;stroke-linejoin:round;stroke-miterlimit:10;stroke-dasharray:none;stroke-opacity:1"/></g></g><g id="g186"><path id="path188" d="m 476.69375,22.825 0,345.6" style="fill:none;stroke:#000;stroke-width:1;stroke-linecap:square;stroke-linejoin:miter;stroke-miterlimit:10;stroke-dasharray:none;stroke-opacity:1"/><path id="path190" d="m 30.29375,368.425 446.4,0" style="fill:none;stroke:#000;stroke-width:1;stroke-linecap:square;stroke-linejoin:miter;stroke-miterlimit:10;stroke-dasharray:none;stroke-opacity:1"/><path id="path192" d="m 30.29375,22.825 0,345.6" style="fill:none;stroke:#000;stroke-width:1;stroke-linecap:square;stroke-linejoin:miter;stroke-miterlimit:10;stroke-dasharray:none;stroke-opacity:1"/><path id="path194" d="m 30.29375,22.825 446.4,0" style="fill:none;stroke:#000;stroke-width:1;stroke-linecap:square;stroke-linejoin:miter;stroke-miterlimit:10;stroke-dasharray:none;stroke-opacity:1"/><path id="path196" d="m 30.29375,22.825 0,4" style="fill:#000;fill-opacity:1;fill-rule:nonzero;stroke:#000;stroke-width:.5;stroke-linecap:butt;stroke-linejoin:round;stroke-miterlimit:10;stroke-dasharray:none;stroke-opacity:1"/><path id="path198" d="m 30.29375,368.425 0,-4" style="fill:#000;fill-opacity:1;fill-rule:nonzero;stroke:#000;stroke-width:.5;stroke-linecap:butt;stroke-linejoin:round;stroke-miterlimit:10;stroke-dasharray:none;stroke-opacity:1"/><text id="text200" transform="matrix(1,0,0,-1,26.473437,9.7)" style="font-variant:normal;font-weight:400;font-size:12px;font-family:'Bitstream Vera Sans';-inkscape-font-specification:BitstreamVeraSans-Roman;writing-mode:lr-tb;fill:#000;fill-opacity:1;fill-rule:nonzero;stroke:none"><tspan id="tspan202" x="0" y="0">0</tspan></text><path id="path204" d="m 104.69375,22.825 0,4" style="fill:#000;fill-opacity:1;fill-rule:nonzero;stroke:#000;stroke-width:.5;stroke-linecap:butt;stroke-linejoin:round;stroke-miterlimit:10;stroke-dasharray:none;stroke-opacity:1"/><path id="path206" d="m 104.69375,368.425 0,-4" style="fill:#000;fill-opacity:1;fill-rule:nonzero;stroke:#000;stroke-width:.5;stroke-linecap:butt;stroke-linejoin:round;stroke-miterlimit:10;stroke-dasharray:none;stroke-opacity:1"/><text id="text208" transform="matrix(1,0,0,-1,100.87344,9.7)" style="font-variant:normal;font-weight:400;font-size:12px;font-family:'Bitstream Vera Sans';-inkscape-font-specification:BitstreamVeraSans-Roman;writing-mode:lr-tb;fill:#000;fill-opacity:1;fill-rule:nonzero;stroke:none"><tspan id="tspan210" x="0" y="0">1</tspan></text><path id="path212" d="m 179.09375,22.825 0,4" style="fill:#000;fill-opacity:1;fill-rule:nonzero;stroke:#000;stroke-width:.5;stroke-linecap:butt;stroke-linejoin:round;stroke-miterlimit:10;stroke-dasharray:none;stroke-opacity:1"/><path id="path214" d="m 179.09375,368.425 0,-4" style="fill:#000;fill-opacity:1;fill-rule:nonzero;stroke:#000;stroke-width:.5;stroke-linecap:butt;stroke-linejoin:round;stroke-miterlimit:10;stroke-dasharray:none;stroke-opacity:1"/><text id="text216" transform="matrix(1,0,0,-1,175.27344,9.7)" style="font-variant:normal;font-weight:400;font-size:12px;font-family:'Bitstream Vera Sans';-inkscape-font-specification:BitstreamVeraSans-Roman;writing-mode:lr-tb;fill:#000;fill-opacity:1;fill-rule:nonzero;stroke:none"><tspan id="tspan218" x="0" y="0">2</tspan></text><path id="path220" d="m 253.49375,22.825 0,4" style="fill:#000;fill-opacity:1;fill-rule:nonzero;stroke:#000;stroke-width:.5;stroke-linecap:butt;stroke-linejoin:round;stroke-miterlimit:10;stroke-dasharray:none;stroke-opacity:1"/><path id="path222" d="m 253.49375,368.425 0,-4" style="fill:#000;fill-opacity:1;fill-rule:nonzero;stroke:#000;stroke-width:.5;stroke-linecap:butt;stroke-linejoin:round;stroke-miterlimit:10;stroke-dasharray:none;stroke-opacity:1"/><text id="text224" transform="matrix(1,0,0,-1,249.67344,9.7)" style="font-variant:normal;font-weight:400;font-size:12px;font-family:'Bitstream Vera Sans';-inkscape-font-specification:BitstreamVeraSans-Roman;writing-mode:lr-tb;fill:#000;fill-opacity:1;fill-rule:nonzero;stroke:none"><tspan id="tspan226" x="0" y="0">3</tspan></text><path id="path228" d="m 327.89375,22.825 0,4" style="fill:#000;fill-opacity:1;fill-rule:nonzero;stroke:#000;stroke-width:.5;stroke-linecap:butt;stroke-linejoin:round;stroke-miterlimit:10;stroke-dasharray:none;stroke-opacity:1"/><path id="path230" d="m 327.89375,368.425 0,-4" style="fill:#000;fill-opacity:1;fill-rule:nonzero;stroke:#000;stroke-width:.5;stroke-linecap:butt;stroke-linejoin:round;stroke-miterlimit:10;stroke-dasharray:none;stroke-opacity:1"/><text id="text232" transform="matrix(1,0,0,-1,324.07344,9.7)" style="font-variant:normal;font-weight:400;font-size:12px;font-family:'Bitstream Vera Sans';-inkscape-font-specification:BitstreamVeraSans-Roman;writing-mode:lr-tb;fill:#000;fill-opacity:1;fill-rule:nonzero;stroke:none"><tspan id="tspan234" x="0" y="0">4</tspan></text><path id="path236" d="m 402.29375,22.825 0,4" style="fill:#000;fill-opacity:1;fill-rule:nonzero;stroke:#000;stroke-width:.5;stroke-linecap:butt;stroke-linejoin:round;stroke-miterlimit:10;stroke-dasharray:none;stroke-opacity:1"/><path id="path238" d="m 402.29375,368.425 0,-4" style="fill:#000;fill-opacity:1;fill-rule:nonzero;stroke:#000;stroke-width:.5;stroke-linecap:butt;stroke-linejoin:round;stroke-miterlimit:10;stroke-dasharray:none;stroke-opacity:1"/><text id="text240" transform="matrix(1,0,0,-1,398.47344,9.7)" style="font-variant:normal;font-weight:400;font-size:12px;font-family:'Bitstream Vera Sans';-inkscape-font-specification:BitstreamVeraSans-Roman;writing-mode:lr-tb;fill:#000;fill-opacity:1;fill-rule:nonzero;stroke:none"><tspan id="tspan242" x="0" y="0">5</tspan></text><path id="path244" d="m 476.69375,22.825 0,4" style="fill:#000;fill-opacity:1;fill-rule:nonzero;stroke:#000;stroke-width:.5;stroke-linecap:butt;stroke-linejoin:round;stroke-miterlimit:10;stroke-dasharray:none;stroke-opacity:1"/><path id="path246" d="m 476.69375,368.425 0,-4" style="fill:#000;fill-opacity:1;fill-rule:nonzero;stroke:#000;stroke-width:.5;stroke-linecap:butt;stroke-linejoin:round;stroke-miterlimit:10;stroke-dasharray:none;stroke-opacity:1"/><text id="text248" transform="matrix(1,0,0,-1,472.87344,9.7)" style="font-variant:normal;font-weight:400;font-size:12px;font-family:'Bitstream Vera Sans';-inkscape-font-specification:BitstreamVeraSans-Roman;writing-mode:lr-tb;fill:#000;fill-opacity:1;fill-rule:nonzero;stroke:none"><tspan id="tspan250" x="0" y="0">6</tspan></text><path id="path252" d="m 30.29375,22.825 4,0" style="fill:#000;fill-opacity:1;fill-rule:nonzero;stroke:#000;stroke-width:.5;stroke-linecap:butt;stroke-linejoin:round;stroke-miterlimit:10;stroke-dasharray:none;stroke-opacity:1"/><path id="path254" d="m 476.69375,22.825 -4,0" style="fill:#000;fill-opacity:1;fill-rule:nonzero;stroke:#000;stroke-width:.5;stroke-linecap:butt;stroke-linejoin:round;stroke-miterlimit:10;stroke-dasharray:none;stroke-opacity:1"/><text id="text256" transform="matrix(1,0,0,-1,7.2,19.5125)" style="font-variant:normal;font-weight:400;font-size:12px;font-family:'Bitstream Vera Sans';-inkscape-font-specification:BitstreamVeraSans-Roman;writing-mode:lr-tb;fill:#000;fill-opacity:1;fill-rule:nonzero;stroke:none"><tspan id="tspan258" x="0 7.632 11.448" y="0">0.0</tspan></text><path id="path260" d="m 30.29375,72.196429 4,0" style="fill:#000;fill-opacity:1;fill-rule:nonzero;stroke:#000;stroke-width:.5;stroke-linecap:butt;stroke-linejoin:round;stroke-miterlimit:10;stroke-dasharray:none;stroke-opacity:1"/><path id="path262" d="m 476.69375,72.196429 -4,0" style="fill:#000;fill-opacity:1;fill-rule:nonzero;stroke:#000;stroke-width:.5;stroke-linecap:butt;stroke-linejoin:round;stroke-miterlimit:10;stroke-dasharray:none;stroke-opacity:1"/><text id="text264" transform="matrix(1,0,0,-1,7.2,68.883929)" style="font-variant:normal;font-weight:400;font-size:12px;font-family:'Bitstream Vera Sans';-inkscape-font-specification:BitstreamVeraSans-Roman;writing-mode:lr-tb;fill:#000;fill-opacity:1;fill-rule:nonzero;stroke:none"><tspan id="tspan266" x="0 7.632 11.448" y="0">0.1</tspan></text><path id="path268" d="m 30.29375,121.56786 4,0" style="fill:#000;fill-opacity:1;fill-rule:nonzero;stroke:#000;stroke-width:.5;stroke-linecap:butt;stroke-linejoin:round;stroke-miterlimit:10;stroke-dasharray:none;stroke-opacity:1"/><path id="path270" d="m 476.69375,121.56786 -4,0" style="fill:#000;fill-opacity:1;fill-rule:nonzero;stroke:#000;stroke-width:.5;stroke-linecap:butt;stroke-linejoin:round;stroke-miterlimit:10;stroke-dasharray:none;stroke-opacity:1"/><text id="text272" transform="matrix(1,0,0,-1,7.2,118.25536)" style="font-variant:normal;font-weight:400;font-size:12px;font-family:'Bitstream Vera Sans';-inkscape-font-specification:BitstreamVeraSans-Roman;writing-mode:lr-tb;fill:#000;fill-opacity:1;fill-rule:nonzero;stroke:none"><tspan id="tspan274" x="0 7.632 11.448" y="0">0.2</tspan></text><path id="path276" d="m 30.29375,170.93929 4,0" style="fill:#000;fill-opacity:1;fill-rule:nonzero;stroke:#000;stroke-width:.5;stroke-linecap:butt;stroke-linejoin:round;stroke-miterlimit:10;stroke-dasharray:none;stroke-opacity:1"/><path id="path278" d="m 476.69375,170.93929 -4,0" style="fill:#000;fill-opacity:1;fill-rule:nonzero;stroke:#000;stroke-width:.5;stroke-linecap:butt;stroke-linejoin:round;stroke-miterlimit:10;stroke-dasharray:none;stroke-opacity:1"/><text id="text280" transform="matrix(1,0,0,-1,7.2,167.62679)" style="font-variant:normal;font-weight:400;font-size:12px;font-family:'Bitstream Vera Sans';-inkscape-font-specification:BitstreamVeraSans-Roman;writing-mode:lr-tb;fill:#000;fill-opacity:1;fill-rule:nonzero;stroke:none"><tspan id="tspan282" x="0 7.632 11.448" y="0">0.3</tspan></text><path id="path284" d="m 30.29375,220.31071 4,0" style="fill:#000;fill-opacity:1;fill-rule:nonzero;stroke:#000;stroke-width:.5;stroke-linecap:butt;stroke-linejoin:round;stroke-miterlimit:10;stroke-dasharray:none;stroke-opacity:1"/><path id="path286" d="m 476.69375,220.31071 -4,0" style="fill:#000;fill-opacity:1;fill-rule:nonzero;stroke:#000;stroke-width:.5;stroke-linecap:butt;stroke-linejoin:round;stroke-miterlimit:10;stroke-dasharray:none;stroke-opacity:1"/><text id="text288" transform="matrix(1,0,0,-1,7.2,216.99821)" style="font-variant:normal;font-weight:400;font-size:12px;font-family:'Bitstream Vera Sans';-inkscape-font-specification:BitstreamVeraSans-Roman;writing-mode:lr-tb;fill:#000;fill-opacity:1;fill-rule:nonzero;stroke:none"><tspan id="tspan290" x="0 7.632 11.448" y="0">0.4</tspan></text><path id="path292" d="m 30.29375,269.68214 4,0" style="fill:#000;fill-opacity:1;fill-rule:nonzero;stroke:#000;stroke-width:.5;stroke-linecap:butt;stroke-linejoin:round;stroke-miterlimit:10;stroke-dasharray:none;stroke-opacity:1"/><path id="path294" d="m 476.69375,269.68214 -4,0" style="fill:#000;fill-opacity:1;fill-rule:nonzero;stroke:#000;stroke-width:.5;stroke-linecap:butt;stroke-linejoin:round;stroke-miterlimit:10;stroke-dasharray:none;stroke-opacity:1"/><text id="text296" transform="matrix(1,0,0,-1,7.2,266.36964)" style="font-variant:normal;font-weight:400;font-size:12px;font-family:'Bitstream Vera Sans';-inkscape-font-specification:BitstreamVeraSans-Roman;writing-mode:lr-tb;fill:#000;fill-opacity:1;fill-rule:nonzero;stroke:none"><tspan id="tspan298" x="0 7.632 11.448" y="0">0.5</tspan></text><path id="path300" d="m 30.29375,319.05357 4,0" style="fill:#000;fill-opacity:1;fill-rule:nonzero;stroke:#000;stroke-width:.5;stroke-linecap:butt;stroke-linejoin:round;stroke-miterlimit:10;stroke-dasharray:none;stroke-opacity:1"/><path id="path302" d="m 476.69375,319.05357 -4,0" style="fill:#000;fill-opacity:1;fill-rule:nonzero;stroke:#000;stroke-width:.5;stroke-linecap:butt;stroke-linejoin:round;stroke-miterlimit:10;stroke-dasharray:none;stroke-opacity:1"/><text id="text304" transform="matrix(1,0,0,-1,7.2,315.74107)" style="font-variant:normal;font-weight:400;font-size:12px;font-family:'Bitstream Vera Sans';-inkscape-font-specification:BitstreamVeraSans-Roman;writing-mode:lr-tb;fill:#000;fill-opacity:1;fill-rule:nonzero;stroke:none"><tspan id="tspan306" x="0 7.632 11.448" y="0">0.6</tspan></text><path id="path308" d="m 30.29375,368.425 4,0" style="fill:#000;fill-opacity:1;fill-rule:nonzero;stroke:#000;stroke-width:.5;stroke-linecap:butt;stroke-linejoin:round;stroke-miterlimit:10;stroke-dasharray:none;stroke-opacity:1"/><path id="path310" d="m 476.69375,368.425 -4,0" style="fill:#000;fill-opacity:1;fill-rule:nonzero;stroke:#000;stroke-width:.5;stroke-linecap:butt;stroke-linejoin:round;stroke-miterlimit:10;stroke-dasharray:none;stroke-opacity:1"/><text id="text312" transform="matrix(1,0,0,-1,7.2,365.1125)" style="font-variant:normal;font-weight:400;font-size:12px;font-family:'Bitstream Vera Sans';-inkscape-font-specification:BitstreamVeraSans-Roman;writing-mode:lr-tb;fill:#000;fill-opacity:1;fill-rule:nonzero;stroke:none"><tspan id="tspan314" x="0 7.632 11.448" y="0">0.7</tspan></text></g></g></svg>