<svg xmlns="http://www.w3.org/2000/svg" xmlns:svg="http://www.w3.org/2000/svg" id="svg2" width="609.643" height="476.797" version="1.1" viewBox="0 0 609.643 476.797" xml:space="preserve"><metadata id="metadata8"/><defs id="defs6"><clipPath id="clipPath20" clipPathUnits="userSpaceOnUse"><path id="path22" d="m 30.29375,22.825 446.4,0 0,345.6 -446.4,0 0,-345.6 z"/></clipPath><clipPath id="clipPath30" clipPathUnits="userSpaceOnUse"><path id="path32" d="m 30.29375,22.825 446.4,0 0,345.6 -446.4,0 0,-345.6 z"/></clipPath><clipPath id="clipPath40" clipPathUnits="userSpaceOnUse"><path id="path42" d="m 30.29375,22.825 446.4,0 0,345.6 -446.4,0 0,-345.6 z"/></clipPath><clipPath id="clipPath50" clipPathUnits="userSpaceOnUse"><path id="path52" d="m 30.29375,22.825 446.4,0 0,345.6 -446.4,0 0,-345.6 z"/></clipPath><clipPath id="clipPath60" clipPathUnits="userSpaceOnUse"><path id="path62" d="m 30.29375,22.825 446.4,0 0,345.6 -446.4,0 0,-345.6 z"/></clipPath><clipPath id="clipPath70" clipPathUnits="userSpaceOnUse"><path id="path72" d="m 30.29375,22.825 446.4,0 0,345.6 -446.4,0 0,-345.6 z"/></clipPath><clipPath id="clipPath80" clipPathUnits="userSpaceOnUse"><path id="path82" d="m 30.29375,22.825 446.4,0 0,345.6 -446.4,0 0,-345.6 z"/></clipPath><clipPath id="clipPath90" clipPathUnits="userSpaceOnUse"><path id="path92" d="m 30.29375,22.825 446.4,0 0,345.6 -446.4,0 0,-345.6 z"/></clipPath></defs><g id="g10" transform="matrix(1.25,0,0,-1.25,0,476.79687)"><path id="path12" d="m 0,0 487.71406,0 0,381.4375 L 0,381.4375 0,0 Z" style="fill:#fff;fill-opacity:1;fill-rule:nonzero;stroke:none"/><path id="path14" d="m 30.29375,22.825 446.4,0 0,345.6 -446.4,0 0,-345.6 z" style="fill:#fff;fill-opacity:1;fill-rule:nonzero;stroke:none"/><g id="g16"><g id="g18" clip-path="url(#clipPath20)"><path id="path24" d="m 30.2972,22.825 0,44.72064 7.008148,0 0,37.39392 7.008148,0 0,33.3504 7.008148,0 0,30.0672 7.008148,0 0,26.88768 7.008148,0 0,23.60448 7.008148,0 0,19.21536 7.008147,0 0,16.96896 7.008148,0 0,14.65344 7.008148,0 0,13.3056 7.008149,0 0,11.78496 7.00815,0 0,8.95104 7.00815,0 0,8.4672 7.00814,0 0,6.94656 7.00815,0 0,5.80608 7.00815,0 0,5.77152 7.00815,0 0,4.97664 7.00814,0 0,3.93984 7.00815,0 0,4.00896 7.00815,0 0,3.35232 7.00815,0 0,2.83392 7.00815,0 0,2.00448 7.00814,0 0,2.4192 7.00815,0 0,1.93536 7.00815,0 0,1.34784 7.00815,0 0,1.58976 7.00815,0 0,1.3824 7.00814,0 0,0.96768 7.00815,0 0,1.0368 7.00815,0 0,0.48384 7.00815,0 0,0.62208 7.00814,0 0,0.62208 7.00815,0 0,0.3456 7.00815,0 0,0.5184 7.00815,0 0,0.41472 7.00815,0 0,0.31104 7.00814,0 0,0.3456 7.00815,0 0,0.24192 7.00815,0 0,0.27648 7.00815,0 0,0.1728 7.00815,0 0,0.27648 14.01629,0.0691 0,0.0691 7.00815,0 0,0.1728 14.0163,0.0691 0,0.10368 14.01629,0.0691 0,0.13824 14.0163,0.0691 0,0.0691 35.04074,0.0691 0,0.0691 21.02444,0.10368 0,0.0346 58.95243,0.10368 0,0" style="fill:none;stroke:#00f;stroke-width:1;stroke-linecap:butt;stroke-linejoin:miter;stroke-miterlimit:10;stroke-dasharray:none;stroke-opacity:1"/></g></g><g id="g26"><g id="g28" clip-path="url(#clipPath30)"><path id="path34" d="m 30.29375,22.825 3.177578,21.446239 3.177577,20.115392 3.177578,18.867128 3.177577,17.696331 3.177578,16.59818 3.177577,15.56817 3.177578,14.6021 3.177578,13.69596 3.177577,12.84605 3.177578,12.0489 3.177577,11.30119 3.177578,10.5999 3.177578,9.94213 3.177577,9.32516 3.177578,8.74649 3.177577,8.20373 3.177578,7.69464 3.177577,7.21715 3.177578,6.76929 3.177578,6.34922 3.971972,7.38536 3.971976,6.817 3.97197,6.29238 3.97197,5.80814 3.97197,5.36115 3.97197,4.94857 3.97198,4.56775 3.97197,4.21622 3.97197,3.89175 3.97197,3.59225 3.97197,3.3158 3.97197,3.06062 4.76637,3.36346 4.76637,3.05529 4.76636,2.77535 4.76637,2.52107 4.76637,2.29008 5.56076,2.40793 5.56076,2.15257 5.56076,1.92427 6.35515,1.95056 6.35516,1.71599 7.14955,1.68509 7.14955,1.45889 7.94394,1.39248 8.73834,1.29492 9.53273,1.1753 10.32713,1.04252 11.91592,0.96186 12.71031,0.8007 15.09349,0.71922 17.47668,0.6005 21.44865,0.49909 27.0094,0.38736 35.74775,0.27486 54.01882,0.1727 47.71841,0.0541 0,0" style="fill:none;stroke:green;stroke-width:2;stroke-linecap:square;stroke-linejoin:round;stroke-miterlimit:10;stroke-dasharray:none;stroke-opacity:1"/></g></g><g id="g36"><g id="g38" clip-path="url(#clipPath40)"><path id="path44" d="m 55.630701,22.825 0,138.24" style="fill:none;stroke:brown;stroke-width:2;stroke-linecap:square;stroke-linejoin:round;stroke-miterlimit:10;stroke-dasharray:none;stroke-opacity:1"/></g></g><g id="g46"><g id="g48" clip-path="url(#clipPath50)"><path id="path54" d="m 30.29375,161.065 25.336951,0" style="fill:none;stroke:brown;stroke-width:2;stroke-linecap:square;stroke-linejoin:round;stroke-miterlimit:10;stroke-dasharray:none;stroke-opacity:1"/></g></g><g id="g56"><g id="g58" clip-path="url(#clipPath60)"><path id="path64" d="m 75.74177,22.825 0,207.36" style="fill:none;stroke:orange;stroke-width:2;stroke-linecap:square;stroke-linejoin:round;stroke-miterlimit:10;stroke-dasharray:none;stroke-opacity:1"/></g></g><g id="g66"><g id="g68" clip-path="url(#clipPath70)"><path id="path74" d="m 30.29375,230.185 45.44802,0" style="fill:none;stroke:orange;stroke-width:2;stroke-linecap:square;stroke-linejoin:round;stroke-miterlimit:10;stroke-dasharray:none;stroke-opacity:1"/></g></g><g id="g76"><g id="g78" clip-path="url(#clipPath80)"><path id="path84" d="m 144.50197,22.825 0,311.04" style="fill:none;stroke:brown;stroke-width:2;stroke-linecap:square;stroke-linejoin:round;stroke-miterlimit:10;stroke-dasharray:none;stroke-opacity:1"/></g></g><g id="g86"><g id="g88" clip-path="url(#clipPath90)"><path id="path94" d="m 30.29375,333.865 114.20822,0" style="fill:none;stroke:brown;stroke-width:2;stroke-linecap:square;stroke-linejoin:round;stroke-miterlimit:10;stroke-dasharray:none;stroke-opacity:1"/></g></g><g id="g96"><path id="path98" d="m 30.29375,368.425 446.4,0" style="fill:none;stroke:#000;stroke-width:1;stroke-linecap:square;stroke-linejoin:miter;stroke-miterlimit:10;stroke-dasharray:none;stroke-opacity:1"/><path id="path100" d="m 30.29375,22.825 446.4,0" style="fill:none;stroke:#000;stroke-width:1;stroke-linecap:square;stroke-linejoin:miter;stroke-miterlimit:10;stroke-dasharray:none;stroke-opacity:1"/><path id="path102" d="m 30.29375,22.825 0,345.6" style="fill:none;stroke:#000;stroke-width:1;stroke-linecap:square;stroke-linejoin:miter;stroke-miterlimit:10;stroke-dasharray:none;stroke-opacity:1"/><path id="path104" d="m 476.69375,22.825 0,345.6" style="fill:none;stroke:#000;stroke-width:1;stroke-linecap:square;stroke-linejoin:miter;stroke-miterlimit:10;stroke-dasharray:none;stroke-opacity:1"/><path id="path106" d="m 30.29375,22.825 0,4" style="fill:#000;fill-opacity:1;fill-rule:nonzero;stroke:#000;stroke-width:.5;stroke-linecap:butt;stroke-linejoin:round;stroke-miterlimit:10;stroke-dasharray:none;stroke-opacity:1"/><path id="path108" d="m 30.29375,368.425 0,-4" style="fill:#000;fill-opacity:1;fill-rule:nonzero;stroke:#000;stroke-width:.5;stroke-linecap:butt;stroke-linejoin:round;stroke-miterlimit:10;stroke-dasharray:none;stroke-opacity:1"/><text id="text110" transform="matrix(1,0,0,-1,26.473437,9.7)" style="font-variant:normal;font-weight:400;font-size:12px;font-family:'Bitstream Vera Sans';-inkscape-font-specification:BitstreamVeraSans-Roman;writing-mode:lr-tb;fill:#000;fill-opacity:1;fill-rule:nonzero;stroke:none"><tspan id="tspan112" x="0" y="0">0</tspan></text><path id="path114" d="m 79.89375,22.825 0,4" style="fill:#000;fill-opacity:1;fill-rule:nonzero;stroke:#000;stroke-width:.5;stroke-linecap:butt;stroke-linejoin:round;stroke-miterlimit:10;stroke-dasharray:none;stroke-opacity:1"/><path id="path116" d="m 79.89375,368.425 0,-4" style="fill:#000;fill-opacity:1;fill-rule:nonzero;stroke:#000;stroke-width:.5;stroke-linecap:butt;stroke-linejoin:round;stroke-miterlimit:10;stroke-dasharray:none;stroke-opacity:1"/><text id="text118" transform="matrix(1,0,0,-1,76.073437,9.7)" style="font-variant:normal;font-weight:400;font-size:12px;font-family:'Bitstream Vera Sans';-inkscape-font-specification:BitstreamVeraSans-Roman;writing-mode:lr-tb;fill:#000;fill-opacity:1;fill-rule:nonzero;stroke:none"><tspan id="tspan120" x="0" y="0">1</tspan></text><path id="path122" d="m 129.49375,22.825 0,4" style="fill:#000;fill-opacity:1;fill-rule:nonzero;stroke:#000;stroke-width:.5;stroke-linecap:butt;stroke-linejoin:round;stroke-miterlimit:10;stroke-dasharray:none;stroke-opacity:1"/><path id="path124" d="m 129.49375,368.425 0,-4" style="fill:#000;fill-opacity:1;fill-rule:nonzero;stroke:#000;stroke-width:.5;stroke-linecap:butt;stroke-linejoin:round;stroke-miterlimit:10;stroke-dasharray:none;stroke-opacity:1"/><text id="text126" transform="matrix(1,0,0,-1,125.67344,9.7)" style="font-variant:normal;font-weight:400;font-size:12px;font-family:'Bitstream Vera Sans';-inkscape-font-specification:BitstreamVeraSans-Roman;writing-mode:lr-tb;fill:#000;fill-opacity:1;fill-rule:nonzero;stroke:none"><tspan id="tspan128" x="0" y="0">2</tspan></text><path id="path130" d="m 179.09375,22.825 0,4" style="fill:#000;fill-opacity:1;fill-rule:nonzero;stroke:#000;stroke-width:.5;stroke-linecap:butt;stroke-linejoin:round;stroke-miterlimit:10;stroke-dasharray:none;stroke-opacity:1"/><path id="path132" d="m 179.09375,368.425 0,-4" style="fill:#000;fill-opacity:1;fill-rule:nonzero;stroke:#000;stroke-width:.5;stroke-linecap:butt;stroke-linejoin:round;stroke-miterlimit:10;stroke-dasharray:none;stroke-opacity:1"/><text id="text134" transform="matrix(1,0,0,-1,175.27344,9.7)" style="font-variant:normal;font-weight:400;font-size:12px;font-family:'Bitstream Vera Sans';-inkscape-font-specification:BitstreamVeraSans-Roman;writing-mode:lr-tb;fill:#000;fill-opacity:1;fill-rule:nonzero;stroke:none"><tspan id="tspan136" x="0" y="0">3</tspan></text><path id="path138" d="m 228.69375,22.825 0,4" style="fill:#000;fill-opacity:1;fill-rule:nonzero;stroke:#000;stroke-width:.5;stroke-linecap:butt;stroke-linejoin:round;stroke-miterlimit:10;stroke-dasharray:none;stroke-opacity:1"/><path id="path140" d="m 228.69375,368.425 0,-4" style="fill:#000;fill-opacity:1;fill-rule:nonzero;stroke:#000;stroke-width:.5;stroke-linecap:butt;stroke-linejoin:round;stroke-miterlimit:10;stroke-dasharray:none;stroke-opacity:1"/><text id="text142" transform="matrix(1,0,0,-1,224.87344,9.7)" style="font-variant:normal;font-weight:400;font-size:12px;font-family:'Bitstream Vera Sans';-inkscape-font-specification:BitstreamVeraSans-Roman;writing-mode:lr-tb;fill:#000;fill-opacity:1;fill-rule:nonzero;stroke:none"><tspan id="tspan144" x="0" y="0">4</tspan></text><path id="path146" d="m 278.29375,22.825 0,4" style="fill:#000;fill-opacity:1;fill-rule:nonzero;stroke:#000;stroke-width:.5;stroke-linecap:butt;stroke-linejoin:round;stroke-miterlimit:10;stroke-dasharray:none;stroke-opacity:1"/><path id="path148" d="m 278.29375,368.425 0,-4" style="fill:#000;fill-opacity:1;fill-rule:nonzero;stroke:#000;stroke-width:.5;stroke-linecap:butt;stroke-linejoin:round;stroke-miterlimit:10;stroke-dasharray:none;stroke-opacity:1"/><text id="text150" transform="matrix(1,0,0,-1,274.47344,9.7)" style="font-variant:normal;font-weight:400;font-size:12px;font-family:'Bitstream Vera Sans';-inkscape-font-specification:BitstreamVeraSans-Roman;writing-mode:lr-tb;fill:#000;fill-opacity:1;fill-rule:nonzero;stroke:none"><tspan id="tspan152" x="0" y="0">5</tspan></text><path id="path154" d="m 327.89375,22.825 0,4" style="fill:#000;fill-opacity:1;fill-rule:nonzero;stroke:#000;stroke-width:.5;stroke-linecap:butt;stroke-linejoin:round;stroke-miterlimit:10;stroke-dasharray:none;stroke-opacity:1"/><path id="path156" d="m 327.89375,368.425 0,-4" style="fill:#000;fill-opacity:1;fill-rule:nonzero;stroke:#000;stroke-width:.5;stroke-linecap:butt;stroke-linejoin:round;stroke-miterlimit:10;stroke-dasharray:none;stroke-opacity:1"/><text id="text158" transform="matrix(1,0,0,-1,324.07344,9.7)" style="font-variant:normal;font-weight:400;font-size:12px;font-family:'Bitstream Vera Sans';-inkscape-font-specification:BitstreamVeraSans-Roman;writing-mode:lr-tb;fill:#000;fill-opacity:1;fill-rule:nonzero;stroke:none"><tspan id="tspan160" x="0" y="0">6</tspan></text><path id="path162" d="m 377.49375,22.825 0,4" style="fill:#000;fill-opacity:1;fill-rule:nonzero;stroke:#000;stroke-width:.5;stroke-linecap:butt;stroke-linejoin:round;stroke-miterlimit:10;stroke-dasharray:none;stroke-opacity:1"/><path id="path164" d="m 377.49375,368.425 0,-4" style="fill:#000;fill-opacity:1;fill-rule:nonzero;stroke:#000;stroke-width:.5;stroke-linecap:butt;stroke-linejoin:round;stroke-miterlimit:10;stroke-dasharray:none;stroke-opacity:1"/><text id="text166" transform="matrix(1,0,0,-1,373.67344,9.7)" style="font-variant:normal;font-weight:400;font-size:12px;font-family:'Bitstream Vera Sans';-inkscape-font-specification:BitstreamVeraSans-Roman;writing-mode:lr-tb;fill:#000;fill-opacity:1;fill-rule:nonzero;stroke:none"><tspan id="tspan168" x="0" y="0">7</tspan></text><path id="path170" d="m 427.09375,22.825 0,4" style="fill:#000;fill-opacity:1;fill-rule:nonzero;stroke:#000;stroke-width:.5;stroke-linecap:butt;stroke-linejoin:round;stroke-miterlimit:10;stroke-dasharray:none;stroke-opacity:1"/><path id="path172" d="m 427.09375,368.425 0,-4" style="fill:#000;fill-opacity:1;fill-rule:nonzero;stroke:#000;stroke-width:.5;stroke-linecap:butt;stroke-linejoin:round;stroke-miterlimit:10;stroke-dasharray:none;stroke-opacity:1"/><text id="text174" transform="matrix(1,0,0,-1,423.27344,9.7)" style="font-variant:normal;font-weight:400;font-size:12px;font-family:'Bitstream Vera Sans';-inkscape-font-specification:BitstreamVeraSans-Roman;writing-mode:lr-tb;fill:#000;fill-opacity:1;fill-rule:nonzero;stroke:none"><tspan id="tspan176" x="0" y="0">8</tspan></text><path id="path178" d="m 476.69375,22.825 0,4" style="fill:#000;fill-opacity:1;fill-rule:nonzero;stroke:#000;stroke-width:.5;stroke-linecap:butt;stroke-linejoin:round;stroke-miterlimit:10;stroke-dasharray:none;stroke-opacity:1"/><path id="path180" d="m 476.69375,368.425 0,-4" style="fill:#000;fill-opacity:1;fill-rule:nonzero;stroke:#000;stroke-width:.5;stroke-linecap:butt;stroke-linejoin:round;stroke-miterlimit:10;stroke-dasharray:none;stroke-opacity:1"/><text id="text182" transform="matrix(1,0,0,-1,472.87344,9.7)" style="font-variant:normal;font-weight:400;font-size:12px;font-family:'Bitstream Vera Sans';-inkscape-font-specification:BitstreamVeraSans-Roman;writing-mode:lr-tb;fill:#000;fill-opacity:1;fill-rule:nonzero;stroke:none"><tspan id="tspan184" x="0" y="0">9</tspan></text><path id="path186" d="m 30.29375,22.825 4,0" style="fill:#000;fill-opacity:1;fill-rule:nonzero;stroke:#000;stroke-width:.5;stroke-linecap:butt;stroke-linejoin:round;stroke-miterlimit:10;stroke-dasharray:none;stroke-opacity:1"/><path id="path188" d="m 476.69375,22.825 -4,0" style="fill:#000;fill-opacity:1;fill-rule:nonzero;stroke:#000;stroke-width:.5;stroke-linecap:butt;stroke-linejoin:round;stroke-miterlimit:10;stroke-dasharray:none;stroke-opacity:1"/><text id="text190" transform="matrix(1,0,0,-1,7.2,19.5125)" style="font-variant:normal;font-weight:400;font-size:12px;font-family:'Bitstream Vera Sans';-inkscape-font-specification:BitstreamVeraSans-Roman;writing-mode:lr-tb;fill:#000;fill-opacity:1;fill-rule:nonzero;stroke:none"><tspan id="tspan192" x="0 7.632 11.448" y="0">0.0</tspan></text><path id="path194" d="m 30.29375,91.945 4,0" style="fill:#000;fill-opacity:1;fill-rule:nonzero;stroke:#000;stroke-width:.5;stroke-linecap:butt;stroke-linejoin:round;stroke-miterlimit:10;stroke-dasharray:none;stroke-opacity:1"/><path id="path196" d="m 476.69375,91.945 -4,0" style="fill:#000;fill-opacity:1;fill-rule:nonzero;stroke:#000;stroke-width:.5;stroke-linecap:butt;stroke-linejoin:round;stroke-miterlimit:10;stroke-dasharray:none;stroke-opacity:1"/><text id="text198" transform="matrix(1,0,0,-1,7.2,88.6325)" style="font-variant:normal;font-weight:400;font-size:12px;font-family:'Bitstream Vera Sans';-inkscape-font-specification:BitstreamVeraSans-Roman;writing-mode:lr-tb;fill:#000;fill-opacity:1;fill-rule:nonzero;stroke:none"><tspan id="tspan200" x="0 7.632 11.448" y="0">0.2</tspan></text><path id="path202" d="m 30.29375,161.065 4,0" style="fill:#000;fill-opacity:1;fill-rule:nonzero;stroke:#000;stroke-width:.5;stroke-linecap:butt;stroke-linejoin:round;stroke-miterlimit:10;stroke-dasharray:none;stroke-opacity:1"/><path id="path204" d="m 476.69375,161.065 -4,0" style="fill:#000;fill-opacity:1;fill-rule:nonzero;stroke:#000;stroke-width:.5;stroke-linecap:butt;stroke-linejoin:round;stroke-miterlimit:10;stroke-dasharray:none;stroke-opacity:1"/><text id="text206" transform="matrix(1,0,0,-1,7.2,157.7525)" style="font-variant:normal;font-weight:400;font-size:12px;font-family:'Bitstream Vera Sans';-inkscape-font-specification:BitstreamVeraSans-Roman;writing-mode:lr-tb;fill:#000;fill-opacity:1;fill-rule:nonzero;stroke:none"><tspan id="tspan208" x="0 7.632 11.448" y="0">0.4</tspan></text><path id="path210" d="m 30.29375,230.185 4,0" style="fill:#000;fill-opacity:1;fill-rule:nonzero;stroke:#000;stroke-width:.5;stroke-linecap:butt;stroke-linejoin:round;stroke-miterlimit:10;stroke-dasharray:none;stroke-opacity:1"/><path id="path212" d="m 476.69375,230.185 -4,0" style="fill:#000;fill-opacity:1;fill-rule:nonzero;stroke:#000;stroke-width:.5;stroke-linecap:butt;stroke-linejoin:round;stroke-miterlimit:10;stroke-dasharray:none;stroke-opacity:1"/><text id="text214" transform="matrix(1,0,0,-1,7.2,226.8725)" style="font-variant:normal;font-weight:400;font-size:12px;font-family:'Bitstream Vera Sans';-inkscape-font-specification:BitstreamVeraSans-Roman;writing-mode:lr-tb;fill:#000;fill-opacity:1;fill-rule:nonzero;stroke:none"><tspan id="tspan216" x="0 7.632 11.448" y="0">0.6</tspan></text><path id="path218" d="m 30.29375,299.305 4,0" style="fill:#000;fill-opacity:1;fill-rule:nonzero;stroke:#000;stroke-width:.5;stroke-linecap:butt;stroke-linejoin:round;stroke-miterlimit:10;stroke-dasharray:none;stroke-opacity:1"/><path id="path220" d="m 476.69375,299.305 -4,0" style="fill:#000;fill-opacity:1;fill-rule:nonzero;stroke:#000;stroke-width:.5;stroke-linecap:butt;stroke-linejoin:round;stroke-miterlimit:10;stroke-dasharray:none;stroke-opacity:1"/><text id="text222" transform="matrix(1,0,0,-1,7.2,295.9925)" style="font-variant:normal;font-weight:400;font-size:12px;font-family:'Bitstream Vera Sans';-inkscape-font-specification:BitstreamVeraSans-Roman;writing-mode:lr-tb;fill:#000;fill-opacity:1;fill-rule:nonzero;stroke:none"><tspan id="tspan224" x="0 7.632 11.448" y="0">0.8</tspan></text><path id="path226" d="m 30.29375,368.425 4,0" style="fill:#000;fill-opacity:1;fill-rule:nonzero;stroke:#000;stroke-width:.5;stroke-linecap:butt;stroke-linejoin:round;stroke-miterlimit:10;stroke-dasharray:none;stroke-opacity:1"/><path id="path228" d="m 476.69375,368.425 -4,0" style="fill:#000;fill-opacity:1;fill-rule:nonzero;stroke:#000;stroke-width:.5;stroke-linecap:butt;stroke-linejoin:round;stroke-miterlimit:10;stroke-dasharray:none;stroke-opacity:1"/><text id="text230" transform="matrix(1,0,0,-1,7.2,365.1125)" style="font-variant:normal;font-weight:400;font-size:12px;font-family:'Bitstream Vera Sans';-inkscape-font-specification:BitstreamVeraSans-Roman;writing-mode:lr-tb;fill:#000;fill-opacity:1;fill-rule:nonzero;stroke:none"><tspan id="tspan232" x="0 7.632 11.448" y="0">1.0</tspan></text></g></g></svg>