<svg xmlns="http://www.w3.org/2000/svg" xmlns:svg="http://www.w3.org/2000/svg" id="svg2" width="603.129" height="469.531" version="1.1" viewBox="0 0 603.129 469.531" xml:space="preserve"><metadata id="metadata8"/><defs id="defs6"><clipPath id="clipPath20" clipPathUnits="userSpaceOnUse"><path id="path22" d="m 28.903125,22.825 446.399995,0 0,345.6 -446.399995,0 0,-345.6 z"/></clipPath><clipPath id="clipPath30" clipPathUnits="userSpaceOnUse"><path id="path32" d="m 28.903125,22.825 446.399995,0 0,345.6 -446.399995,0 0,-345.6 z"/></clipPath><clipPath id="clipPath40" clipPathUnits="userSpaceOnUse"><path id="path42" d="m 28.903125,22.825 446.399995,0 0,345.6 -446.399995,0 0,-345.6 z"/></clipPath><clipPath id="clipPath72" clipPathUnits="userSpaceOnUse"><path id="path74" d="m -184,-236 1472,0 0,1165 -1472,0 0,-1165 z"/></clipPath><clipPath id="clipPath94" clipPathUnits="userSpaceOnUse"><path id="path96" d="m -184,-236 1472,0 0,1165 -1472,0 0,-1165 z"/></clipPath><clipPath id="clipPath116" clipPathUnits="userSpaceOnUse"><path id="path118" d="m -184,-236 1472,0 0,1165 -1472,0 0,-1165 z"/></clipPath><clipPath id="clipPath170" clipPathUnits="userSpaceOnUse"><path id="path172" d="m -184,-236 1472,0 0,1165 -1472,0 0,-1165 z"/></clipPath><clipPath id="clipPath192" clipPathUnits="userSpaceOnUse"><path id="path194" d="m -184,-236 1472,0 0,1165 -1472,0 0,-1165 z"/></clipPath></defs><g id="g10" transform="matrix(1.25,0,0,-1.25,0,469.53125)"><path id="path12" d="m 0,0 482.50312,0 0,375.625 L 0,375.625 0,0 Z" style="fill:#fff;fill-opacity:1;fill-rule:nonzero;stroke:none"/><path id="path14" d="m 28.903125,22.825 446.399995,0 0,345.6 -446.399995,0 0,-345.6 z" style="fill:#fff;fill-opacity:1;fill-rule:nonzero;stroke:none"/><g id="g16"><g id="g18" clip-path="url(#clipPath20)"><path id="path24" d="m 252.2795,-1 0.10031,29.784413 0.48426,34.963285 0.48425,17.020511 0.72639,15.88174 0.72638,10.840151 0.96851,10.60069 0.96851,8.10095 1.21064,8.02 1.21063,6.50496 1.45277,6.47005 1.45276,5.44768 1.6949,5.43017 1.69489,4.69168 1.93702,4.68194 1.93702,4.12268 2.17915,4.11682 2.42128,4.06374 2.42127,3.63579 2.6634,3.6018 2.90554,3.5434 3.14765,3.46843 3.38979,3.38282 3.63191,3.29093 3.87404,3.19594 4.11617,3.10011 4.3583,3.00504 4.84255,3.05847 5.08468,2.94434 5.56893,2.96068 6.05319,2.95421 6.29532,2.82596 7.0217,2.90135 7.50595,2.85369 7.99021,2.79927 8.7166,2.81549 9.44297,2.81164 10.16936,2.79214 10.89574,2.76066 11.86425,2.7747 12.83276,2.76986 13.80127,2.75027 15.01191,2.7622 16.22255,2.75592 17.67531,2.77193 2.07063,0.31064 0,0" style="fill:none;stroke:#00f;stroke-width:2;stroke-linecap:square;stroke-linejoin:round;stroke-miterlimit:10;stroke-dasharray:none;stroke-opacity:1"/></g></g><g id="g26"><g id="g28" clip-path="url(#clipPath30)"><path id="path34" d="m 10.183125,195.65651 63.930811,0.16889 30.996754,0.29097 20.82595,0.4063 15.9827,0.52781 12.59243,0.62664 10.65514,0.74106 9.20216,0.85215 8.23351,0.98064 7.26487,1.08219 6.78054,1.23733 5.81189,1.27196 5.81189,1.50491 5.32757,1.62044 4.84324,1.70635 4.35892,1.75414 4.35892,1.98993 3.8746,1.99232 3.87459,2.22868 3.8746,2.49309 3.39027,2.42292 3.39027,2.67266 3.39027,2.94813 3.39027,3.25199 3.39027,3.58718 3.39027,3.95692 2.90594,3.7147 2.90595,4.04056 2.90595,4.395 2.90594,4.78053 2.90595,5.19987 2.90594,5.65602 2.90595,6.15216 2.90594,6.69183 2.90595,7.27884 2.90595,7.91734 2.90594,8.61185 2.90595,9.36729 2.90594,10.18899 2.90595,11.08277 2.90595,12.05496 2.90594,13.11242 2.90595,14.26265 0.7999,4.14511 0,0" style="fill:none;stroke:green;stroke-width:2;stroke-linecap:square;stroke-linejoin:round;stroke-miterlimit:10;stroke-dasharray:none;stroke-opacity:1"/></g></g><g id="g36"><g id="g38" clip-path="url(#clipPath40)"><path id="path44" d="m 55.478125,-1 377.624995,377.625 0,0" style="fill:none;stroke:red;stroke-width:2;stroke-linecap:square;stroke-linejoin:round;stroke-miterlimit:10;stroke-dasharray:none;stroke-opacity:1"/></g></g><g id="g46"><path id="path48" d="m 475.30312,22.825 0,345.6" style="fill:none;stroke:#000;stroke-width:1;stroke-linecap:square;stroke-linejoin:miter;stroke-miterlimit:10;stroke-dasharray:none;stroke-opacity:1"/><path id="path50" d="m 28.903125,22.825 446.399995,0" style="fill:none;stroke:#000;stroke-width:1;stroke-linecap:square;stroke-linejoin:miter;stroke-miterlimit:10;stroke-dasharray:none;stroke-opacity:1"/><path id="path52" d="m 28.903125,22.825 0,345.6" style="fill:none;stroke:#000;stroke-width:1;stroke-linecap:square;stroke-linejoin:miter;stroke-miterlimit:10;stroke-dasharray:none;stroke-opacity:1"/><path id="path54" d="m 28.903125,368.425 446.399995,0" style="fill:none;stroke:#000;stroke-width:1;stroke-linecap:square;stroke-linejoin:miter;stroke-miterlimit:10;stroke-dasharray:none;stroke-opacity:1"/><path id="path56" d="m 44.743125,22.825 0,4" style="fill:#000;fill-opacity:1;fill-rule:nonzero;stroke:#000;stroke-width:.5;stroke-linecap:butt;stroke-linejoin:round;stroke-miterlimit:10;stroke-dasharray:none;stroke-opacity:1"/><path id="path58" d="m 44.743125,368.425 0,-4" style="fill:#000;fill-opacity:1;fill-rule:nonzero;stroke:#000;stroke-width:.5;stroke-linecap:butt;stroke-linejoin:round;stroke-miterlimit:10;stroke-dasharray:none;stroke-opacity:1"/><g id="g60" transform="translate(35.891562,9.7)"><text id="text62" transform="matrix(1,0,0,-1,10.054688,0)" style="font-variant:normal;font-weight:400;font-size:12px;font-family:'Bitstream Vera Sans';-inkscape-font-specification:BitstreamVeraSans-Roman;writing-mode:lr-tb;fill:#000;fill-opacity:1;fill-rule:nonzero;stroke:none"><tspan id="tspan64" x="0" y="0">6</tspan></text><g id="g66" transform="scale(0.012,0.012)"><g id="g68"><g id="g70" clip-path="url(#clipPath72)"><path id="path76" d="m 106,355 626,0 0,-83 -626,0 0,83" style="fill:#000;fill-opacity:1;fill-rule:nonzero;stroke:none"/></g></g></g></g><path id="path78" d="m 113.86313,22.825 0,4" style="fill:#000;fill-opacity:1;fill-rule:nonzero;stroke:#000;stroke-width:.5;stroke-linecap:butt;stroke-linejoin:round;stroke-miterlimit:10;stroke-dasharray:none;stroke-opacity:1"/><path id="path80" d="m 113.86313,368.425 0,-4" style="fill:#000;fill-opacity:1;fill-rule:nonzero;stroke:#000;stroke-width:.5;stroke-linecap:butt;stroke-linejoin:round;stroke-miterlimit:10;stroke-dasharray:none;stroke-opacity:1"/><g id="g82" transform="translate(105.01156,9.7)"><text id="text84" transform="matrix(1,0,0,-1,10.054688,0)" style="font-variant:normal;font-weight:400;font-size:12px;font-family:'Bitstream Vera Sans';-inkscape-font-specification:BitstreamVeraSans-Roman;writing-mode:lr-tb;fill:#000;fill-opacity:1;fill-rule:nonzero;stroke:none"><tspan id="tspan86" x="0" y="0">4</tspan></text><g id="g88" transform="scale(0.012,0.012)"><g id="g90"><g id="g92" clip-path="url(#clipPath94)"><path id="path98" d="m 106,355 626,0 0,-83 -626,0 0,83" style="fill:#000;fill-opacity:1;fill-rule:nonzero;stroke:none"/></g></g></g></g><path id="path100" d="m 182.98312,22.825 0,4" style="fill:#000;fill-opacity:1;fill-rule:nonzero;stroke:#000;stroke-width:.5;stroke-linecap:butt;stroke-linejoin:round;stroke-miterlimit:10;stroke-dasharray:none;stroke-opacity:1"/><path id="path102" d="m 182.98312,368.425 0,-4" style="fill:#000;fill-opacity:1;fill-rule:nonzero;stroke:#000;stroke-width:.5;stroke-linecap:butt;stroke-linejoin:round;stroke-miterlimit:10;stroke-dasharray:none;stroke-opacity:1"/><g id="g104" transform="translate(174.13156,9.7)"><text id="text106" transform="matrix(1,0,0,-1,10.054688,0)" style="font-variant:normal;font-weight:400;font-size:12px;font-family:'Bitstream Vera Sans';-inkscape-font-specification:BitstreamVeraSans-Roman;writing-mode:lr-tb;fill:#000;fill-opacity:1;fill-rule:nonzero;stroke:none"><tspan id="tspan108" x="0" y="0">2</tspan></text><g id="g110" transform="scale(0.012,0.012)"><g id="g112"><g id="g114" clip-path="url(#clipPath116)"><path id="path120" d="m 106,355 626,0 0,-83 -626,0 0,83" style="fill:#000;fill-opacity:1;fill-rule:nonzero;stroke:none"/></g></g></g></g><path id="path122" d="m 252.10312,22.825 0,4" style="fill:#000;fill-opacity:1;fill-rule:nonzero;stroke:#000;stroke-width:.5;stroke-linecap:butt;stroke-linejoin:round;stroke-miterlimit:10;stroke-dasharray:none;stroke-opacity:1"/><path id="path124" d="m 252.10312,368.425 0,-4" style="fill:#000;fill-opacity:1;fill-rule:nonzero;stroke:#000;stroke-width:.5;stroke-linecap:butt;stroke-linejoin:round;stroke-miterlimit:10;stroke-dasharray:none;stroke-opacity:1"/><text id="text126" transform="matrix(1,0,0,-1,248.28281,9.7)" style="font-variant:normal;font-weight:400;font-size:12px;font-family:'Bitstream Vera Sans';-inkscape-font-specification:BitstreamVeraSans-Roman;writing-mode:lr-tb;fill:#000;fill-opacity:1;fill-rule:nonzero;stroke:none"><tspan id="tspan128" x="0" y="0">0</tspan></text><path id="path130" d="m 321.22312,22.825 0,4" style="fill:#000;fill-opacity:1;fill-rule:nonzero;stroke:#000;stroke-width:.5;stroke-linecap:butt;stroke-linejoin:round;stroke-miterlimit:10;stroke-dasharray:none;stroke-opacity:1"/><path id="path132" d="m 321.22312,368.425 0,-4" style="fill:#000;fill-opacity:1;fill-rule:nonzero;stroke:#000;stroke-width:.5;stroke-linecap:butt;stroke-linejoin:round;stroke-miterlimit:10;stroke-dasharray:none;stroke-opacity:1"/><text id="text134" transform="matrix(1,0,0,-1,317.40281,9.7)" style="font-variant:normal;font-weight:400;font-size:12px;font-family:'Bitstream Vera Sans';-inkscape-font-specification:BitstreamVeraSans-Roman;writing-mode:lr-tb;fill:#000;fill-opacity:1;fill-rule:nonzero;stroke:none"><tspan id="tspan136" x="0" y="0">2</tspan></text><path id="path138" d="m 390.34312,22.825 0,4" style="fill:#000;fill-opacity:1;fill-rule:nonzero;stroke:#000;stroke-width:.5;stroke-linecap:butt;stroke-linejoin:round;stroke-miterlimit:10;stroke-dasharray:none;stroke-opacity:1"/><path id="path140" d="m 390.34312,368.425 0,-4" style="fill:#000;fill-opacity:1;fill-rule:nonzero;stroke:#000;stroke-width:.5;stroke-linecap:butt;stroke-linejoin:round;stroke-miterlimit:10;stroke-dasharray:none;stroke-opacity:1"/><text id="text142" transform="matrix(1,0,0,-1,386.52281,9.7)" style="font-variant:normal;font-weight:400;font-size:12px;font-family:'Bitstream Vera Sans';-inkscape-font-specification:BitstreamVeraSans-Roman;writing-mode:lr-tb;fill:#000;fill-opacity:1;fill-rule:nonzero;stroke:none"><tspan id="tspan144" x="0" y="0">4</tspan></text><path id="path146" d="m 459.46312,22.825 0,4" style="fill:#000;fill-opacity:1;fill-rule:nonzero;stroke:#000;stroke-width:.5;stroke-linecap:butt;stroke-linejoin:round;stroke-miterlimit:10;stroke-dasharray:none;stroke-opacity:1"/><path id="path148" d="m 459.46312,368.425 0,-4" style="fill:#000;fill-opacity:1;fill-rule:nonzero;stroke:#000;stroke-width:.5;stroke-linecap:butt;stroke-linejoin:round;stroke-miterlimit:10;stroke-dasharray:none;stroke-opacity:1"/><text id="text150" transform="matrix(1,0,0,-1,455.64281,9.7)" style="font-variant:normal;font-weight:400;font-size:12px;font-family:'Bitstream Vera Sans';-inkscape-font-specification:BitstreamVeraSans-Roman;writing-mode:lr-tb;fill:#000;fill-opacity:1;fill-rule:nonzero;stroke:none"><tspan id="tspan152" x="0" y="0">6</tspan></text><path id="path154" d="m 28.903125,57.385 4,0" style="fill:#000;fill-opacity:1;fill-rule:nonzero;stroke:#000;stroke-width:.5;stroke-linecap:butt;stroke-linejoin:round;stroke-miterlimit:10;stroke-dasharray:none;stroke-opacity:1"/><path id="path156" d="m 475.30312,57.385 -4,0" style="fill:#000;fill-opacity:1;fill-rule:nonzero;stroke:#000;stroke-width:.5;stroke-linecap:butt;stroke-linejoin:round;stroke-miterlimit:10;stroke-dasharray:none;stroke-opacity:1"/><g id="g158" transform="translate(7.2,54.0725)"><text id="text160" transform="matrix(1,0,0,-1,10.054688,0)" style="font-variant:normal;font-weight:400;font-size:12px;font-family:'Bitstream Vera Sans';-inkscape-font-specification:BitstreamVeraSans-Roman;writing-mode:lr-tb;fill:#000;fill-opacity:1;fill-rule:nonzero;stroke:none"><tspan id="tspan162" x="0" y="0">4</tspan></text><g id="g164" transform="scale(0.012,0.012)"><g id="g166"><g id="g168" clip-path="url(#clipPath170)"><path id="path174" d="m 106,355 626,0 0,-83 -626,0 0,83" style="fill:#000;fill-opacity:1;fill-rule:nonzero;stroke:none"/></g></g></g></g><path id="path176" d="m 28.903125,126.505 4,0" style="fill:#000;fill-opacity:1;fill-rule:nonzero;stroke:#000;stroke-width:.5;stroke-linecap:butt;stroke-linejoin:round;stroke-miterlimit:10;stroke-dasharray:none;stroke-opacity:1"/><path id="path178" d="m 475.30312,126.505 -4,0" style="fill:#000;fill-opacity:1;fill-rule:nonzero;stroke:#000;stroke-width:.5;stroke-linecap:butt;stroke-linejoin:round;stroke-miterlimit:10;stroke-dasharray:none;stroke-opacity:1"/><g id="g180" transform="translate(7.2,123.1925)"><text id="text182" transform="matrix(1,0,0,-1,10.054688,0)" style="font-variant:normal;font-weight:400;font-size:12px;font-family:'Bitstream Vera Sans';-inkscape-font-specification:BitstreamVeraSans-Roman;writing-mode:lr-tb;fill:#000;fill-opacity:1;fill-rule:nonzero;stroke:none"><tspan id="tspan184" x="0" y="0">2</tspan></text><g id="g186" transform="scale(0.012,0.012)"><g id="g188"><g id="g190" clip-path="url(#clipPath192)"><path id="path196" d="m 106,355 626,0 0,-83 -626,0 0,83" style="fill:#000;fill-opacity:1;fill-rule:nonzero;stroke:none"/></g></g></g></g><path id="path198" d="m 28.903125,195.625 4,0" style="fill:#000;fill-opacity:1;fill-rule:nonzero;stroke:#000;stroke-width:.5;stroke-linecap:butt;stroke-linejoin:round;stroke-miterlimit:10;stroke-dasharray:none;stroke-opacity:1"/><path id="path200" d="m 475.30312,195.625 -4,0" style="fill:#000;fill-opacity:1;fill-rule:nonzero;stroke:#000;stroke-width:.5;stroke-linecap:butt;stroke-linejoin:round;stroke-miterlimit:10;stroke-dasharray:none;stroke-opacity:1"/><text id="text202" transform="matrix(1,0,0,-1,17.2625,192.3125)" style="font-variant:normal;font-weight:400;font-size:12px;font-family:'Bitstream Vera Sans';-inkscape-font-specification:BitstreamVeraSans-Roman;writing-mode:lr-tb;fill:#000;fill-opacity:1;fill-rule:nonzero;stroke:none"><tspan id="tspan204" x="0" y="0">0</tspan></text><path id="path206" d="m 28.903125,264.745 4,0" style="fill:#000;fill-opacity:1;fill-rule:nonzero;stroke:#000;stroke-width:.5;stroke-linecap:butt;stroke-linejoin:round;stroke-miterlimit:10;stroke-dasharray:none;stroke-opacity:1"/><path id="path208" d="m 475.30312,264.745 -4,0" style="fill:#000;fill-opacity:1;fill-rule:nonzero;stroke:#000;stroke-width:.5;stroke-linecap:butt;stroke-linejoin:round;stroke-miterlimit:10;stroke-dasharray:none;stroke-opacity:1"/><text id="text210" transform="matrix(1,0,0,-1,17.2625,261.4325)" style="font-variant:normal;font-weight:400;font-size:12px;font-family:'Bitstream Vera Sans';-inkscape-font-specification:BitstreamVeraSans-Roman;writing-mode:lr-tb;fill:#000;fill-opacity:1;fill-rule:nonzero;stroke:none"><tspan id="tspan212" x="0" y="0">2</tspan></text><path id="path214" d="m 28.903125,333.865 4,0" style="fill:#000;fill-opacity:1;fill-rule:nonzero;stroke:#000;stroke-width:.5;stroke-linecap:butt;stroke-linejoin:round;stroke-miterlimit:10;stroke-dasharray:none;stroke-opacity:1"/><path id="path216" d="m 475.30312,333.865 -4,0" style="fill:#000;fill-opacity:1;fill-rule:nonzero;stroke:#000;stroke-width:.5;stroke-linecap:butt;stroke-linejoin:round;stroke-miterlimit:10;stroke-dasharray:none;stroke-opacity:1"/><text id="text218" transform="matrix(1,0,0,-1,17.2625,330.5525)" style="font-variant:normal;font-weight:400;font-size:12px;font-family:'Bitstream Vera Sans';-inkscape-font-specification:BitstreamVeraSans-Roman;writing-mode:lr-tb;fill:#000;fill-opacity:1;fill-rule:nonzero;stroke:none"><tspan id="tspan220" x="0" y="0">4</tspan></text></g></g></svg>