<svg xmlns="http://www.w3.org/2000/svg" xmlns:svg="http://www.w3.org/2000/svg" id="svg2" width="604.867" height="469.531" version="1.1" viewBox="0 0 604.867 469.531" xml:space="preserve"><metadata id="metadata8"/><defs id="defs6"><clipPath id="clipPath20" clipPathUnits="userSpaceOnUse"><path id="path22" d="m 30.29375,22.825 446.4,0 0,345.6 -446.4,0 0,-345.6 z"/></clipPath><clipPath id="clipPath32" clipPathUnits="userSpaceOnUse"><path id="path34" d="m 30.29375,22.825 446.4,0 0,345.6 -446.4,0 0,-345.6 z"/></clipPath><clipPath id="clipPath42" clipPathUnits="userSpaceOnUse"><path id="path44" d="m -4.236068,-4.236068 8.472136,0 0,8.472136 -8.472136,0 0,-8.472136 z"/></clipPath><clipPath id="clipPath54" clipPathUnits="userSpaceOnUse"><path id="path56" d="m -4.236068,-4.236068 8.472136,0 0,8.472136 -8.472136,0 0,-8.472136 z"/></clipPath><clipPath id="clipPath66" clipPathUnits="userSpaceOnUse"><path id="path68" d="m -4.236068,-4.236068 8.472136,0 0,8.472136 -8.472136,0 0,-8.472136 z"/></clipPath><clipPath id="clipPath78" clipPathUnits="userSpaceOnUse"><path id="path80" d="m -4.236068,-4.236068 8.472136,0 0,8.472136 -8.472136,0 0,-8.472136 z"/></clipPath><clipPath id="clipPath90" clipPathUnits="userSpaceOnUse"><path id="path92" d="m -4.236068,-4.236068 8.472136,0 0,8.472136 -8.472136,0 0,-8.472136 z"/></clipPath><clipPath id="clipPath102" clipPathUnits="userSpaceOnUse"><path id="path104" d="m -4.236068,-4.236068 8.472136,0 0,8.472136 -8.472136,0 0,-8.472136 z"/></clipPath><clipPath id="clipPath114" clipPathUnits="userSpaceOnUse"><path id="path116" d="m -4.236068,-4.236068 8.472136,0 0,8.472136 -8.472136,0 0,-8.472136 z"/></clipPath><clipPath id="clipPath126" clipPathUnits="userSpaceOnUse"><path id="path128" d="m -4.236068,-4.236068 8.472136,0 0,8.472136 -8.472136,0 0,-8.472136 z"/></clipPath><clipPath id="clipPath138" clipPathUnits="userSpaceOnUse"><path id="path140" d="m -4.236068,-4.236068 8.472136,0 0,8.472136 -8.472136,0 0,-8.472136 z"/></clipPath><clipPath id="clipPath150" clipPathUnits="userSpaceOnUse"><path id="path152" d="m -4.236068,-4.236068 8.472136,0 0,8.472136 -8.472136,0 0,-8.472136 z"/></clipPath><clipPath id="clipPath162" clipPathUnits="userSpaceOnUse"><path id="path164" d="m -4.236068,-4.236068 8.472136,0 0,8.472136 -8.472136,0 0,-8.472136 z"/></clipPath><clipPath id="clipPath174" clipPathUnits="userSpaceOnUse"><path id="path176" d="m -4.236068,-4.236068 8.472136,0 0,8.472136 -8.472136,0 0,-8.472136 z"/></clipPath><clipPath id="clipPath186" clipPathUnits="userSpaceOnUse"><path id="path188" d="m -4.236068,-4.236068 8.472136,0 0,8.472136 -8.472136,0 0,-8.472136 z"/></clipPath><clipPath id="clipPath198" clipPathUnits="userSpaceOnUse"><path id="path200" d="m -4.236068,-4.236068 8.472136,0 0,8.472136 -8.472136,0 0,-8.472136 z"/></clipPath><clipPath id="clipPath210" clipPathUnits="userSpaceOnUse"><path id="path212" d="m -4.236068,-4.236068 8.472136,0 0,8.472136 -8.472136,0 0,-8.472136 z"/></clipPath><clipPath id="clipPath222" clipPathUnits="userSpaceOnUse"><path id="path224" d="m -4.236068,-4.236068 8.472136,0 0,8.472136 -8.472136,0 0,-8.472136 z"/></clipPath><clipPath id="clipPath234" clipPathUnits="userSpaceOnUse"><path id="path236" d="m -4.236068,-4.236068 8.472136,0 0,8.472136 -8.472136,0 0,-8.472136 z"/></clipPath><clipPath id="clipPath246" clipPathUnits="userSpaceOnUse"><path id="path248" d="m -4.236068,-4.236068 8.472136,0 0,8.472136 -8.472136,0 0,-8.472136 z"/></clipPath><clipPath id="clipPath258" clipPathUnits="userSpaceOnUse"><path id="path260" d="m -4.236068,-4.236068 8.472136,0 0,8.472136 -8.472136,0 0,-8.472136 z"/></clipPath><clipPath id="clipPath270" clipPathUnits="userSpaceOnUse"><path id="path272" d="m -4.236068,-4.236068 8.472136,0 0,8.472136 -8.472136,0 0,-8.472136 z"/></clipPath><clipPath id="clipPath282" clipPathUnits="userSpaceOnUse"><path id="path284" d="m -4.236068,-4.236068 8.472136,0 0,8.472136 -8.472136,0 0,-8.472136 z"/></clipPath><clipPath id="clipPath294" clipPathUnits="userSpaceOnUse"><path id="path296" d="m -4.236068,-4.236068 8.472136,0 0,8.472136 -8.472136,0 0,-8.472136 z"/></clipPath><clipPath id="clipPath306" clipPathUnits="userSpaceOnUse"><path id="path308" d="m -4.236068,-4.236068 8.472136,0 0,8.472136 -8.472136,0 0,-8.472136 z"/></clipPath><clipPath id="clipPath318" clipPathUnits="userSpaceOnUse"><path id="path320" d="m 30.29375,22.825 446.4,0 0,345.6 -446.4,0 0,-345.6 z"/></clipPath><clipPath id="clipPath328" clipPathUnits="userSpaceOnUse"><path id="path330" d="m -4.236068,-4.236068 8.472136,0 0,8.472136 -8.472136,0 0,-8.472136 z"/></clipPath><clipPath id="clipPath340" clipPathUnits="userSpaceOnUse"><path id="path342" d="m -4.236068,-4.236068 8.472136,0 0,8.472136 -8.472136,0 0,-8.472136 z"/></clipPath><clipPath id="clipPath352" clipPathUnits="userSpaceOnUse"><path id="path354" d="m -4.236068,-4.236068 8.472136,0 0,8.472136 -8.472136,0 0,-8.472136 z"/></clipPath><clipPath id="clipPath364" clipPathUnits="userSpaceOnUse"><path id="path366" d="m -4.236068,-4.236068 8.472136,0 0,8.472136 -8.472136,0 0,-8.472136 z"/></clipPath><clipPath id="clipPath376" clipPathUnits="userSpaceOnUse"><path id="path378" d="m -4.236068,-4.236068 8.472136,0 0,8.472136 -8.472136,0 0,-8.472136 z"/></clipPath><clipPath id="clipPath388" clipPathUnits="userSpaceOnUse"><path id="path390" d="m -4.236068,-4.236068 8.472136,0 0,8.472136 -8.472136,0 0,-8.472136 z"/></clipPath><clipPath id="clipPath400" clipPathUnits="userSpaceOnUse"><path id="path402" d="m -4.236068,-4.236068 8.472136,0 0,8.472136 -8.472136,0 0,-8.472136 z"/></clipPath><clipPath id="clipPath412" clipPathUnits="userSpaceOnUse"><path id="path414" d="m -4.236068,-4.236068 8.472136,0 0,8.472136 -8.472136,0 0,-8.472136 z"/></clipPath><clipPath id="clipPath424" clipPathUnits="userSpaceOnUse"><path id="path426" d="m -4.236068,-4.236068 8.472136,0 0,8.472136 -8.472136,0 0,-8.472136 z"/></clipPath><clipPath id="clipPath436" clipPathUnits="userSpaceOnUse"><path id="path438" d="m -4.236068,-4.236068 8.472136,0 0,8.472136 -8.472136,0 0,-8.472136 z"/></clipPath><clipPath id="clipPath448" clipPathUnits="userSpaceOnUse"><path id="path450" d="m -4.236068,-4.236068 8.472136,0 0,8.472136 -8.472136,0 0,-8.472136 z"/></clipPath><clipPath id="clipPath460" clipPathUnits="userSpaceOnUse"><path id="path462" d="m -4.236068,-4.236068 8.472136,0 0,8.472136 -8.472136,0 0,-8.472136 z"/></clipPath><clipPath id="clipPath472" clipPathUnits="userSpaceOnUse"><path id="path474" d="m -4.236068,-4.236068 8.472136,0 0,8.472136 -8.472136,0 0,-8.472136 z"/></clipPath><clipPath id="clipPath484" clipPathUnits="userSpaceOnUse"><path id="path486" d="m -4.236068,-4.236068 8.472136,0 0,8.472136 -8.472136,0 0,-8.472136 z"/></clipPath><clipPath id="clipPath496" clipPathUnits="userSpaceOnUse"><path id="path498" d="m -4.236068,-4.236068 8.472136,0 0,8.472136 -8.472136,0 0,-8.472136 z"/></clipPath><clipPath id="clipPath508" clipPathUnits="userSpaceOnUse"><path id="path510" d="m -4.236068,-4.236068 8.472136,0 0,8.472136 -8.472136,0 0,-8.472136 z"/></clipPath><clipPath id="clipPath520" clipPathUnits="userSpaceOnUse"><path id="path522" d="m -4.236068,-4.236068 8.472136,0 0,8.472136 -8.472136,0 0,-8.472136 z"/></clipPath><clipPath id="clipPath530" clipPathUnits="userSpaceOnUse"><path id="path532" d="m 30.29375,22.825 446.4,0 0,345.6 -446.4,0 0,-345.6 z"/></clipPath><clipPath id="clipPath540" clipPathUnits="userSpaceOnUse"><path id="path542" d="m 30.29375,22.825 446.4,0 0,345.6 -446.4,0 0,-345.6 z"/></clipPath></defs><g id="g10" transform="matrix(1.25,0,0,-1.25,0,469.53125)"><path id="path12" d="m 0,0 483.89375,0 0,375.625 L 0,375.625 0,0 Z" style="fill:#fff;fill-opacity:1;fill-rule:nonzero;stroke:none"/><path id="path14" d="m 30.29375,22.825 446.4,0 0,345.6 -446.4,0 0,-345.6 z" style="fill:#fff;fill-opacity:1;fill-rule:nonzero;stroke:none"/><g id="g16"><g id="g18" clip-path="url(#clipPath20)"><path id="path24" d="m 30.293749,22.825 0.223424,0.494009 0.893694,1.976014 0.893694,1.975916 0.893694,1.975739 0.893693,1.975486 0.893694,1.975154 0.893694,1.974743 0.893693,1.974255 0.893694,1.973688 0.893694,1.973044 0.893693,1.972321 0.893694,1.971521 0.893694,1.970642 0.893693,1.969685 0.893694,1.968651 0.893694,1.967538 0.893694,1.966348 0.893693,1.96508 0.893694,1.963735 0.893694,1.962311 0.893693,1.96081 0.893694,1.959231 0.893694,1.957575 0.893693,1.955842 0.893694,1.954031 0.893694,1.952142 0.893693,1.950177 0.893694,1.948135 0.893694,1.946015 0.893694,1.943818 0.893693,1.941545 0.893694,1.939195 0.893694,1.936767 0.893693,1.934264 0.893694,1.931684 0.893694,1.929027 0.893693,1.926294 0.893694,1.923485 0.893694,1.9206 0.893693,1.917639 0.893694,1.914604 0.893694,1.91149 0.893694,1.9083 0.893693,1.90504 0.893694,1.90169 0.893694,1.89829 0.893693,1.89479 0.893694,1.89123 0.893694,1.88759 0.893693,1.88388 0.893694,1.88009 0.893694,1.87622 0.893693,1.87229 0.893694,1.86827 0.893694,1.8642 0.893694,1.86003 0.893693,1.8558 0.893694,1.8515 0.893694,1.84711 0.893693,1.84267 0.893694,1.83814 0.893694,1.83354 0.893693,1.82887 0.893694,1.82413 0.893694,1.81931 0.893694,1.81443 0.893693,1.80947 0.893694,1.80444 0.893694,1.79933 0.893693,1.79417 0.893694,1.78892 0.893694,1.78361 0.893693,1.77822 0.893694,1.77277 0.893694,1.76724 0.893693,1.76165 0.893694,1.75598 0.893694,1.75025 0.893692,1.74444 0.89369,1.73857 0.8937,1.73263 0.89369,1.72662 0.8937,1.72054 0.89369,1.7144 0.89369,1.70818 0.8937,1.7019 0.89369,1.69555 0.8937,1.68913 0.89369,1.68266 0.89369,1.6761 0.8937,1.66949 0.89369,1.6628 0.89369,1.65606 0.8937,1.64924 0.89369,1.64237 0.89369,1.63542 0.8937,1.62841 0.89369,1.62135 0.8937,1.6142 0.89369,1.60701 0.89369,1.59974 0.8937,1.59241 0.89369,1.58503 0.89369,1.57757 0.8937,1.57005 0.89369,1.56248 0.8937,1.55484 0.89369,1.54714 0.89369,1.53937 0.8937,1.53156 0.89369,1.52367 0.89369,1.51572 0.8937,1.50773 0.89369,1.49965 0.89369,1.49154 0.8937,1.48336 0.89369,1.47511 0.8937,1.46682 0.89369,1.45846 0.89369,1.45004 0.8937,1.44157 0.89369,1.43305 0.89369,1.42446 0.8937,1.41582 0.89369,1.40712 0.89369,1.39836 0.8937,1.38956 0.89369,1.38069 0.8937,1.37178 0.89369,1.3628 0.89369,1.35378 0.8937,1.34469 0.89369,1.33557 0.8937,1.32637 0.89369,1.31714 0.89369,1.30785 0.8937,1.2985 0.89369,1.28911 0.89369,1.27967 0.8937,1.27017 0.89369,1.26063 0.89369,1.25103 0.8937,1.24138 0.89369,1.23169 0.89369,1.22195 0.8937,1.21216 0.89369,1.20232 0.8937,1.19243 0.89369,1.18249 0.89369,1.17252 0.8937,1.16249 0.89369,1.15242 0.8937,1.14229 0.89369,1.13214 0.89369,1.12192 0.8937,1.11168 0.89369,1.10137 0.89369,1.09104 0.8937,1.08065 0.89369,1.07023 0.89369,1.05975 0.8937,1.04925 0.89369,1.03869 0.89369,1.02811 0.8937,1.01746 0.89369,1.0068 0.8937,0.99608 0.89369,0.98532 0.89369,0.97453 0.8937,0.96371 0.89369,0.95283 0.89369,0.94193 0.8937,0.93098 0.89369,0.92 0.8937,0.90899 0.89369,0.89793 0.89369,0.88684 0.8937,0.87572 0.89369,0.86456 0.8937,0.85337 0.89369,0.84214 0.89369,0.83088 0.8937,0.81959 0.89369,0.80827 0.89369,0.79691 0.8937,0.78552 0.89369,0.7741 0.89369,0.76265 0.8937,0.75117 0.89369,0.73966 0.89369,0.72812 0.8937,0.71655 0.89369,0.70495 0.8937,0.69334 0.89369,0.68168 0.89369,0.67 0.8937,0.65829 0.89369,0.64657 0.89369,0.63481 0.8937,0.62302 0.89369,0.61122 0.8937,0.59939 0.89369,0.58753 0.89369,0.57566 0.8937,0.56376 0.89369,0.55183 0.89369,0.53989 0.8937,0.52792 0.89369,0.51594 0.89369,0.50393 0.8937,0.4919 0.89369,0.47985 0.8937,0.46779 0.89369,0.45571 0.89369,0.4436 0.8937,0.43148 0.89369,0.41935 0.89369,0.40719 0.8937,0.39503 0.89369,0.38284 0.8937,0.37063 0.89369,0.35843 0.89369,0.34619 0.8937,0.33395 0.89369,0.3217 0.89369,0.30943 0.8937,0.29714 0.89369,0.28485 0.8937,0.27255 0.89369,0.26024 0.89369,0.24791 0.8937,0.23557 0.89369,0.22323 0.89369,0.21088 0.8937,0.19852 0.89369,0.18614 0.89369,0.17377 0.8937,0.16139 0.89369,0.149 0.8937,0.1366 0.89369,0.1242 0.89369,0.11179 0.8937,0.0994 0.89369,0.087 0.8937,0.0745 0.89369,0.0621 0.89369,0.0497 0.8937,0.0373 0.89369,0.0249 0.89369,0.0124 0.8937,0 0.89369,-0.0124 0.89369,-0.0249 0.8937,-0.0373 0.89369,-0.0497 0.89369,-0.0621 0.8937,-0.0745 0.89369,-0.087 0.8937,-0.0994 0.89369,-0.11179 0.89369,-0.1242 0.8937,-0.1366 0.89369,-0.149 0.89369,-0.16139 0.8937,-0.17377 0.89369,-0.18614 0.8937,-0.19852 0.89369,-0.21088 0.89369,-0.22323 0.8937,-0.23557 0.89369,-0.24791 0.89369,-0.26024 0.8937,-0.27255 0.89369,-0.28485 0.8937,-0.29714 0.89369,-0.30943 0.89369,-0.3217 0.8937,-0.33395 0.89369,-0.34619 0.89369,-0.35843 0.8937,-0.37063 0.89369,-0.38284 0.89369,-0.39503 0.8937,-0.40719 0.89369,-0.41935 0.8937,-0.43148 0.89369,-0.4436 0.89369,-0.45571 0.8937,-0.46779 0.89369,-0.47985 0.89369,-0.4919 0.8937,-0.50393 0.89369,-0.51594 0.8937,-0.52792 0.89369,-0.53989 0.89369,-0.55183 0.8937,-0.56376 0.89369,-0.57566 0.89369,-0.58753 0.8937,-0.59939 0.89369,-0.61122 0.89369,-0.62302 0.8937,-0.63481 0.89369,-0.64657 0.8937,-0.65829 0.89369,-0.67 0.89369,-0.68168 0.8937,-0.69334 0.89369,-0.70495 0.89369,-0.71655 0.8937,-0.72812 0.89369,-0.73966 0.8937,-0.75117 0.89369,-0.76265 0.89369,-0.7741 0.8937,-0.78552 0.89369,-0.79691 0.89369,-0.80827 0.8937,-0.81959 0.89369,-0.83088 0.89369,-0.84214 0.8937,-0.85337 0.89369,-0.86456 0.8937,-0.87572 0.89369,-0.88684 0.89369,-0.89793 0.8937,-0.90899 0.89369,-0.92 0.89369,-0.93098 0.8937,-0.94193 0.89369,-0.95283 0.8937,-0.96371 0.89369,-0.97453 0.89369,-0.98532 0.8937,-0.99608 0.89369,-1.0068 0.89369,-1.01746 0.8937,-1.02811 0.89369,-1.03869 0.8937,-1.04925 0.89369,-1.05975 0.89369,-1.07023 0.8937,-1.08065 0.89369,-1.09104 0.89369,-1.10137 0.8937,-1.11168 0.89369,-1.12192 0.8937,-1.13214 0.89369,-1.14229 0.89369,-1.15242 0.8937,-1.16249 0.89369,-1.17252 0.89369,-1.18249 0.8937,-1.19243 0.89369,-1.20232 0.89369,-1.21216 0.8937,-1.22195 0.89369,-1.23169 0.8937,-1.24138 0.89369,-1.25103 0.89369,-1.26063 0.8937,-1.27017 0.89369,-1.27967 0.89369,-1.28911 0.8937,-1.2985 0.89369,-1.30785 0.8937,-1.31714 0.89369,-1.32637 0.89369,-1.33557 0.8937,-1.34469 0.89369,-1.35378 0.89369,-1.3628 0.8937,-1.37178 0.89369,-1.38069 0.89369,-1.38956 0.8937,-1.39836 0.89369,-1.40712 0.8937,-1.41582 0.89369,-1.42446 0.89369,-1.43305 0.8937,-1.44157 0.89369,-1.45004 0.89369,-1.45846 0.8937,-1.46682 0.89369,-1.47511 0.89369,-1.48336 0.8937,-1.49154 0.89369,-1.49965 0.8937,-1.50773 0.89369,-1.51572 0.89369,-1.52367 0.8937,-1.53156 0.89369,-1.53937 0.89369,-1.54714 0.8937,-1.55484 0.89369,-1.56248 0.8937,-1.57005 0.89369,-1.57757 0.89369,-1.58503 0.8937,-1.59241 0.89369,-1.59974 0.89369,-1.60701 0.8937,-1.6142 0.89369,-1.62135 0.8937,-1.62841 0.89369,-1.63542 0.89369,-1.64237 0.8937,-1.64924 0.89369,-1.65606 0.89369,-1.6628 0.8937,-1.66949 0.89369,-1.6761 0.89369,-1.68266 0.8937,-1.68913 0.89369,-1.69555 0.8937,-1.7019 0.89369,-1.70818 0.89369,-1.7144 0.8937,-1.72054 0.89369,-1.72662 0.89369,-1.73263 0.8937,-1.73857 0.89369,-1.74444 0.8937,-1.75025 0.89369,-1.75598 0.89369,-1.76165 0.8937,-1.76724 0.89369,-1.77277 0.89369,-1.77822 0.8937,-1.78361 0.89369,-1.78892 0.89369,-1.79417 0.8937,-1.79933 0.89369,-1.80444 0.8937,-1.80947 0.89369,-1.81443 0.89369,-1.81931 0.8937,-1.82413 0.89369,-1.82887 0.89369,-1.83354 0.8937,-1.83814 0.89369,-1.84267 0.8937,-1.84711 0.89369,-1.8515 0.89369,-1.8558 0.8937,-1.86003 0.89369,-1.8642 0.89369,-1.86827 0.8937,-1.87229 0.89369,-1.87622 0.8937,-1.88009 0.89369,-1.88388 0.89369,-1.88759 0.8937,-1.89123 0.89369,-1.89479 0.89369,-1.89829 0.8937,-1.90169 0.89369,-1.90504 0.8937,-1.9083 0.89369,-1.91149 0.89369,-1.914604 0.8937,-1.917639 0.89369,-1.9206 0.89369,-1.923485 0.8937,-1.926294 0.89369,-1.929027 0.89369,-1.931684 0.8937,-1.934264 0.89369,-1.936767 0.8937,-1.939195 0.89369,-1.941545 0.89369,-1.943818 0.8937,-1.946015 0.89369,-1.948135 0.89369,-1.950177 0.8937,-1.952142 0.89369,-1.954031 0.8937,-1.955842 0.89369,-1.957575 0.89369,-1.959231 0.8937,-1.96081 0.89369,-1.962311 0.89369,-1.963735 0.8937,-1.96508 0.89369,-1.966348 0.89369,-1.967538 0.8937,-1.968651 0.89369,-1.969685 0.8937,-1.970642 0.89369,-1.971521 0.89369,-1.972321 0.8937,-1.973044 0.89369,-1.973688 0.89369,-1.974255 0.8937,-1.974743 0.89369,-1.975154 0.89369,-1.975486 0.8937,-1.975739 0.89369,-1.975916 0.8937,-1.976014 0.22342,-0.494009 -0.22342,0 -0.8937,0 -0.89369,0 -0.8937,0 -0.89369,0 -0.89369,0 -0.8937,0 -0.89369,0 -0.89369,0 -0.8937,0 -0.89369,0 -0.89369,0 -0.8937,0 -0.89369,0 -0.8937,0 -0.89369,0 -0.89369,0 -0.8937,0 -0.89369,0 -0.89369,0 -0.8937,0 -0.89369,0 -0.89369,0 -0.8937,0 -0.89369,0 -0.8937,0 -0.89369,0 -0.89369,0 -0.8937,0 -0.89369,0 -0.89369,0 -0.8937,0 -0.89369,0 -0.8937,0 -0.89369,0 -0.89369,0 -0.8937,0 -0.89369,0 -0.89369,0 -0.8937,0 -0.89369,0 -0.89369,0 -0.8937,0 -0.89369,0 -0.8937,0 -0.89369,0 -0.89369,0 -0.8937,0 -0.89369,0 -0.89369,0 -0.8937,0 -0.89369,0 -0.8937,0 -0.89369,0 -0.89369,0 -0.8937,0 -0.89369,0 -0.89369,0 -0.8937,0 -0.89369,0 -0.8937,0 -0.89369,0 -0.89369,0 -0.8937,0 -0.89369,0 -0.89369,0 -0.8937,0 -0.89369,0 -0.8937,0 -0.89369,0 -0.89369,0 -0.8937,0 -0.89369,0 -0.89369,0 -0.8937,0 -0.89369,0 -0.89369,0 -0.8937,0 -0.89369,0 -0.8937,0 -0.89369,0 -0.89369,0 -0.8937,0 -0.89369,0 -0.89369,0 -0.8937,0 -0.89369,0 -0.8937,0 -0.89369,0 -0.89369,0 -0.8937,0 -0.89369,0 -0.89369,0 -0.8937,0 -0.89369,0 -0.89369,0 -0.8937,0 -0.89369,0 -0.8937,0 -0.89369,0 -0.89369,0 -0.8937,0 -0.89369,0 -0.89369,0 -0.8937,0 -0.89369,0 -0.8937,0 -0.89369,0 -0.89369,0 -0.8937,0 -0.89369,0 -0.89369,0 -0.8937,0 -0.89369,0 -0.8937,0 -0.89369,0 -0.89369,0 -0.8937,0 -0.89369,0 -0.89369,0 -0.8937,0 -0.89369,0 -0.89369,0 -0.8937,0 -0.89369,0 -0.8937,0 -0.89369,0 -0.89369,0 -0.8937,0 -0.89369,0 -0.89369,0 -0.8937,0 -0.89369,0 -0.89369,0 -0.8937,0 -0.89369,0 -0.8937,0 -0.89369,0 -0.89369,0 -0.8937,0 -0.89369,0 -0.89369,0 -0.8937,0 -0.89369,0 -0.8937,0 -0.89369,0 -0.89369,0 -0.8937,0 -0.89369,0 -0.89369,0 -0.8937,0 -0.89369,0 -0.89369,0 -0.8937,0 -0.89369,0 -0.8937,0 -0.89369,0 -0.89369,0 -0.8937,0 -0.89369,0 -0.89369,0 -0.8937,0 -0.89369,0 -0.8937,0 -0.89369,0 -0.89369,0 -0.8937,0 -0.89369,0 -0.89369,0 -0.8937,0 -0.89369,0 -0.8937,0 -0.89369,0 -0.89369,0 -0.8937,0 -0.89369,0 -0.89369,0 -0.8937,0 -0.89369,0 -0.8937,0 -0.89369,0 -0.89369,0 -0.8937,0 -0.89369,0 -0.89369,0 -0.8937,0 -0.89369,0 -0.89369,0 -0.8937,0 -0.89369,0 -0.8937,0 -0.89369,0 -0.89369,0 -0.8937,0 -0.89369,0 -0.89369,0 -0.8937,0 -0.89369,0 -0.8937,0 -0.89369,0 -0.89369,0 -0.8937,0 -0.89369,0 -0.89369,0 -0.8937,0 -0.89369,0 -0.89369,0 -0.8937,0 -0.89369,0 -0.8937,0 -0.89369,0 -0.89369,0 -0.8937,0 -0.89369,0 -0.89369,0 -0.8937,0 -0.89369,0 -0.8937,0 -0.89369,0 -0.89369,0 -0.8937,0 -0.89369,0 -0.89369,0 -0.8937,0 -0.89369,0 -0.89369,0 -0.8937,0 -0.89369,0 -0.8937,0 -0.89369,0 -0.89369,0 -0.8937,0 -0.89369,0 -0.89369,0 -0.8937,0 -0.89369,0 -0.8937,0 -0.89369,0 -0.89369,0 -0.8937,0 -0.89369,0 -0.89369,0 -0.8937,0 -0.89369,0 -0.8937,0 -0.89369,0 -0.89369,0 -0.8937,0 -0.89369,0 -0.89369,0 -0.8937,0 -0.89369,0 -0.89369,0 -0.8937,0 -0.89369,0 -0.89369,0 -0.8937,0 -0.89369,0 -0.8937,0 -0.89369,0 -0.89369,0 -0.8937,0 -0.89369,0 -0.8937,0 -0.89369,0 -0.89369,0 -0.8937,0 -0.89369,0 -0.89369,0 -0.8937,0 -0.89369,0 -0.89369,0 -0.8937,0 -0.89369,0 -0.8937,0 -0.89369,0 -0.89369,0 -0.8937,0 -0.89369,0 -0.89369,0 -0.8937,0 -0.89369,0 -0.8937,0 -0.89369,0 -0.89369,0 -0.8937,0 -0.89369,0 -0.89369,0 -0.8937,0 -0.89369,0 -0.8937,0 -0.89369,0 -0.89369,0 -0.8937,0 -0.89369,0 -0.89369,0 -0.8937,0 -0.89369,0 -0.89369,0 -0.8937,0 -0.89369,0 -0.8937,0 -0.89369,0 -0.89369,0 -0.8937,0 -0.89369,0 -0.89369,0 -0.8937,0 -0.89369,0 -0.8937,0 -0.89369,0 -0.89369,0 -0.8937,0 -0.89369,0 -0.89369,0 -0.8937,0 -0.89369,0 -0.89369,0 -0.8937,0 -0.89369,0 -0.89369,0 -0.8937,0 -0.89369,0 -0.8937,0 -0.89369,0 -0.89369,0 -0.8937,0 -0.89369,0 -0.8937,0 -0.89369,0 -0.89369,0 -0.8937,0 -0.89369,0 -0.89369,0 -0.8937,0 -0.89369,0 -0.8937,0 -0.89369,0 -0.89369,0 -0.8937,0 -0.89369,0 -0.89369,0 -0.8937,0 -0.89369,0 -0.89369,0 -0.8937,0 -0.89369,0 -0.89369,0 -0.8937,0 -0.89369,0 -0.8937,0 -0.89369,0 -0.89369,0 -0.8937,0 -0.89369,0 -0.8937,0 -0.89369,0 -0.89369,0 -0.8937,0 -0.89369,0 -0.89369,0 -0.8937,0 -0.89369,0 -0.89369,0 -0.8937,0 -0.89369,0 -0.89369,0 -0.8937,0 -0.89369,0 -0.8937,0 -0.89369,0 -0.89369,0 -0.8937,0 -0.89369,0 -0.8937,0 -0.89369,0 -0.89369,0 -0.8937,0 -0.89369,0 -0.89369,0 -0.8937,0 -0.89369,0 -0.89369,0 -0.8937,0 -0.89369,0 -0.8937,0 -0.89369,0 -0.89369,0 -0.8937,0 -0.89369,0 -0.89369,0 -0.8937,0 -0.89369,0 -0.89369,0 -0.8937,0 -0.89369,0 -0.8937,0 -0.89369,0 -0.89369,0 -0.8937,0 -0.89369,0 -0.89369,0 -0.8937,0 -0.89369,0 -0.8937,0 -0.89369,0 -0.89369,0 -0.8937,0 -0.89369,0 -0.89369,0 -0.8937,0 -0.89369,0 -0.89369,0 -0.8937,0 -0.89369,0 -0.8937,0 -0.89369,0 -0.89369,0 -0.8937,0 -0.89369,0 -0.8937,0 -0.89369,0 -0.893692,0 -0.893694,0 -0.893694,0 -0.893693,0 -0.893694,0 -0.893694,0 -0.893693,0 -0.893694,0 -0.893694,0 -0.893693,0 -0.893694,0 -0.893694,0 -0.893693,0 -0.893694,0 -0.893694,0 -0.893694,0 -0.893693,0 -0.893694,0 -0.893694,0 -0.893693,0 -0.893694,0 -0.893694,0 -0.893693,0 -0.893694,0 -0.893694,0 -0.893694,0 -0.893693,0 -0.893694,0 -0.893694,0 -0.893693,0 -0.893694,0 -0.893694,0 -0.893693,0 -0.893694,0 -0.893694,0 -0.893693,0 -0.893694,0 -0.893694,0 -0.893694,0 -0.893693,0 -0.893694,0 -0.893694,0 -0.893693,0 -0.893694,0 -0.893694,0 -0.893693,0 -0.893694,0 -0.893694,0 -0.893693,0 -0.893694,0 -0.893694,0 -0.893694,0 -0.893693,0 -0.893694,0 -0.893694,0 -0.893693,0 -0.893694,0 -0.893694,0 -0.893693,0 -0.893694,0 -0.893694,0 -0.893693,0 -0.893694,0 -0.893694,0 -0.893694,0 -0.893693,0 -0.893694,0 -0.893694,0 -0.893693,0 -0.893694,0 -0.893694,0 -0.893693,0 -0.893694,0 -0.893694,0 -0.893693,0 -0.893694,0 -0.893694,0 -0.893694,0 -0.223424,0 z" style="fill:gray;fill-opacity:.5;fill-rule:nonzero;stroke:gray;stroke-width:1;stroke-linecap:butt;stroke-linejoin:round;stroke-miterlimit:10;stroke-dasharray:none;stroke-opacity:.5"/></g></g><g id="g28"><g id="g30" clip-path="url(#clipPath32)"><g id="g36" transform="translate(242.44675,261.64195)"><g id="g38"><g id="g40" clip-path="url(#clipPath42)"><path id="path46" d="m 0,-2.236068 c 0.593012,0 1.161816,0.235606 1.581139,0.654929 C 2.000462,-1.161816 2.236068,-0.593012 2.236068,0 c 0,0.593012 -0.235606,1.161816 -0.654929,1.581139 C 1.161816,2.000462 0.593012,2.236068 0,2.236068 c -0.593012,0 -1.161816,-0.235606 -1.581139,-0.654929 C -2.000462,1.161816 -2.236068,0.593012 -2.236068,0 c 0,-0.593012 0.235606,-1.161816 0.654929,-1.581139 C -1.161816,-2.000462 -0.593012,-2.236068 0,-2.236068 Z" style="fill:#000;fill-opacity:1;fill-rule:nonzero;stroke:#000;stroke-width:2;stroke-linecap:butt;stroke-linejoin:round;stroke-miterlimit:10;stroke-dasharray:none;stroke-opacity:1"/></g></g><g id="g48" transform="translate(111.18744,-155.16273)"><g id="g50"><g id="g52" clip-path="url(#clipPath54)"><path id="path58" d="m 0,-2.236068 c 0.593012,0 1.161816,0.235606 1.581139,0.654929 C 2.000462,-1.161816 2.236068,-0.593012 2.236068,0 c 0,0.593012 -0.235606,1.161816 -0.654929,1.581139 C 1.161816,2.000462 0.593012,2.236068 0,2.236068 c -0.593012,0 -1.161816,-0.235606 -1.581139,-0.654929 C -2.000462,1.161816 -2.236068,0.593012 -2.236068,0 c 0,-0.593012 0.235606,-1.161816 0.654929,-1.581139 C -1.161816,-2.000462 -0.593012,-2.236068 0,-2.236068 Z" style="fill:#000;fill-opacity:1;fill-rule:nonzero;stroke:#000;stroke-width:2;stroke-linecap:butt;stroke-linejoin:round;stroke-miterlimit:10;stroke-dasharray:none;stroke-opacity:1"/></g></g><g id="g60" transform="translate(-25.512162,166.18881)"><g id="g62"><g id="g64" clip-path="url(#clipPath66)"><path id="path70" d="m 0,-2.236068 c 0.593012,0 1.161816,0.235606 1.581139,0.654929 C 2.000462,-1.161816 2.236068,-0.593012 2.236068,0 c 0,0.593012 -0.235606,1.161816 -0.654929,1.581139 C 1.161816,2.000462 0.593012,2.236068 0,2.236068 c -0.593012,0 -1.161816,-0.235606 -1.581139,-0.654929 C -2.000462,1.161816 -2.236068,0.593012 -2.236068,0 c 0,-0.593012 0.235606,-1.161816 0.654929,-1.581139 C -1.161816,-2.000462 -0.593012,-2.236068 0,-2.236068 Z" style="fill:#000;fill-opacity:1;fill-rule:nonzero;stroke:#000;stroke-width:2;stroke-linecap:butt;stroke-linejoin:round;stroke-miterlimit:10;stroke-dasharray:none;stroke-opacity:1"/></g></g><g id="g72" transform="translate(-183.742,-176.87084)"><g id="g74"><g id="g76" clip-path="url(#clipPath78)"><path id="path82" d="m 0,-2.236068 c 0.593012,0 1.161816,0.235606 1.581139,0.654929 C 2.000462,-1.161816 2.236068,-0.593012 2.236068,0 c 0,0.593012 -0.235606,1.161816 -0.654929,1.581139 C 1.161816,2.000462 0.593012,2.236068 0,2.236068 c -0.593012,0 -1.161816,-0.235606 -1.581139,-0.654929 C -2.000462,1.161816 -2.236068,0.593012 -2.236068,0 c 0,-0.593012 0.235606,-1.161816 0.654929,-1.581139 C -1.161816,-2.000462 -0.593012,-2.236068 0,-2.236068 Z" style="fill:#000;fill-opacity:1;fill-rule:nonzero;stroke:#000;stroke-width:2;stroke-linecap:butt;stroke-linejoin:round;stroke-miterlimit:10;stroke-dasharray:none;stroke-opacity:1"/></g></g><g id="g84" transform="translate(54.158981,154.4339)"><g id="g86"><g id="g88" clip-path="url(#clipPath90)"><path id="path94" d="m 0,-2.236068 c 0.593012,0 1.161816,0.235606 1.581139,0.654929 C 2.000462,-1.161816 2.236068,-0.593012 2.236068,0 c 0,0.593012 -0.235606,1.161816 -0.654929,1.581139 C 1.161816,2.000462 0.593012,2.236068 0,2.236068 c -0.593012,0 -1.161816,-0.235606 -1.581139,-0.654929 C -2.000462,1.161816 -2.236068,0.593012 -2.236068,0 c 0,-0.593012 0.235606,-1.161816 0.654929,-1.581139 C -1.161816,-2.000462 -0.593012,-2.236068 0,-2.236068 Z" style="fill:#000;fill-opacity:1;fill-rule:nonzero;stroke:#000;stroke-width:2;stroke-linecap:butt;stroke-linejoin:round;stroke-miterlimit:10;stroke-dasharray:none;stroke-opacity:1"/></g></g><g id="g96" transform="translate(71.384413,-214.41387)"><g id="g98"><g id="g100" clip-path="url(#clipPath102)"><path id="path106" d="m 0,-2.236068 c 0.593012,0 1.161816,0.235606 1.581139,0.654929 C 2.000462,-1.161816 2.236068,-0.593012 2.236068,0 c 0,0.593012 -0.235606,1.161816 -0.654929,1.581139 C 1.161816,2.000462 0.593012,2.236068 0,2.236068 c -0.593012,0 -1.161816,-0.235606 -1.581139,-0.654929 C -2.000462,1.161816 -2.236068,0.593012 -2.236068,0 c 0,-0.593012 0.235606,-1.161816 0.654929,-1.581139 C -1.161816,-2.000462 -0.593012,-2.236068 0,-2.236068 Z" style="fill:#000;fill-opacity:1;fill-rule:nonzero;stroke:#000;stroke-width:2;stroke-linecap:butt;stroke-linejoin:round;stroke-miterlimit:10;stroke-dasharray:none;stroke-opacity:1"/></g></g><g id="g108" transform="translate(61.181587,220.36302)"><g id="g110"><g id="g112" clip-path="url(#clipPath114)"><path id="path118" d="m 0,-2.236068 c 0.593012,0 1.161816,0.235606 1.581139,0.654929 C 2.000462,-1.161816 2.236068,-0.593012 2.236068,0 c 0,0.593012 -0.235606,1.161816 -0.654929,1.581139 C 1.161816,2.000462 0.593012,2.236068 0,2.236068 c -0.593012,0 -1.161816,-0.235606 -1.581139,-0.654929 C -2.000462,1.161816 -2.236068,0.593012 -2.236068,0 c 0,-0.593012 0.235606,-1.161816 0.654929,-1.581139 C -1.161816,-2.000462 -0.593012,-2.236068 0,-2.236068 Z" style="fill:#000;fill-opacity:1;fill-rule:nonzero;stroke:#000;stroke-width:2;stroke-linecap:butt;stroke-linejoin:round;stroke-miterlimit:10;stroke-dasharray:none;stroke-opacity:1"/></g></g><g id="g120" transform="translate(-42.691134,-162.82312)"><g id="g122"><g id="g124" clip-path="url(#clipPath126)"><path id="path130" d="m 0,-2.236068 c 0.593012,0 1.161816,0.235606 1.581139,0.654929 C 2.000462,-1.161816 2.236068,-0.593012 2.236068,0 c 0,0.593012 -0.235606,1.161816 -0.654929,1.581139 C 1.161816,2.000462 0.593012,2.236068 0,2.236068 c -0.593012,0 -1.161816,-0.235606 -1.581139,-0.654929 C -2.000462,1.161816 -2.236068,0.593012 -2.236068,0 c 0,-0.593012 0.235606,-1.161816 0.654929,-1.581139 C -1.161816,-2.000462 -0.593012,-2.236068 0,-2.236068 Z" style="fill:#000;fill-opacity:1;fill-rule:nonzero;stroke:#000;stroke-width:2;stroke-linecap:butt;stroke-linejoin:round;stroke-miterlimit:10;stroke-dasharray:none;stroke-opacity:1"/></g></g><g id="g132" transform="translate(52.363753,56.705687)"><g id="g134"><g id="g136" clip-path="url(#clipPath138)"><path id="path142" d="m 0,-2.236068 c 0.593012,0 1.161816,0.235606 1.581139,0.654929 C 2.000462,-1.161816 2.236068,-0.593012 2.236068,0 c 0,0.593012 -0.235606,1.161816 -0.654929,1.581139 C 1.161816,2.000462 0.593012,2.236068 0,2.236068 c -0.593012,0 -1.161816,-0.235606 -1.581139,-0.654929 C -2.000462,1.161816 -2.236068,0.593012 -2.236068,0 c 0,-0.593012 0.235606,-1.161816 0.654929,-1.581139 C -1.161816,-2.000462 -0.593012,-2.236068 0,-2.236068 Z" style="fill:#000;fill-opacity:1;fill-rule:nonzero;stroke:#000;stroke-width:2;stroke-linecap:butt;stroke-linejoin:round;stroke-miterlimit:10;stroke-dasharray:none;stroke-opacity:1"/></g></g><g id="g144" transform="translate(-1.029434,-108.24118)"><g id="g146"><g id="g148" clip-path="url(#clipPath150)"><path id="path154" d="m 0,-2.236068 c 0.593012,0 1.161816,0.235606 1.581139,0.654929 C 2.000462,-1.161816 2.236068,-0.593012 2.236068,0 c 0,0.593012 -0.235606,1.161816 -0.654929,1.581139 C 1.161816,2.000462 0.593012,2.236068 0,2.236068 c -0.593012,0 -1.161816,-0.235606 -1.581139,-0.654929 C -2.000462,1.161816 -2.236068,0.593012 -2.236068,0 c 0,-0.593012 0.235606,-1.161816 0.654929,-1.581139 C -1.161816,-2.000462 -0.593012,-2.236068 0,-2.236068 Z" style="fill:#000;fill-opacity:1;fill-rule:nonzero;stroke:#000;stroke-width:2;stroke-linecap:butt;stroke-linejoin:round;stroke-miterlimit:10;stroke-dasharray:none;stroke-opacity:1"/></g></g><g id="g156" transform="translate(-73.755269,242.68165)"><g id="g158"><g id="g160" clip-path="url(#clipPath162)"><path id="path166" d="m 0,-2.236068 c 0.593012,0 1.161816,0.235606 1.581139,0.654929 C 2.000462,-1.161816 2.236068,-0.593012 2.236068,0 c 0,0.593012 -0.235606,1.161816 -0.654929,1.581139 C 1.161816,2.000462 0.593012,2.236068 0,2.236068 c -0.593012,0 -1.161816,-0.235606 -1.581139,-0.654929 C -2.000462,1.161816 -2.236068,0.593012 -2.236068,0 c 0,-0.593012 0.235606,-1.161816 0.654929,-1.581139 C -1.161816,-2.000462 -0.593012,-2.236068 0,-2.236068 Z" style="fill:#000;fill-opacity:1;fill-rule:nonzero;stroke:#000;stroke-width:2;stroke-linecap:butt;stroke-linejoin:round;stroke-miterlimit:10;stroke-dasharray:none;stroke-opacity:1"/></g></g><g id="g168" transform="translate(134.3746,-133.89661)"><g id="g170"><g id="g172" clip-path="url(#clipPath174)"><path id="path178" d="m 0,-2.236068 c 0.593012,0 1.161816,0.235606 1.581139,0.654929 C 2.000462,-1.161816 2.236068,-0.593012 2.236068,0 c 0,0.593012 -0.235606,1.161816 -0.654929,1.581139 C 1.161816,2.000462 0.593012,2.236068 0,2.236068 c -0.593012,0 -1.161816,-0.235606 -1.581139,-0.654929 C -2.000462,1.161816 -2.236068,0.593012 -2.236068,0 c 0,-0.593012 0.235606,-1.161816 0.654929,-1.581139 C -1.161816,-2.000462 -0.593012,-2.236068 0,-2.236068 Z" style="fill:#000;fill-opacity:1;fill-rule:nonzero;stroke:#000;stroke-width:2;stroke-linecap:butt;stroke-linejoin:round;stroke-miterlimit:10;stroke-dasharray:none;stroke-opacity:1"/></g></g><g id="g180" transform="translate(-158.51567,68.05205)"><g id="g182"><g id="g184" clip-path="url(#clipPath186)"><path id="path190" d="m 0,-2.236068 c 0.593012,0 1.161816,0.235606 1.581139,0.654929 C 2.000462,-1.161816 2.236068,-0.593012 2.236068,0 c 0,0.593012 -0.235606,1.161816 -0.654929,1.581139 C 1.161816,2.000462 0.593012,2.236068 0,2.236068 c -0.593012,0 -1.161816,-0.235606 -1.581139,-0.654929 C -2.000462,1.161816 -2.236068,0.593012 -2.236068,0 c 0,-0.593012 0.235606,-1.161816 0.654929,-1.581139 C -1.161816,-2.000462 -0.593012,-2.236068 0,-2.236068 Z" style="fill:#000;fill-opacity:1;fill-rule:nonzero;stroke:#000;stroke-width:2;stroke-linecap:butt;stroke-linejoin:round;stroke-miterlimit:10;stroke-dasharray:none;stroke-opacity:1"/></g></g><g id="g192" transform="translate(-1.4268649,67.18093)"><g id="g194"><g id="g196" clip-path="url(#clipPath198)"><path id="path202" d="m 0,-2.236068 c 0.593012,0 1.161816,0.235606 1.581139,0.654929 C 2.000462,-1.161816 2.236068,-0.593012 2.236068,0 c 0,0.593012 -0.235606,1.161816 -0.654929,1.581139 C 1.161816,2.000462 0.593012,2.236068 0,2.236068 c -0.593012,0 -1.161816,-0.235606 -1.581139,-0.654929 C -2.000462,1.161816 -2.236068,0.593012 -2.236068,0 c 0,-0.593012 0.235606,-1.161816 0.654929,-1.581139 C -1.161816,-2.000462 -0.593012,-2.236068 0,-2.236068 Z" style="fill:#000;fill-opacity:1;fill-rule:nonzero;stroke:#000;stroke-width:2;stroke-linecap:butt;stroke-linejoin:round;stroke-miterlimit:10;stroke-dasharray:none;stroke-opacity:1"/></g></g><g id="g204" transform="translate(-85.26512,-197.13326)"><g id="g206"><g id="g208" clip-path="url(#clipPath210)"><path id="path214" d="m 0,-2.236068 c 0.593012,0 1.161816,0.235606 1.581139,0.654929 C 2.000462,-1.161816 2.236068,-0.593012 2.236068,0 c 0,0.593012 -0.235606,1.161816 -0.654929,1.581139 C 1.161816,2.000462 0.593012,2.236068 0,2.236068 c -0.593012,0 -1.161816,-0.235606 -1.581139,-0.654929 C -2.000462,1.161816 -2.236068,0.593012 -2.236068,0 c 0,-0.593012 0.235606,-1.161816 0.654929,-1.581139 C -1.161816,-2.000462 -0.593012,-2.236068 0,-2.236068 Z" style="fill:#000;fill-opacity:1;fill-rule:nonzero;stroke:#000;stroke-width:2;stroke-linecap:butt;stroke-linejoin:round;stroke-miterlimit:10;stroke-dasharray:none;stroke-opacity:1"/></g></g><g id="g216" transform="translate(118.66376,57.840921)"><g id="g218"><g id="g220" clip-path="url(#clipPath222)"><path id="path226" d="m 0,-2.236068 c 0.593012,0 1.161816,0.235606 1.581139,0.654929 C 2.000462,-1.161816 2.236068,-0.593012 2.236068,0 c 0,0.593012 -0.235606,1.161816 -0.654929,1.581139 C 1.161816,2.000462 0.593012,2.236068 0,2.236068 c -0.593012,0 -1.161816,-0.235606 -1.581139,-0.654929 C -2.000462,1.161816 -2.236068,0.593012 -2.236068,0 c 0,-0.593012 0.235606,-1.161816 0.654929,-1.581139 C -1.161816,-2.000462 -0.593012,-2.236068 0,-2.236068 Z" style="fill:#000;fill-opacity:1;fill-rule:nonzero;stroke:#000;stroke-width:2;stroke-linecap:butt;stroke-linejoin:round;stroke-miterlimit:10;stroke-dasharray:none;stroke-opacity:1"/></g></g><g id="g228" transform="translate(-168.26289,-105.44165)"><g id="g230"><g id="g232" clip-path="url(#clipPath234)"><path id="path238" d="m 0,-2.236068 c 0.593012,0 1.161816,0.235606 1.581139,0.654929 C 2.000462,-1.161816 2.236068,-0.593012 2.236068,0 c 0,0.593012 -0.235606,1.161816 -0.654929,1.581139 C 1.161816,2.000462 0.593012,2.236068 0,2.236068 c -0.593012,0 -1.161816,-0.235606 -1.581139,-0.654929 C -2.000462,1.161816 -2.236068,0.593012 -2.236068,0 c 0,-0.593012 0.235606,-1.161816 0.654929,-1.581139 C -1.161816,-2.000462 -0.593012,-2.236068 0,-2.236068 Z" style="fill:#000;fill-opacity:1;fill-rule:nonzero;stroke:#000;stroke-width:2;stroke-linecap:butt;stroke-linejoin:round;stroke-miterlimit:10;stroke-dasharray:none;stroke-opacity:1"/></g></g><g id="g240" transform="translate(132.37037,99.019609)"><g id="g242"><g id="g244" clip-path="url(#clipPath246)"><path id="path250" d="m 0,-2.236068 c 0.593012,0 1.161816,0.235606 1.581139,0.654929 C 2.000462,-1.161816 2.236068,-0.593012 2.236068,0 c 0,0.593012 -0.235606,1.161816 -0.654929,1.581139 C 1.161816,2.000462 0.593012,2.236068 0,2.236068 c -0.593012,0 -1.161816,-0.235606 -1.581139,-0.654929 C -2.000462,1.161816 -2.236068,0.593012 -2.236068,0 c 0,-0.593012 0.235606,-1.161816 0.654929,-1.581139 C -1.161816,-2.000462 -0.593012,-2.236068 0,-2.236068 Z" style="fill:#000;fill-opacity:1;fill-rule:nonzero;stroke:#000;stroke-width:2;stroke-linecap:butt;stroke-linejoin:round;stroke-miterlimit:10;stroke-dasharray:none;stroke-opacity:1"/></g></g><g id="g252" transform="translate(73.030804,-19.459324)"><g id="g254"><g id="g256" clip-path="url(#clipPath258)"><path id="path262" d="m 0,-2.236068 c 0.593012,0 1.161816,0.235606 1.581139,0.654929 C 2.000462,-1.161816 2.236068,-0.593012 2.236068,0 c 0,0.593012 -0.235606,1.161816 -0.654929,1.581139 C 1.161816,2.000462 0.593012,2.236068 0,2.236068 c -0.593012,0 -1.161816,-0.235606 -1.581139,-0.654929 C -2.000462,1.161816 -2.236068,0.593012 -2.236068,0 c 0,-0.593012 0.235606,-1.161816 0.654929,-1.581139 C -1.161816,-2.000462 -0.593012,-2.236068 0,-2.236068 Z" style="fill:#000;fill-opacity:1;fill-rule:nonzero;stroke:#000;stroke-width:2;stroke-linecap:butt;stroke-linejoin:round;stroke-miterlimit:10;stroke-dasharray:none;stroke-opacity:1"/></g></g><g id="g264" transform="translate(-224.71273,-71.6226)"><g id="g266"><g id="g268" clip-path="url(#clipPath270)"><path id="path274" d="m 0,-2.236068 c 0.593012,0 1.161816,0.235606 1.581139,0.654929 C 2.000462,-1.161816 2.236068,-0.593012 2.236068,0 c 0,0.593012 -0.235606,1.161816 -0.654929,1.581139 C 1.161816,2.000462 0.593012,2.236068 0,2.236068 c -0.593012,0 -1.161816,-0.235606 -1.581139,-0.654929 C -2.000462,1.161816 -2.236068,0.593012 -2.236068,0 c 0,-0.593012 0.235606,-1.161816 0.654929,-1.581139 C -1.161816,-2.000462 -0.593012,-2.236068 0,-2.236068 Z" style="fill:#000;fill-opacity:1;fill-rule:nonzero;stroke:#000;stroke-width:2;stroke-linecap:butt;stroke-linejoin:round;stroke-miterlimit:10;stroke-dasharray:none;stroke-opacity:1"/></g></g><g id="g276" transform="translate(205.41826,118.92786)"><g id="g278"><g id="g280" clip-path="url(#clipPath282)"><path id="path286" d="m 0,-2.236068 c 0.593012,0 1.161816,0.235606 1.581139,0.654929 C 2.000462,-1.161816 2.236068,-0.593012 2.236068,0 c 0,0.593012 -0.235606,1.161816 -0.654929,1.581139 C 1.161816,2.000462 0.593012,2.236068 0,2.236068 c -0.593012,0 -1.161816,-0.235606 -1.581139,-0.654929 C -2.000462,1.161816 -2.236068,0.593012 -2.236068,0 c 0,-0.593012 0.235606,-1.161816 0.654929,-1.581139 C -1.161816,-2.000462 -0.593012,-2.236068 0,-2.236068 Z" style="fill:#000;fill-opacity:1;fill-rule:nonzero;stroke:#000;stroke-width:2;stroke-linecap:butt;stroke-linejoin:round;stroke-miterlimit:10;stroke-dasharray:none;stroke-opacity:1"/></g></g><g id="g288" transform="translate(-21.657641,134.0712)"><g id="g290"><g id="g292" clip-path="url(#clipPath294)"><path id="path298" d="m 0,-2.236068 c 0.593012,0 1.161816,0.235606 1.581139,0.654929 C 2.000462,-1.161816 2.236068,-0.593012 2.236068,0 c 0,0.593012 -0.235606,1.161816 -0.654929,1.581139 C 1.161816,2.000462 0.593012,2.236068 0,2.236068 c -0.593012,0 -1.161816,-0.235606 -1.581139,-0.654929 C -2.000462,1.161816 -2.236068,0.593012 -2.236068,0 c 0,-0.593012 0.235606,-1.161816 0.654929,-1.581139 C -1.161816,-2.000462 -0.593012,-2.236068 0,-2.236068 Z" style="fill:#000;fill-opacity:1;fill-rule:nonzero;stroke:#000;stroke-width:2;stroke-linecap:butt;stroke-linejoin:round;stroke-miterlimit:10;stroke-dasharray:none;stroke-opacity:1"/></g></g><g id="g300" transform="translate(107.41237,-262.24989)"><g id="g302"><g id="g304" clip-path="url(#clipPath306)"><path id="path310" d="m 0,-2.236068 c 0.593012,0 1.161816,0.235606 1.581139,0.654929 C 2.000462,-1.161816 2.236068,-0.593012 2.236068,0 c 0,0.593012 -0.235606,1.161816 -0.654929,1.581139 C 1.161816,2.000462 0.593012,2.236068 0,2.236068 c -0.593012,0 -1.161816,-0.235606 -1.581139,-0.654929 C -2.000462,1.161816 -2.236068,0.593012 -2.236068,0 c 0,-0.593012 0.235606,-1.161816 0.654929,-1.581139 C -1.161816,-2.000462 -0.593012,-2.236068 0,-2.236068 Z" style="fill:#000;fill-opacity:1;fill-rule:nonzero;stroke:#000;stroke-width:2;stroke-linecap:butt;stroke-linejoin:round;stroke-miterlimit:10;stroke-dasharray:none;stroke-opacity:1"/></g></g></g></g></g></g></g></g></g></g></g></g></g></g></g></g></g></g></g></g></g></g></g></g></g></g></g><g id="g314"><g id="g316" clip-path="url(#clipPath318)"><g id="g322" transform="translate(475.35645,152.07538)"><g id="g324"><g id="g326" clip-path="url(#clipPath328)"><path id="path332" d="m 0,-2.236068 c 0.593012,0 1.161816,0.235606 1.581139,0.654929 C 2.000462,-1.161816 2.236068,-0.593012 2.236068,0 c 0,0.593012 -0.235606,1.161816 -0.654929,1.581139 C 1.161816,2.000462 0.593012,2.236068 0,2.236068 c -0.593012,0 -1.161816,-0.235606 -1.581139,-0.654929 C -2.000462,1.161816 -2.236068,0.593012 -2.236068,0 c 0,-0.593012 0.235606,-1.161816 0.654929,-1.581139 C -1.161816,-2.000462 -0.593012,-2.236068 0,-2.236068 Z" style="fill:brown;fill-opacity:1;fill-rule:nonzero;stroke:brown;stroke-width:2;stroke-linecap:butt;stroke-linejoin:round;stroke-miterlimit:10;stroke-dasharray:none;stroke-opacity:1"/></g></g><g id="g334" transform="translate(-30.929936,87.514395)"><g id="g336"><g id="g338" clip-path="url(#clipPath340)"><path id="path344" d="m 0,-2.236068 c 0.593012,0 1.161816,0.235606 1.581139,0.654929 C 2.000462,-1.161816 2.236068,-0.593012 2.236068,0 c 0,0.593012 -0.235606,1.161816 -0.654929,1.581139 C 1.161816,2.000462 0.593012,2.236068 0,2.236068 c -0.593012,0 -1.161816,-0.235606 -1.581139,-0.654929 C -2.000462,1.161816 -2.236068,0.593012 -2.236068,0 c 0,-0.593012 0.235606,-1.161816 0.654929,-1.581139 C -1.161816,-2.000462 -0.593012,-2.236068 0,-2.236068 Z" style="fill:brown;fill-opacity:1;fill-rule:nonzero;stroke:brown;stroke-width:2;stroke-linecap:butt;stroke-linejoin:round;stroke-miterlimit:10;stroke-dasharray:none;stroke-opacity:1"/></g></g><g id="g346" transform="translate(-347.55254,85.968047)"><g id="g348"><g id="g350" clip-path="url(#clipPath352)"><path id="path356" d="m 0,-2.236068 c 0.593012,0 1.161816,0.235606 1.581139,0.654929 C 2.000462,-1.161816 2.236068,-0.593012 2.236068,0 c 0,0.593012 -0.235606,1.161816 -0.654929,1.581139 C 1.161816,2.000462 0.593012,2.236068 0,2.236068 c -0.593012,0 -1.161816,-0.235606 -1.581139,-0.654929 C -2.000462,1.161816 -2.236068,0.593012 -2.236068,0 c 0,-0.593012 0.235606,-1.161816 0.654929,-1.581139 C -1.161816,-2.000462 -0.593012,-2.236068 0,-2.236068 Z" style="fill:brown;fill-opacity:1;fill-rule:nonzero;stroke:brown;stroke-width:2;stroke-linecap:butt;stroke-linejoin:round;stroke-miterlimit:10;stroke-dasharray:none;stroke-opacity:1"/></g></g><g id="g358" transform="translate(370.50851,-194.0842)"><g id="g360"><g id="g362" clip-path="url(#clipPath364)"><path id="path368" d="m 0,-2.236068 c 0.593012,0 1.161816,0.235606 1.581139,0.654929 C 2.000462,-1.161816 2.236068,-0.593012 2.236068,0 c 0,0.593012 -0.235606,1.161816 -0.654929,1.581139 C 1.161816,2.000462 0.593012,2.236068 0,2.236068 c -0.593012,0 -1.161816,-0.235606 -1.581139,-0.654929 C -2.000462,1.161816 -2.236068,0.593012 -2.236068,0 c 0,-0.593012 0.235606,-1.161816 0.654929,-1.581139 C -1.161816,-2.000462 -0.593012,-2.236068 0,-2.236068 Z" style="fill:brown;fill-opacity:1;fill-rule:nonzero;stroke:brown;stroke-width:2;stroke-linecap:butt;stroke-linejoin:round;stroke-miterlimit:10;stroke-dasharray:none;stroke-opacity:1"/></g></g><g id="g370" transform="translate(-373.43565,100.81067)"><g id="g372"><g id="g374" clip-path="url(#clipPath376)"><path id="path380" d="m 0,-2.236068 c 0.593012,0 1.161816,0.235606 1.581139,0.654929 C 2.000462,-1.161816 2.236068,-0.593012 2.236068,0 c 0,0.593012 -0.235606,1.161816 -0.654929,1.581139 C 1.161816,2.000462 0.593012,2.236068 0,2.236068 c -0.593012,0 -1.161816,-0.235606 -1.581139,-0.654929 C -2.000462,1.161816 -2.236068,0.593012 -2.236068,0 c 0,-0.593012 0.235606,-1.161816 0.654929,-1.581139 C -1.161816,-2.000462 -0.593012,-2.236068 0,-2.236068 Z" style="fill:brown;fill-opacity:1;fill-rule:nonzero;stroke:brown;stroke-width:2;stroke-linecap:butt;stroke-linejoin:round;stroke-miterlimit:10;stroke-dasharray:none;stroke-opacity:1"/></g></g><g id="g382" transform="translate(371.17358,-182.7723)"><g id="g384"><g id="g386" clip-path="url(#clipPath388)"><path id="path392" d="m 0,-2.236068 c 0.593012,0 1.161816,0.235606 1.581139,0.654929 C 2.000462,-1.161816 2.236068,-0.593012 2.236068,0 c 0,0.593012 -0.235606,1.161816 -0.654929,1.581139 C 1.161816,2.000462 0.593012,2.236068 0,2.236068 c -0.593012,0 -1.161816,-0.235606 -1.581139,-0.654929 C -2.000462,1.161816 -2.236068,0.593012 -2.236068,0 c 0,-0.593012 0.235606,-1.161816 0.654929,-1.581139 C -1.161816,-2.000462 -0.593012,-2.236068 0,-2.236068 Z" style="fill:brown;fill-opacity:1;fill-rule:nonzero;stroke:brown;stroke-width:2;stroke-linecap:butt;stroke-linejoin:round;stroke-miterlimit:10;stroke-dasharray:none;stroke-opacity:1"/></g></g><g id="g394" transform="translate(-374.67498,266.17978)"><g id="g396"><g id="g398" clip-path="url(#clipPath400)"><path id="path404" d="m 0,-2.236068 c 0.593012,0 1.161816,0.235606 1.581139,0.654929 C 2.000462,-1.161816 2.236068,-0.593012 2.236068,0 c 0,0.593012 -0.235606,1.161816 -0.654929,1.581139 C 1.161816,2.000462 0.593012,2.236068 0,2.236068 c -0.593012,0 -1.161816,-0.235606 -1.581139,-0.654929 C -2.000462,1.161816 -2.236068,0.593012 -2.236068,0 c 0,-0.593012 0.235606,-1.161816 0.654929,-1.581139 C -1.161816,-2.000462 -0.593012,-2.236068 0,-2.236068 Z" style="fill:brown;fill-opacity:1;fill-rule:nonzero;stroke:brown;stroke-width:2;stroke-linecap:butt;stroke-linejoin:round;stroke-miterlimit:10;stroke-dasharray:none;stroke-opacity:1"/></g></g><g id="g406" transform="translate(-44.343854,-190.71827)"><g id="g408"><g id="g410" clip-path="url(#clipPath412)"><path id="path416" d="m 0,-2.236068 c 0.593012,0 1.161816,0.235606 1.581139,0.654929 C 2.000462,-1.161816 2.236068,-0.593012 2.236068,0 c 0,0.593012 -0.235606,1.161816 -0.654929,1.581139 C 1.161816,2.000462 0.593012,2.236068 0,2.236068 c -0.593012,0 -1.161816,-0.235606 -1.581139,-0.654929 C -2.000462,1.161816 -2.236068,0.593012 -2.236068,0 c 0,-0.593012 0.235606,-1.161816 0.654929,-1.581139 C -1.161816,-2.000462 -0.593012,-2.236068 0,-2.236068 Z" style="fill:brown;fill-opacity:1;fill-rule:nonzero;stroke:brown;stroke-width:2;stroke-linecap:butt;stroke-linejoin:round;stroke-miterlimit:10;stroke-dasharray:none;stroke-opacity:1"/></g></g><g id="g418" transform="translate(326.35029,186.8425)"><g id="g420"><g id="g422" clip-path="url(#clipPath424)"><path id="path428" d="m 0,-2.236068 c 0.593012,0 1.161816,0.235606 1.581139,0.654929 C 2.000462,-1.161816 2.236068,-0.593012 2.236068,0 c 0,0.593012 -0.235606,1.161816 -0.654929,1.581139 C 1.161816,2.000462 0.593012,2.236068 0,2.236068 c -0.593012,0 -1.161816,-0.235606 -1.581139,-0.654929 C -2.000462,1.161816 -2.236068,0.593012 -2.236068,0 c 0,-0.593012 0.235606,-1.161816 0.654929,-1.581139 C -1.161816,-2.000462 -0.593012,-2.236068 0,-2.236068 Z" style="fill:brown;fill-opacity:1;fill-rule:nonzero;stroke:brown;stroke-width:2;stroke-linecap:butt;stroke-linejoin:round;stroke-miterlimit:10;stroke-dasharray:none;stroke-opacity:1"/></g></g><g id="g430" transform="translate(41.290099,-21.102574)"><g id="g432"><g id="g434" clip-path="url(#clipPath436)"><path id="path440" d="m 0,-2.236068 c 0.593012,0 1.161816,0.235606 1.581139,0.654929 C 2.000462,-1.161816 2.236068,-0.593012 2.236068,0 c 0,0.593012 -0.235606,1.161816 -0.654929,1.581139 C 1.161816,2.000462 0.593012,2.236068 0,2.236068 c -0.593012,0 -1.161816,-0.235606 -1.581139,-0.654929 C -2.000462,1.161816 -2.236068,0.593012 -2.236068,0 c 0,-0.593012 0.235606,-1.161816 0.654929,-1.581139 C -1.161816,-2.000462 -0.593012,-2.236068 0,-2.236068 Z" style="fill:brown;fill-opacity:1;fill-rule:nonzero;stroke:brown;stroke-width:2;stroke-linecap:butt;stroke-linejoin:round;stroke-miterlimit:10;stroke-dasharray:none;stroke-opacity:1"/></g></g><g id="g442" transform="translate(28.017918,-21.23465)"><g id="g444"><g id="g446" clip-path="url(#clipPath448)"><path id="path452" d="m 0,-2.236068 c 0.593012,0 1.161816,0.235606 1.581139,0.654929 C 2.000462,-1.161816 2.236068,-0.593012 2.236068,0 c 0,0.593012 -0.235606,1.161816 -0.654929,1.581139 C 1.161816,2.000462 0.593012,2.236068 0,2.236068 c -0.593012,0 -1.161816,-0.235606 -1.581139,-0.654929 C -2.000462,1.161816 -2.236068,0.593012 -2.236068,0 c 0,-0.593012 0.235606,-1.161816 0.654929,-1.581139 C -1.161816,-2.000462 -0.593012,-2.236068 0,-2.236068 Z" style="fill:brown;fill-opacity:1;fill-rule:nonzero;stroke:brown;stroke-width:2;stroke-linecap:butt;stroke-linejoin:round;stroke-miterlimit:10;stroke-dasharray:none;stroke-opacity:1"/></g></g><g id="g454" transform="translate(29.827021,-18.990685)"><g id="g456"><g id="g458" clip-path="url(#clipPath460)"><path id="path464" d="m 0,-2.236068 c 0.593012,0 1.161816,0.235606 1.581139,0.654929 C 2.000462,-1.161816 2.236068,-0.593012 2.236068,0 c 0,0.593012 -0.235606,1.161816 -0.654929,1.581139 C 1.161816,2.000462 0.593012,2.236068 0,2.236068 c -0.593012,0 -1.161816,-0.235606 -1.581139,-0.654929 C -2.000462,1.161816 -2.236068,0.593012 -2.236068,0 c 0,-0.593012 0.235606,-1.161816 0.654929,-1.581139 C -1.161816,-2.000462 -0.593012,-2.236068 0,-2.236068 Z" style="fill:brown;fill-opacity:1;fill-rule:nonzero;stroke:brown;stroke-width:2;stroke-linecap:butt;stroke-linejoin:round;stroke-miterlimit:10;stroke-dasharray:none;stroke-opacity:1"/></g></g><g id="g466" transform="translate(-12.100968,1.7434457)"><g id="g468"><g id="g470" clip-path="url(#clipPath472)"><path id="path476" d="m 0,-2.236068 c 0.593012,0 1.161816,0.235606 1.581139,0.654929 C 2.000462,-1.161816 2.236068,-0.593012 2.236068,0 c 0,0.593012 -0.235606,1.161816 -0.654929,1.581139 C 1.161816,2.000462 0.593012,2.236068 0,2.236068 c -0.593012,0 -1.161816,-0.235606 -1.581139,-0.654929 C -2.000462,1.161816 -2.236068,0.593012 -2.236068,0 c 0,-0.593012 0.235606,-1.161816 0.654929,-1.581139 C -1.161816,-2.000462 -0.593012,-2.236068 0,-2.236068 Z" style="fill:brown;fill-opacity:1;fill-rule:nonzero;stroke:brown;stroke-width:2;stroke-linecap:butt;stroke-linejoin:round;stroke-miterlimit:10;stroke-dasharray:none;stroke-opacity:1"/></g></g><g id="g478" transform="translate(-385.28627,43.708739)"><g id="g480"><g id="g482" clip-path="url(#clipPath484)"><path id="path488" d="m 0,-2.236068 c 0.593012,0 1.161816,0.235606 1.581139,0.654929 C 2.000462,-1.161816 2.236068,-0.593012 2.236068,0 c 0,0.593012 -0.235606,1.161816 -0.654929,1.581139 C 1.161816,2.000462 0.593012,2.236068 0,2.236068 c -0.593012,0 -1.161816,-0.235606 -1.581139,-0.654929 C -2.000462,1.161816 -2.236068,0.593012 -2.236068,0 c 0,-0.593012 0.235606,-1.161816 0.654929,-1.581139 C -1.161816,-2.000462 -0.593012,-2.236068 0,-2.236068 Z" style="fill:brown;fill-opacity:1;fill-rule:nonzero;stroke:brown;stroke-width:2;stroke-linecap:butt;stroke-linejoin:round;stroke-miterlimit:10;stroke-dasharray:none;stroke-opacity:1"/></g></g><g id="g490" transform="translate(370.51276,-66.213567)"><g id="g492"><g id="g494" clip-path="url(#clipPath496)"><path id="path500" d="m 0,-2.236068 c 0.593012,0 1.161816,0.235606 1.581139,0.654929 C 2.000462,-1.161816 2.236068,-0.593012 2.236068,0 c 0,0.593012 -0.235606,1.161816 -0.654929,1.581139 C 1.161816,2.000462 0.593012,2.236068 0,2.236068 c -0.593012,0 -1.161816,-0.235606 -1.581139,-0.654929 C -2.000462,1.161816 -2.236068,0.593012 -2.236068,0 c 0,-0.593012 0.235606,-1.161816 0.654929,-1.581139 C -1.161816,-2.000462 -0.593012,-2.236068 0,-2.236068 Z" style="fill:brown;fill-opacity:1;fill-rule:nonzero;stroke:brown;stroke-width:2;stroke-linecap:butt;stroke-linejoin:round;stroke-miterlimit:10;stroke-dasharray:none;stroke-opacity:1"/></g></g><g id="g502" transform="translate(-274.43396,105.1458)"><g id="g504"><g id="g506" clip-path="url(#clipPath508)"><path id="path512" d="m 0,-2.236068 c 0.593012,0 1.161816,0.235606 1.581139,0.654929 C 2.000462,-1.161816 2.236068,-0.593012 2.236068,0 c 0,0.593012 -0.235606,1.161816 -0.654929,1.581139 C 1.161816,2.000462 0.593012,2.236068 0,2.236068 c -0.593012,0 -1.161816,-0.235606 -1.581139,-0.654929 C -2.000462,1.161816 -2.236068,0.593012 -2.236068,0 c 0,-0.593012 0.235606,-1.161816 0.654929,-1.581139 C -1.161816,-2.000462 -0.593012,-2.236068 0,-2.236068 Z" style="fill:brown;fill-opacity:1;fill-rule:nonzero;stroke:brown;stroke-width:2;stroke-linecap:butt;stroke-linejoin:round;stroke-miterlimit:10;stroke-dasharray:none;stroke-opacity:1"/></g></g><g id="g514" transform="translate(-121.52981,-84.043964)"><g id="g516"><g id="g518" clip-path="url(#clipPath520)"><path id="path524" d="m 0,-2.236068 c 0.593012,0 1.161816,0.235606 1.581139,0.654929 C 2.000462,-1.161816 2.236068,-0.593012 2.236068,0 c 0,0.593012 -0.235606,1.161816 -0.654929,1.581139 C 1.161816,2.000462 0.593012,2.236068 0,2.236068 c -0.593012,0 -1.161816,-0.235606 -1.581139,-0.654929 C -2.000462,1.161816 -2.236068,0.593012 -2.236068,0 c 0,-0.593012 0.235606,-1.161816 0.654929,-1.581139 C -1.161816,-2.000462 -0.593012,-2.236068 0,-2.236068 Z" style="fill:brown;fill-opacity:1;fill-rule:nonzero;stroke:brown;stroke-width:2;stroke-linecap:butt;stroke-linejoin:round;stroke-miterlimit:10;stroke-dasharray:none;stroke-opacity:1"/></g></g></g></g></g></g></g></g></g></g></g></g></g></g></g></g></g></g></g></g></g><g id="g526"><g id="g528" clip-path="url(#clipPath530)"><path id="path534" d="m -1,337.00682 485.89375,0 0,0" style="fill:none;stroke:green;stroke-width:2;stroke-linecap:square;stroke-linejoin:round;stroke-miterlimit:10;stroke-dasharray:none;stroke-opacity:1"/></g></g><g id="g536"><g id="g538" clip-path="url(#clipPath540)"><path id="path544" d="m 19.508129,-1 40.500936,89.050427 11.618018,24.882933 10.724325,22.43821 8.936937,18.21433 8.936935,17.69725 8.04325,15.42752 7.14954,13.27414 7.14955,12.82572 7.14955,12.34483 6.25586,10.38267 6.25585,9.97042 6.25586,9.53887 6.25586,9.08881 5.36216,7.41884 5.36216,7.06467 5.36216,6.70044 5.36216,6.32668 5.36217,5.9439 4.46847,4.65473 4.46847,4.37842 4.46846,4.09779 4.46847,3.8131 4.46847,3.52464 4.46847,3.23269 4.46847,2.93756 4.46846,2.63951 4.46847,2.33885 4.46847,2.03589 3.57478,1.4092 3.57477,1.21312 3.57478,1.01627 3.57477,0.81877 3.57478,0.62076 3.57477,0.42235 3.57478,0.22367 3.57477,0.0249 3.57477,-0.17398 3.57478,-0.3727 3.57477,-0.57119 3.57478,-0.76931 3.57477,-0.96695 3.57478,-1.16397 3.57477,-1.36027 3.57478,-1.55569 4.46847,-2.21793 4.46847,-2.51954 4.46846,-2.81867 4.46847,-3.11501 4.46847,-3.40826 4.46847,-3.69815 4.46847,-3.98439 4.46847,-4.26667 4.46846,-4.54474 4.46847,-4.81832 5.36217,-6.13639 5.36216,-6.51472 5.36216,-6.88378 5.36216,-7.24304 5.36216,-7.59199 6.25586,-9.2839 6.25586,-9.72613 6.25585,-10.14951 6.25586,-10.55323 7.14955,-12.52889 7.14955,-12.99774 7.14955,-13.43369 8.04324,-15.59161 8.93694,-17.85982 8.93693,-18.3555 9.83063,-20.67688 11.61802,-24.960884 14.2991,-31.26599 21.82883,-48.209207 0,0" style="fill:none;stroke:#00f;stroke-width:2;stroke-linecap:square;stroke-linejoin:round;stroke-miterlimit:10;stroke-dasharray:none;stroke-opacity:1"/></g></g><g id="g546"><path id="path548" d="m 30.29375,22.825 0,345.6" style="fill:none;stroke:#000;stroke-width:1;stroke-linecap:square;stroke-linejoin:miter;stroke-miterlimit:10;stroke-dasharray:none;stroke-opacity:1"/><path id="path550" d="m 476.69375,22.825 0,345.6" style="fill:none;stroke:#000;stroke-width:1;stroke-linecap:square;stroke-linejoin:miter;stroke-miterlimit:10;stroke-dasharray:none;stroke-opacity:1"/><path id="path552" d="m 30.29375,22.825 446.4,0" style="fill:none;stroke:#000;stroke-width:1;stroke-linecap:square;stroke-linejoin:miter;stroke-miterlimit:10;stroke-dasharray:none;stroke-opacity:1"/><path id="path554" d="m 30.29375,368.425 446.4,0" style="fill:none;stroke:#000;stroke-width:1;stroke-linecap:square;stroke-linejoin:miter;stroke-miterlimit:10;stroke-dasharray:none;stroke-opacity:1"/><path id="path556" d="m 30.29375,22.825 0,4" style="fill:#000;fill-opacity:1;fill-rule:nonzero;stroke:#000;stroke-width:.5;stroke-linecap:butt;stroke-linejoin:round;stroke-miterlimit:10;stroke-dasharray:none;stroke-opacity:1"/><path id="path558" d="m 30.29375,368.425 0,-4" style="fill:#000;fill-opacity:1;fill-rule:nonzero;stroke:#000;stroke-width:.5;stroke-linecap:butt;stroke-linejoin:round;stroke-miterlimit:10;stroke-dasharray:none;stroke-opacity:1"/><text id="text560" transform="matrix(1,0,0,-1,20.746875,9.7)" style="font-variant:normal;font-weight:400;font-size:12px;font-family:'Bitstream Vera Sans';-inkscape-font-specification:BitstreamVeraSans-Roman;writing-mode:lr-tb;fill:#000;fill-opacity:1;fill-rule:nonzero;stroke:none"><tspan id="tspan562" x="0 7.632 11.448" y="0">0.0</tspan></text><path id="path564" d="m 101.34052,22.825 0,4" style="fill:#000;fill-opacity:1;fill-rule:nonzero;stroke:#000;stroke-width:.5;stroke-linecap:butt;stroke-linejoin:round;stroke-miterlimit:10;stroke-dasharray:none;stroke-opacity:1"/><path id="path566" d="m 101.34052,368.425 0,-4" style="fill:#000;fill-opacity:1;fill-rule:nonzero;stroke:#000;stroke-width:.5;stroke-linecap:butt;stroke-linejoin:round;stroke-miterlimit:10;stroke-dasharray:none;stroke-opacity:1"/><text id="text568" transform="matrix(1,0,0,-1,91.793642,9.7)" style="font-variant:normal;font-weight:400;font-size:12px;font-family:'Bitstream Vera Sans';-inkscape-font-specification:BitstreamVeraSans-Roman;writing-mode:lr-tb;fill:#000;fill-opacity:1;fill-rule:nonzero;stroke:none"><tspan id="tspan570" x="0 7.632 11.448" y="0">0.5</tspan></text><path id="path572" d="m 172.38728,22.825 0,4" style="fill:#000;fill-opacity:1;fill-rule:nonzero;stroke:#000;stroke-width:.5;stroke-linecap:butt;stroke-linejoin:round;stroke-miterlimit:10;stroke-dasharray:none;stroke-opacity:1"/><path id="path574" d="m 172.38728,368.425 0,-4" style="fill:#000;fill-opacity:1;fill-rule:nonzero;stroke:#000;stroke-width:.5;stroke-linecap:butt;stroke-linejoin:round;stroke-miterlimit:10;stroke-dasharray:none;stroke-opacity:1"/><text id="text576" transform="matrix(1,0,0,-1,162.84041,9.7)" style="font-variant:normal;font-weight:400;font-size:12px;font-family:'Bitstream Vera Sans';-inkscape-font-specification:BitstreamVeraSans-Roman;writing-mode:lr-tb;fill:#000;fill-opacity:1;fill-rule:nonzero;stroke:none"><tspan id="tspan578" x="0 7.632 11.448" y="0">1.0</tspan></text><path id="path580" d="m 243.43405,22.825 0,4" style="fill:#000;fill-opacity:1;fill-rule:nonzero;stroke:#000;stroke-width:.5;stroke-linecap:butt;stroke-linejoin:round;stroke-miterlimit:10;stroke-dasharray:none;stroke-opacity:1"/><path id="path582" d="m 243.43405,368.425 0,-4" style="fill:#000;fill-opacity:1;fill-rule:nonzero;stroke:#000;stroke-width:.5;stroke-linecap:butt;stroke-linejoin:round;stroke-miterlimit:10;stroke-dasharray:none;stroke-opacity:1"/><text id="text584" transform="matrix(1,0,0,-1,233.88717,9.7)" style="font-variant:normal;font-weight:400;font-size:12px;font-family:'Bitstream Vera Sans';-inkscape-font-specification:BitstreamVeraSans-Roman;writing-mode:lr-tb;fill:#000;fill-opacity:1;fill-rule:nonzero;stroke:none"><tspan id="tspan586" x="0 7.632 11.448" y="0">1.5</tspan></text><path id="path588" d="m 314.48082,22.825 0,4" style="fill:#000;fill-opacity:1;fill-rule:nonzero;stroke:#000;stroke-width:.5;stroke-linecap:butt;stroke-linejoin:round;stroke-miterlimit:10;stroke-dasharray:none;stroke-opacity:1"/><path id="path590" d="m 314.48082,368.425 0,-4" style="fill:#000;fill-opacity:1;fill-rule:nonzero;stroke:#000;stroke-width:.5;stroke-linecap:butt;stroke-linejoin:round;stroke-miterlimit:10;stroke-dasharray:none;stroke-opacity:1"/><text id="text592" transform="matrix(1,0,0,-1,304.93394,9.7)" style="font-variant:normal;font-weight:400;font-size:12px;font-family:'Bitstream Vera Sans';-inkscape-font-specification:BitstreamVeraSans-Roman;writing-mode:lr-tb;fill:#000;fill-opacity:1;fill-rule:nonzero;stroke:none"><tspan id="tspan594" x="0 7.632 11.448" y="0">2.0</tspan></text><path id="path596" d="m 385.52758,22.825 0,4" style="fill:#000;fill-opacity:1;fill-rule:nonzero;stroke:#000;stroke-width:.5;stroke-linecap:butt;stroke-linejoin:round;stroke-miterlimit:10;stroke-dasharray:none;stroke-opacity:1"/><path id="path598" d="m 385.52758,368.425 0,-4" style="fill:#000;fill-opacity:1;fill-rule:nonzero;stroke:#000;stroke-width:.5;stroke-linecap:butt;stroke-linejoin:round;stroke-miterlimit:10;stroke-dasharray:none;stroke-opacity:1"/><text id="text600" transform="matrix(1,0,0,-1,375.98071,9.7)" style="font-variant:normal;font-weight:400;font-size:12px;font-family:'Bitstream Vera Sans';-inkscape-font-specification:BitstreamVeraSans-Roman;writing-mode:lr-tb;fill:#000;fill-opacity:1;fill-rule:nonzero;stroke:none"><tspan id="tspan602" x="0 7.632 11.448" y="0">2.5</tspan></text><path id="path604" d="m 456.57435,22.825 0,4" style="fill:#000;fill-opacity:1;fill-rule:nonzero;stroke:#000;stroke-width:.5;stroke-linecap:butt;stroke-linejoin:round;stroke-miterlimit:10;stroke-dasharray:none;stroke-opacity:1"/><path id="path606" d="m 456.57435,368.425 0,-4" style="fill:#000;fill-opacity:1;fill-rule:nonzero;stroke:#000;stroke-width:.5;stroke-linecap:butt;stroke-linejoin:round;stroke-miterlimit:10;stroke-dasharray:none;stroke-opacity:1"/><text id="text608" transform="matrix(1,0,0,-1,447.02747,9.7)" style="font-variant:normal;font-weight:400;font-size:12px;font-family:'Bitstream Vera Sans';-inkscape-font-specification:BitstreamVeraSans-Roman;writing-mode:lr-tb;fill:#000;fill-opacity:1;fill-rule:nonzero;stroke:none"><tspan id="tspan610" x="0 7.632 11.448" y="0">3.0</tspan></text><path id="path612" d="m 30.29375,22.825 4,0" style="fill:#000;fill-opacity:1;fill-rule:nonzero;stroke:#000;stroke-width:.5;stroke-linecap:butt;stroke-linejoin:round;stroke-miterlimit:10;stroke-dasharray:none;stroke-opacity:1"/><path id="path614" d="m 476.69375,22.825 -4,0" style="fill:#000;fill-opacity:1;fill-rule:nonzero;stroke:#000;stroke-width:.5;stroke-linecap:butt;stroke-linejoin:round;stroke-miterlimit:10;stroke-dasharray:none;stroke-opacity:1"/><text id="text616" transform="matrix(1,0,0,-1,7.2,19.5125)" style="font-variant:normal;font-weight:400;font-size:12px;font-family:'Bitstream Vera Sans';-inkscape-font-specification:BitstreamVeraSans-Roman;writing-mode:lr-tb;fill:#000;fill-opacity:1;fill-rule:nonzero;stroke:none"><tspan id="tspan618" x="0 7.632 11.448" y="0">0.0</tspan></text><path id="path620" d="m 30.29375,85.661364 4,0" style="fill:#000;fill-opacity:1;fill-rule:nonzero;stroke:#000;stroke-width:.5;stroke-linecap:butt;stroke-linejoin:round;stroke-miterlimit:10;stroke-dasharray:none;stroke-opacity:1"/><path id="path622" d="m 476.69375,85.661364 -4,0" style="fill:#000;fill-opacity:1;fill-rule:nonzero;stroke:#000;stroke-width:.5;stroke-linecap:butt;stroke-linejoin:round;stroke-miterlimit:10;stroke-dasharray:none;stroke-opacity:1"/><text id="text624" transform="matrix(1,0,0,-1,7.2,82.348864)" style="font-variant:normal;font-weight:400;font-size:12px;font-family:'Bitstream Vera Sans';-inkscape-font-specification:BitstreamVeraSans-Roman;writing-mode:lr-tb;fill:#000;fill-opacity:1;fill-rule:nonzero;stroke:none"><tspan id="tspan626" x="0 7.632 11.448" y="0">0.2</tspan></text><path id="path628" d="m 30.29375,148.49773 4,0" style="fill:#000;fill-opacity:1;fill-rule:nonzero;stroke:#000;stroke-width:.5;stroke-linecap:butt;stroke-linejoin:round;stroke-miterlimit:10;stroke-dasharray:none;stroke-opacity:1"/><path id="path630" d="m 476.69375,148.49773 -4,0" style="fill:#000;fill-opacity:1;fill-rule:nonzero;stroke:#000;stroke-width:.5;stroke-linecap:butt;stroke-linejoin:round;stroke-miterlimit:10;stroke-dasharray:none;stroke-opacity:1"/><text id="text632" transform="matrix(1,0,0,-1,7.2,145.18523)" style="font-variant:normal;font-weight:400;font-size:12px;font-family:'Bitstream Vera Sans';-inkscape-font-specification:BitstreamVeraSans-Roman;writing-mode:lr-tb;fill:#000;fill-opacity:1;fill-rule:nonzero;stroke:none"><tspan id="tspan634" x="0 7.632 11.448" y="0">0.4</tspan></text><path id="path636" d="m 30.29375,211.33409 4,0" style="fill:#000;fill-opacity:1;fill-rule:nonzero;stroke:#000;stroke-width:.5;stroke-linecap:butt;stroke-linejoin:round;stroke-miterlimit:10;stroke-dasharray:none;stroke-opacity:1"/><path id="path638" d="m 476.69375,211.33409 -4,0" style="fill:#000;fill-opacity:1;fill-rule:nonzero;stroke:#000;stroke-width:.5;stroke-linecap:butt;stroke-linejoin:round;stroke-miterlimit:10;stroke-dasharray:none;stroke-opacity:1"/><text id="text640" transform="matrix(1,0,0,-1,7.2,208.02159)" style="font-variant:normal;font-weight:400;font-size:12px;font-family:'Bitstream Vera Sans';-inkscape-font-specification:BitstreamVeraSans-Roman;writing-mode:lr-tb;fill:#000;fill-opacity:1;fill-rule:nonzero;stroke:none"><tspan id="tspan642" x="0 7.632 11.448" y="0">0.6</tspan></text><path id="path644" d="m 30.29375,274.17045 4,0" style="fill:#000;fill-opacity:1;fill-rule:nonzero;stroke:#000;stroke-width:.5;stroke-linecap:butt;stroke-linejoin:round;stroke-miterlimit:10;stroke-dasharray:none;stroke-opacity:1"/><path id="path646" d="m 476.69375,274.17045 -4,0" style="fill:#000;fill-opacity:1;fill-rule:nonzero;stroke:#000;stroke-width:.5;stroke-linecap:butt;stroke-linejoin:round;stroke-miterlimit:10;stroke-dasharray:none;stroke-opacity:1"/><text id="text648" transform="matrix(1,0,0,-1,7.2,270.85795)" style="font-variant:normal;font-weight:400;font-size:12px;font-family:'Bitstream Vera Sans';-inkscape-font-specification:BitstreamVeraSans-Roman;writing-mode:lr-tb;fill:#000;fill-opacity:1;fill-rule:nonzero;stroke:none"><tspan id="tspan650" x="0 7.632 11.448" y="0">0.8</tspan></text><path id="path652" d="m 30.29375,337.00682 4,0" style="fill:#000;fill-opacity:1;fill-rule:nonzero;stroke:#000;stroke-width:.5;stroke-linecap:butt;stroke-linejoin:round;stroke-miterlimit:10;stroke-dasharray:none;stroke-opacity:1"/><path id="path654" d="m 476.69375,337.00682 -4,0" style="fill:#000;fill-opacity:1;fill-rule:nonzero;stroke:#000;stroke-width:.5;stroke-linecap:butt;stroke-linejoin:round;stroke-miterlimit:10;stroke-dasharray:none;stroke-opacity:1"/><text id="text656" transform="matrix(1,0,0,-1,7.2,333.69432)" style="font-variant:normal;font-weight:400;font-size:12px;font-family:'Bitstream Vera Sans';-inkscape-font-specification:BitstreamVeraSans-Roman;writing-mode:lr-tb;fill:#000;fill-opacity:1;fill-rule:nonzero;stroke:none"><tspan id="tspan658" x="0 7.632 11.448" y="0">1.0</tspan></text></g></g></svg>