<svg xmlns="http://www.w3.org/2000/svg" xmlns:svg="http://www.w3.org/2000/svg" id="svg2" width="604.867" height="469.531" version="1.1" viewBox="0 0 604.867 469.531" xml:space="preserve"><metadata id="metadata8"/><defs id="defs6"><clipPath id="clipPath20" clipPathUnits="userSpaceOnUse"><path id="path22" d="m 30.29375,22.825 446.4,0 0,345.6 -446.4,0 0,-345.6 z"/></clipPath><clipPath id="clipPath32" clipPathUnits="userSpaceOnUse"><path id="path34" d="m 30.29375,22.825 446.4,0 0,345.6 -446.4,0 0,-345.6 z"/></clipPath><clipPath id="clipPath42" clipPathUnits="userSpaceOnUse"><path id="path44" d="m -5.236068,-5.236068 10.472136,0 0,10.472136 -10.472136,0 0,-10.472136 z"/></clipPath><clipPath id="clipPath54" clipPathUnits="userSpaceOnUse"><path id="path56" d="m -5.236068,-5.236068 10.472136,0 0,10.472136 -10.472136,0 0,-10.472136 z"/></clipPath><clipPath id="clipPath66" clipPathUnits="userSpaceOnUse"><path id="path68" d="m -5.236068,-5.236068 10.472136,0 0,10.472136 -10.472136,0 0,-10.472136 z"/></clipPath><clipPath id="clipPath78" clipPathUnits="userSpaceOnUse"><path id="path80" d="m -5.236068,-5.236068 10.472136,0 0,10.472136 -10.472136,0 0,-10.472136 z"/></clipPath><clipPath id="clipPath90" clipPathUnits="userSpaceOnUse"><path id="path92" d="m -5.236068,-5.236068 10.472136,0 0,10.472136 -10.472136,0 0,-10.472136 z"/></clipPath><clipPath id="clipPath102" clipPathUnits="userSpaceOnUse"><path id="path104" d="m -5.236068,-5.236068 10.472136,0 0,10.472136 -10.472136,0 0,-10.472136 z"/></clipPath><clipPath id="clipPath114" clipPathUnits="userSpaceOnUse"><path id="path116" d="m -5.236068,-5.236068 10.472136,0 0,10.472136 -10.472136,0 0,-10.472136 z"/></clipPath><clipPath id="clipPath126" clipPathUnits="userSpaceOnUse"><path id="path128" d="m -5.236068,-5.236068 10.472136,0 0,10.472136 -10.472136,0 0,-10.472136 z"/></clipPath><clipPath id="clipPath138" clipPathUnits="userSpaceOnUse"><path id="path140" d="m -5.236068,-5.236068 10.472136,0 0,10.472136 -10.472136,0 0,-10.472136 z"/></clipPath><clipPath id="clipPath150" clipPathUnits="userSpaceOnUse"><path id="path152" d="m -5.236068,-5.236068 10.472136,0 0,10.472136 -10.472136,0 0,-10.472136 z"/></clipPath><clipPath id="clipPath162" clipPathUnits="userSpaceOnUse"><path id="path164" d="m -5.236068,-5.236068 10.472136,0 0,10.472136 -10.472136,0 0,-10.472136 z"/></clipPath><clipPath id="clipPath174" clipPathUnits="userSpaceOnUse"><path id="path176" d="m -5.236068,-5.236068 10.472136,0 0,10.472136 -10.472136,0 0,-10.472136 z"/></clipPath><clipPath id="clipPath186" clipPathUnits="userSpaceOnUse"><path id="path188" d="m -5.236068,-5.236068 10.472136,0 0,10.472136 -10.472136,0 0,-10.472136 z"/></clipPath><clipPath id="clipPath198" clipPathUnits="userSpaceOnUse"><path id="path200" d="m -5.236068,-5.236068 10.472136,0 0,10.472136 -10.472136,0 0,-10.472136 z"/></clipPath><clipPath id="clipPath210" clipPathUnits="userSpaceOnUse"><path id="path212" d="m -5.236068,-5.236068 10.472136,0 0,10.472136 -10.472136,0 0,-10.472136 z"/></clipPath><clipPath id="clipPath222" clipPathUnits="userSpaceOnUse"><path id="path224" d="m -5.236068,-5.236068 10.472136,0 0,10.472136 -10.472136,0 0,-10.472136 z"/></clipPath><clipPath id="clipPath234" clipPathUnits="userSpaceOnUse"><path id="path236" d="m -5.236068,-5.236068 10.472136,0 0,10.472136 -10.472136,0 0,-10.472136 z"/></clipPath><clipPath id="clipPath246" clipPathUnits="userSpaceOnUse"><path id="path248" d="m -5.236068,-5.236068 10.472136,0 0,10.472136 -10.472136,0 0,-10.472136 z"/></clipPath><clipPath id="clipPath258" clipPathUnits="userSpaceOnUse"><path id="path260" d="m -5.236068,-5.236068 10.472136,0 0,10.472136 -10.472136,0 0,-10.472136 z"/></clipPath><clipPath id="clipPath270" clipPathUnits="userSpaceOnUse"><path id="path272" d="m -5.236068,-5.236068 10.472136,0 0,10.472136 -10.472136,0 0,-10.472136 z"/></clipPath><clipPath id="clipPath282" clipPathUnits="userSpaceOnUse"><path id="path284" d="m 30.29375,22.825 446.4,0 0,345.6 -446.4,0 0,-345.6 z"/></clipPath><clipPath id="clipPath292" clipPathUnits="userSpaceOnUse"><path id="path294" d="m -5.236068,-5.236068 10.472136,0 0,10.472136 -10.472136,0 0,-10.472136 z"/></clipPath><clipPath id="clipPath304" clipPathUnits="userSpaceOnUse"><path id="path306" d="m -5.236068,-5.236068 10.472136,0 0,10.472136 -10.472136,0 0,-10.472136 z"/></clipPath><clipPath id="clipPath316" clipPathUnits="userSpaceOnUse"><path id="path318" d="m -5.236068,-5.236068 10.472136,0 0,10.472136 -10.472136,0 0,-10.472136 z"/></clipPath><clipPath id="clipPath328" clipPathUnits="userSpaceOnUse"><path id="path330" d="m -5.236068,-5.236068 10.472136,0 0,10.472136 -10.472136,0 0,-10.472136 z"/></clipPath><clipPath id="clipPath340" clipPathUnits="userSpaceOnUse"><path id="path342" d="m -5.236068,-5.236068 10.472136,0 0,10.472136 -10.472136,0 0,-10.472136 z"/></clipPath><clipPath id="clipPath352" clipPathUnits="userSpaceOnUse"><path id="path354" d="m -5.236068,-5.236068 10.472136,0 0,10.472136 -10.472136,0 0,-10.472136 z"/></clipPath><clipPath id="clipPath364" clipPathUnits="userSpaceOnUse"><path id="path366" d="m 30.29375,22.825 446.4,0 0,345.6 -446.4,0 0,-345.6 z"/></clipPath><clipPath id="clipPath374" clipPathUnits="userSpaceOnUse"><path id="path376" d="m -5.236068,-5.236068 10.472136,0 0,10.472136 -10.472136,0 0,-10.472136 z"/></clipPath><clipPath id="clipPath386" clipPathUnits="userSpaceOnUse"><path id="path388" d="m -5.236068,-5.236068 10.472136,0 0,10.472136 -10.472136,0 0,-10.472136 z"/></clipPath><clipPath id="clipPath398" clipPathUnits="userSpaceOnUse"><path id="path400" d="m -5.236068,-5.236068 10.472136,0 0,10.472136 -10.472136,0 0,-10.472136 z"/></clipPath><clipPath id="clipPath410" clipPathUnits="userSpaceOnUse"><path id="path412" d="m -5.236068,-5.236068 10.472136,0 0,10.472136 -10.472136,0 0,-10.472136 z"/></clipPath><clipPath id="clipPath422" clipPathUnits="userSpaceOnUse"><path id="path424" d="m -5.236068,-5.236068 10.472136,0 0,10.472136 -10.472136,0 0,-10.472136 z"/></clipPath><clipPath id="clipPath434" clipPathUnits="userSpaceOnUse"><path id="path436" d="m -5.236068,-5.236068 10.472136,0 0,10.472136 -10.472136,0 0,-10.472136 z"/></clipPath><clipPath id="clipPath446" clipPathUnits="userSpaceOnUse"><path id="path448" d="m -5.236068,-5.236068 10.472136,0 0,10.472136 -10.472136,0 0,-10.472136 z"/></clipPath><clipPath id="clipPath458" clipPathUnits="userSpaceOnUse"><path id="path460" d="m -5.236068,-5.236068 10.472136,0 0,10.472136 -10.472136,0 0,-10.472136 z"/></clipPath><clipPath id="clipPath470" clipPathUnits="userSpaceOnUse"><path id="path472" d="m -5.236068,-5.236068 10.472136,0 0,10.472136 -10.472136,0 0,-10.472136 z"/></clipPath><clipPath id="clipPath482" clipPathUnits="userSpaceOnUse"><path id="path484" d="m -5.236068,-5.236068 10.472136,0 0,10.472136 -10.472136,0 0,-10.472136 z"/></clipPath><clipPath id="clipPath494" clipPathUnits="userSpaceOnUse"><path id="path496" d="m -5.236068,-5.236068 10.472136,0 0,10.472136 -10.472136,0 0,-10.472136 z"/></clipPath><clipPath id="clipPath506" clipPathUnits="userSpaceOnUse"><path id="path508" d="m -5.236068,-5.236068 10.472136,0 0,10.472136 -10.472136,0 0,-10.472136 z"/></clipPath><clipPath id="clipPath518" clipPathUnits="userSpaceOnUse"><path id="path520" d="m -5.236068,-5.236068 10.472136,0 0,10.472136 -10.472136,0 0,-10.472136 z"/></clipPath><clipPath id="clipPath530" clipPathUnits="userSpaceOnUse"><path id="path532" d="m -5.236068,-5.236068 10.472136,0 0,10.472136 -10.472136,0 0,-10.472136 z"/></clipPath><clipPath id="clipPath540" clipPathUnits="userSpaceOnUse"><path id="path542" d="m 30.29375,22.825 446.4,0 0,345.6 -446.4,0 0,-345.6 z"/></clipPath><clipPath id="clipPath550" clipPathUnits="userSpaceOnUse"><path id="path552" d="m 30.29375,22.825 446.4,0 0,345.6 -446.4,0 0,-345.6 z"/></clipPath><clipPath id="clipPath560" clipPathUnits="userSpaceOnUse"><path id="path562" d="m 30.29375,22.825 446.4,0 0,345.6 -446.4,0 0,-345.6 z"/></clipPath></defs><g id="g10" transform="matrix(1.25,0,0,-1.25,0,469.53125)"><path id="path12" d="m 0,0 483.89375,0 0,375.625 L 0,375.625 0,0 Z" style="fill:#fff;fill-opacity:1;fill-rule:nonzero;stroke:none"/><path id="path14" d="m 30.29375,22.825 446.4,0 0,345.6 -446.4,0 0,-345.6 z" style="fill:#fff;fill-opacity:1;fill-rule:nonzero;stroke:none"/><g id="g16"><g id="g18" clip-path="url(#clipPath20)"><path id="path24" d="m 30.293749,22.825 0.223424,0.494009 0.893694,1.976014 0.893694,1.975916 0.893694,1.975739 0.893693,1.975486 0.893694,1.975154 0.893694,1.974743 0.893693,1.974255 0.893694,1.973688 0.893694,1.973044 0.893693,1.972321 0.893694,1.971521 0.893694,1.970642 0.893693,1.969685 0.893694,1.968651 0.893694,1.967538 0.893694,1.966348 0.893693,1.96508 0.893694,1.963735 0.893694,1.962311 0.893693,1.96081 0.893694,1.959231 0.893694,1.957575 0.893693,1.955842 0.893694,1.954031 0.893694,1.952142 0.893693,1.950177 0.893694,1.948135 0.893694,1.946015 0.893694,1.943818 0.893693,1.941545 0.893694,1.939195 0.893694,1.936767 0.893693,1.934264 0.893694,1.931684 0.893694,1.929027 0.893693,1.926294 0.893694,1.923485 0.893694,1.9206 0.893693,1.917639 0.893694,1.914604 0.893694,1.91149 0.893694,1.9083 0.893693,1.90504 0.893694,1.90169 0.893694,1.89829 0.893693,1.89479 0.893694,1.89123 0.893694,1.88759 0.893693,1.88388 0.893694,1.88009 0.893694,1.87622 0.893693,1.87229 0.893694,1.86827 0.893694,1.8642 0.893694,1.86003 0.893693,1.8558 0.893694,1.8515 0.893694,1.84711 0.893693,1.84267 0.893694,1.83814 0.893694,1.83354 0.893693,1.82887 0.893694,1.82413 0.893694,1.81931 0.893694,1.81443 0.893693,1.80947 0.893694,1.80444 0.893694,1.79933 0.893693,1.79417 0.893694,1.78892 0.893694,1.78361 0.893693,1.77822 0.893694,1.77277 0.893694,1.76724 0.893693,1.76165 0.893694,1.75598 0.893694,1.75025 0.893692,1.74444 0.89369,1.73857 0.8937,1.73263 0.89369,1.72662 0.8937,1.72054 0.89369,1.7144 0.89369,1.70818 0.8937,1.7019 0.89369,1.69555 0.8937,1.68913 0.89369,1.68266 0.89369,1.6761 0.8937,1.66949 0.89369,1.6628 0.89369,1.65606 0.8937,1.64924 0.89369,1.64237 0.89369,1.63542 0.8937,1.62841 0.89369,1.62135 0.8937,1.6142 0.89369,1.60701 0.89369,1.59974 0.8937,1.59241 0.89369,1.58503 0.89369,1.57757 0.8937,1.57005 0.89369,1.56248 0.8937,1.55484 0.89369,1.54714 0.89369,1.53937 0.8937,1.53156 0.89369,1.52367 0.89369,1.51572 0.8937,1.50773 0.89369,1.49965 0.89369,1.49154 0.8937,1.48336 0.89369,1.47511 0.8937,1.46682 0.89369,1.45846 0.89369,1.45004 0.8937,1.44157 0.89369,1.43305 0.89369,1.42446 0.8937,1.41582 0.89369,1.40712 0.89369,1.39836 0.8937,1.38956 0.89369,1.38069 0.8937,1.37178 0.89369,1.3628 0.89369,1.35378 0.8937,1.34469 0.89369,1.33557 0.8937,1.32637 0.89369,1.31714 0.89369,1.30785 0.8937,1.2985 0.89369,1.28911 0.89369,1.27967 0.8937,1.27017 0.89369,1.26063 0.89369,1.25103 0.8937,1.24138 0.89369,1.23169 0.89369,1.22195 0.8937,1.21216 0.89369,1.20232 0.8937,1.19243 0.89369,1.18249 0.89369,1.17252 0.8937,1.16249 0.89369,1.15242 0.8937,1.14229 0.89369,1.13214 0.89369,1.12192 0.8937,1.11168 0.89369,1.10137 0.89369,1.09104 0.8937,1.08065 0.89369,1.07023 0.89369,1.05975 0.8937,1.04925 0.89369,1.03869 0.89369,1.02811 0.8937,1.01746 0.89369,1.0068 0.8937,0.99608 0.89369,0.98532 0.89369,0.97453 0.8937,0.96371 0.89369,0.95283 0.89369,0.94193 0.8937,0.93098 0.89369,0.92 0.8937,0.90899 0.89369,0.89793 0.89369,0.88684 0.8937,0.87572 0.89369,0.86456 0.8937,0.85337 0.89369,0.84214 0.89369,0.83088 0.8937,0.81959 0.89369,0.80827 0.89369,0.79691 0.8937,0.78552 0.89369,0.7741 0.89369,0.76265 0.8937,0.75117 0.89369,0.73966 0.89369,0.72812 0.8937,0.71655 0.89369,0.70495 0.8937,0.69334 0.89369,0.68168 0.89369,0.67 0.8937,0.65829 0.89369,0.64657 0.89369,0.63481 0.8937,0.62302 0.89369,0.61122 0.8937,0.59939 0.89369,0.58753 0.89369,0.57566 0.8937,0.56376 0.89369,0.55183 0.89369,0.53989 0.8937,0.52792 0.89369,0.51594 0.89369,0.50393 0.8937,0.4919 0.89369,0.47985 0.8937,0.46779 0.89369,0.45571 0.89369,0.4436 0.8937,0.43148 0.89369,0.41935 0.89369,0.40719 0.8937,0.39503 0.89369,0.38284 0.8937,0.37063 0.89369,0.35843 0.89369,0.34619 0.8937,0.33395 0.89369,0.3217 0.89369,0.30943 0.8937,0.29714 0.89369,0.28485 0.8937,0.27255 0.89369,0.26024 0.89369,0.24791 0.8937,0.23557 0.89369,0.22323 0.89369,0.21088 0.8937,0.19852 0.89369,0.18614 0.89369,0.17377 0.8937,0.16139 0.89369,0.149 0.8937,0.1366 0.89369,0.1242 0.89369,0.11179 0.8937,0.0994 0.89369,0.087 0.8937,0.0745 0.89369,0.0621 0.89369,0.0497 0.8937,0.0373 0.89369,0.0249 0.89369,0.0124 0.8937,0 0.89369,-0.0124 0.89369,-0.0249 0.8937,-0.0373 0.89369,-0.0497 0.89369,-0.0621 0.8937,-0.0745 0.89369,-0.087 0.8937,-0.0994 0.89369,-0.11179 0.89369,-0.1242 0.8937,-0.1366 0.89369,-0.149 0.89369,-0.16139 0.8937,-0.17377 0.89369,-0.18614 0.8937,-0.19852 0.89369,-0.21088 0.89369,-0.22323 0.8937,-0.23557 0.89369,-0.24791 0.89369,-0.26024 0.8937,-0.27255 0.89369,-0.28485 0.8937,-0.29714 0.89369,-0.30943 0.89369,-0.3217 0.8937,-0.33395 0.89369,-0.34619 0.89369,-0.35843 0.8937,-0.37063 0.89369,-0.38284 0.89369,-0.39503 0.8937,-0.40719 0.89369,-0.41935 0.8937,-0.43148 0.89369,-0.4436 0.89369,-0.45571 0.8937,-0.46779 0.89369,-0.47985 0.89369,-0.4919 0.8937,-0.50393 0.89369,-0.51594 0.8937,-0.52792 0.89369,-0.53989 0.89369,-0.55183 0.8937,-0.56376 0.89369,-0.57566 0.89369,-0.58753 0.8937,-0.59939 0.89369,-0.61122 0.89369,-0.62302 0.8937,-0.63481 0.89369,-0.64657 0.8937,-0.65829 0.89369,-0.67 0.89369,-0.68168 0.8937,-0.69334 0.89369,-0.70495 0.89369,-0.71655 0.8937,-0.72812 0.89369,-0.73966 0.8937,-0.75117 0.89369,-0.76265 0.89369,-0.7741 0.8937,-0.78552 0.89369,-0.79691 0.89369,-0.80827 0.8937,-0.81959 0.89369,-0.83088 0.89369,-0.84214 0.8937,-0.85337 0.89369,-0.86456 0.8937,-0.87572 0.89369,-0.88684 0.89369,-0.89793 0.8937,-0.90899 0.89369,-0.92 0.89369,-0.93098 0.8937,-0.94193 0.89369,-0.95283 0.8937,-0.96371 0.89369,-0.97453 0.89369,-0.98532 0.8937,-0.99608 0.89369,-1.0068 0.89369,-1.01746 0.8937,-1.02811 0.89369,-1.03869 0.8937,-1.04925 0.89369,-1.05975 0.89369,-1.07023 0.8937,-1.08065 0.89369,-1.09104 0.89369,-1.10137 0.8937,-1.11168 0.89369,-1.12192 0.8937,-1.13214 0.89369,-1.14229 0.89369,-1.15242 0.8937,-1.16249 0.89369,-1.17252 0.89369,-1.18249 0.8937,-1.19243 0.89369,-1.20232 0.89369,-1.21216 0.8937,-1.22195 0.89369,-1.23169 0.8937,-1.24138 0.89369,-1.25103 0.89369,-1.26063 0.8937,-1.27017 0.89369,-1.27967 0.89369,-1.28911 0.8937,-1.2985 0.89369,-1.30785 0.8937,-1.31714 0.89369,-1.32637 0.89369,-1.33557 0.8937,-1.34469 0.89369,-1.35378 0.89369,-1.3628 0.8937,-1.37178 0.89369,-1.38069 0.89369,-1.38956 0.8937,-1.39836 0.89369,-1.40712 0.8937,-1.41582 0.89369,-1.42446 0.89369,-1.43305 0.8937,-1.44157 0.89369,-1.45004 0.89369,-1.45846 0.8937,-1.46682 0.89369,-1.47511 0.89369,-1.48336 0.8937,-1.49154 0.89369,-1.49965 0.8937,-1.50773 0.89369,-1.51572 0.89369,-1.52367 0.8937,-1.53156 0.89369,-1.53937 0.89369,-1.54714 0.8937,-1.55484 0.89369,-1.56248 0.8937,-1.57005 0.89369,-1.57757 0.89369,-1.58503 0.8937,-1.59241 0.89369,-1.59974 0.89369,-1.60701 0.8937,-1.6142 0.89369,-1.62135 0.8937,-1.62841 0.89369,-1.63542 0.89369,-1.64237 0.8937,-1.64924 0.89369,-1.65606 0.89369,-1.6628 0.8937,-1.66949 0.89369,-1.6761 0.89369,-1.68266 0.8937,-1.68913 0.89369,-1.69555 0.8937,-1.7019 0.89369,-1.70818 0.89369,-1.7144 0.8937,-1.72054 0.89369,-1.72662 0.89369,-1.73263 0.8937,-1.73857 0.89369,-1.74444 0.8937,-1.75025 0.89369,-1.75598 0.89369,-1.76165 0.8937,-1.76724 0.89369,-1.77277 0.89369,-1.77822 0.8937,-1.78361 0.89369,-1.78892 0.89369,-1.79417 0.8937,-1.79933 0.89369,-1.80444 0.8937,-1.80947 0.89369,-1.81443 0.89369,-1.81931 0.8937,-1.82413 0.89369,-1.82887 0.89369,-1.83354 0.8937,-1.83814 0.89369,-1.84267 0.8937,-1.84711 0.89369,-1.8515 0.89369,-1.8558 0.8937,-1.86003 0.89369,-1.8642 0.89369,-1.86827 0.8937,-1.87229 0.89369,-1.87622 0.8937,-1.88009 0.89369,-1.88388 0.89369,-1.88759 0.8937,-1.89123 0.89369,-1.89479 0.89369,-1.89829 0.8937,-1.90169 0.89369,-1.90504 0.8937,-1.9083 0.89369,-1.91149 0.89369,-1.914604 0.8937,-1.917639 0.89369,-1.9206 0.89369,-1.923485 0.8937,-1.926294 0.89369,-1.929027 0.89369,-1.931684 0.8937,-1.934264 0.89369,-1.936767 0.8937,-1.939195 0.89369,-1.941545 0.89369,-1.943818 0.8937,-1.946015 0.89369,-1.948135 0.89369,-1.950177 0.8937,-1.952142 0.89369,-1.954031 0.8937,-1.955842 0.89369,-1.957575 0.89369,-1.959231 0.8937,-1.96081 0.89369,-1.962311 0.89369,-1.963735 0.8937,-1.96508 0.89369,-1.966348 0.89369,-1.967538 0.8937,-1.968651 0.89369,-1.969685 0.8937,-1.970642 0.89369,-1.971521 0.89369,-1.972321 0.8937,-1.973044 0.89369,-1.973688 0.89369,-1.974255 0.8937,-1.974743 0.89369,-1.975154 0.89369,-1.975486 0.8937,-1.975739 0.89369,-1.975916 0.8937,-1.976014 0.22342,-0.494009 -0.22342,0 -0.8937,0 -0.89369,0 -0.8937,0 -0.89369,0 -0.89369,0 -0.8937,0 -0.89369,0 -0.89369,0 -0.8937,0 -0.89369,0 -0.89369,0 -0.8937,0 -0.89369,0 -0.8937,0 -0.89369,0 -0.89369,0 -0.8937,0 -0.89369,0 -0.89369,0 -0.8937,0 -0.89369,0 -0.89369,0 -0.8937,0 -0.89369,0 -0.8937,0 -0.89369,0 -0.89369,0 -0.8937,0 -0.89369,0 -0.89369,0 -0.8937,0 -0.89369,0 -0.8937,0 -0.89369,0 -0.89369,0 -0.8937,0 -0.89369,0 -0.89369,0 -0.8937,0 -0.89369,0 -0.89369,0 -0.8937,0 -0.89369,0 -0.8937,0 -0.89369,0 -0.89369,0 -0.8937,0 -0.89369,0 -0.89369,0 -0.8937,0 -0.89369,0 -0.8937,0 -0.89369,0 -0.89369,0 -0.8937,0 -0.89369,0 -0.89369,0 -0.8937,0 -0.89369,0 -0.8937,0 -0.89369,0 -0.89369,0 -0.8937,0 -0.89369,0 -0.89369,0 -0.8937,0 -0.89369,0 -0.8937,0 -0.89369,0 -0.89369,0 -0.8937,0 -0.89369,0 -0.89369,0 -0.8937,0 -0.89369,0 -0.89369,0 -0.8937,0 -0.89369,0 -0.8937,0 -0.89369,0 -0.89369,0 -0.8937,0 -0.89369,0 -0.89369,0 -0.8937,0 -0.89369,0 -0.8937,0 -0.89369,0 -0.89369,0 -0.8937,0 -0.89369,0 -0.89369,0 -0.8937,0 -0.89369,0 -0.89369,0 -0.8937,0 -0.89369,0 -0.8937,0 -0.89369,0 -0.89369,0 -0.8937,0 -0.89369,0 -0.89369,0 -0.8937,0 -0.89369,0 -0.8937,0 -0.89369,0 -0.89369,0 -0.8937,0 -0.89369,0 -0.89369,0 -0.8937,0 -0.89369,0 -0.8937,0 -0.89369,0 -0.89369,0 -0.8937,0 -0.89369,0 -0.89369,0 -0.8937,0 -0.89369,0 -0.89369,0 -0.8937,0 -0.89369,0 -0.8937,0 -0.89369,0 -0.89369,0 -0.8937,0 -0.89369,0 -0.89369,0 -0.8937,0 -0.89369,0 -0.89369,0 -0.8937,0 -0.89369,0 -0.8937,0 -0.89369,0 -0.89369,0 -0.8937,0 -0.89369,0 -0.89369,0 -0.8937,0 -0.89369,0 -0.8937,0 -0.89369,0 -0.89369,0 -0.8937,0 -0.89369,0 -0.89369,0 -0.8937,0 -0.89369,0 -0.89369,0 -0.8937,0 -0.89369,0 -0.8937,0 -0.89369,0 -0.89369,0 -0.8937,0 -0.89369,0 -0.89369,0 -0.8937,0 -0.89369,0 -0.8937,0 -0.89369,0 -0.89369,0 -0.8937,0 -0.89369,0 -0.89369,0 -0.8937,0 -0.89369,0 -0.8937,0 -0.89369,0 -0.89369,0 -0.8937,0 -0.89369,0 -0.89369,0 -0.8937,0 -0.89369,0 -0.8937,0 -0.89369,0 -0.89369,0 -0.8937,0 -0.89369,0 -0.89369,0 -0.8937,0 -0.89369,0 -0.89369,0 -0.8937,0 -0.89369,0 -0.8937,0 -0.89369,0 -0.89369,0 -0.8937,0 -0.89369,0 -0.89369,0 -0.8937,0 -0.89369,0 -0.8937,0 -0.89369,0 -0.89369,0 -0.8937,0 -0.89369,0 -0.89369,0 -0.8937,0 -0.89369,0 -0.89369,0 -0.8937,0 -0.89369,0 -0.8937,0 -0.89369,0 -0.89369,0 -0.8937,0 -0.89369,0 -0.89369,0 -0.8937,0 -0.89369,0 -0.8937,0 -0.89369,0 -0.89369,0 -0.8937,0 -0.89369,0 -0.89369,0 -0.8937,0 -0.89369,0 -0.89369,0 -0.8937,0 -0.89369,0 -0.8937,0 -0.89369,0 -0.89369,0 -0.8937,0 -0.89369,0 -0.89369,0 -0.8937,0 -0.89369,0 -0.8937,0 -0.89369,0 -0.89369,0 -0.8937,0 -0.89369,0 -0.89369,0 -0.8937,0 -0.89369,0 -0.8937,0 -0.89369,0 -0.89369,0 -0.8937,0 -0.89369,0 -0.89369,0 -0.8937,0 -0.89369,0 -0.89369,0 -0.8937,0 -0.89369,0 -0.89369,0 -0.8937,0 -0.89369,0 -0.8937,0 -0.89369,0 -0.89369,0 -0.8937,0 -0.89369,0 -0.8937,0 -0.89369,0 -0.89369,0 -0.8937,0 -0.89369,0 -0.89369,0 -0.8937,0 -0.89369,0 -0.89369,0 -0.8937,0 -0.89369,0 -0.8937,0 -0.89369,0 -0.89369,0 -0.8937,0 -0.89369,0 -0.89369,0 -0.8937,0 -0.89369,0 -0.8937,0 -0.89369,0 -0.89369,0 -0.8937,0 -0.89369,0 -0.89369,0 -0.8937,0 -0.89369,0 -0.8937,0 -0.89369,0 -0.89369,0 -0.8937,0 -0.89369,0 -0.89369,0 -0.8937,0 -0.89369,0 -0.89369,0 -0.8937,0 -0.89369,0 -0.8937,0 -0.89369,0 -0.89369,0 -0.8937,0 -0.89369,0 -0.89369,0 -0.8937,0 -0.89369,0 -0.8937,0 -0.89369,0 -0.89369,0 -0.8937,0 -0.89369,0 -0.89369,0 -0.8937,0 -0.89369,0 -0.89369,0 -0.8937,0 -0.89369,0 -0.89369,0 -0.8937,0 -0.89369,0 -0.8937,0 -0.89369,0 -0.89369,0 -0.8937,0 -0.89369,0 -0.8937,0 -0.89369,0 -0.89369,0 -0.8937,0 -0.89369,0 -0.89369,0 -0.8937,0 -0.89369,0 -0.8937,0 -0.89369,0 -0.89369,0 -0.8937,0 -0.89369,0 -0.89369,0 -0.8937,0 -0.89369,0 -0.89369,0 -0.8937,0 -0.89369,0 -0.89369,0 -0.8937,0 -0.89369,0 -0.8937,0 -0.89369,0 -0.89369,0 -0.8937,0 -0.89369,0 -0.8937,0 -0.89369,0 -0.89369,0 -0.8937,0 -0.89369,0 -0.89369,0 -0.8937,0 -0.89369,0 -0.89369,0 -0.8937,0 -0.89369,0 -0.89369,0 -0.8937,0 -0.89369,0 -0.8937,0 -0.89369,0 -0.89369,0 -0.8937,0 -0.89369,0 -0.8937,0 -0.89369,0 -0.89369,0 -0.8937,0 -0.89369,0 -0.89369,0 -0.8937,0 -0.89369,0 -0.89369,0 -0.8937,0 -0.89369,0 -0.8937,0 -0.89369,0 -0.89369,0 -0.8937,0 -0.89369,0 -0.89369,0 -0.8937,0 -0.89369,0 -0.89369,0 -0.8937,0 -0.89369,0 -0.8937,0 -0.89369,0 -0.89369,0 -0.8937,0 -0.89369,0 -0.89369,0 -0.8937,0 -0.89369,0 -0.8937,0 -0.89369,0 -0.89369,0 -0.8937,0 -0.89369,0 -0.89369,0 -0.8937,0 -0.89369,0 -0.89369,0 -0.8937,0 -0.89369,0 -0.8937,0 -0.89369,0 -0.89369,0 -0.8937,0 -0.89369,0 -0.8937,0 -0.89369,0 -0.893692,0 -0.893694,0 -0.893694,0 -0.893693,0 -0.893694,0 -0.893694,0 -0.893693,0 -0.893694,0 -0.893694,0 -0.893693,0 -0.893694,0 -0.893694,0 -0.893693,0 -0.893694,0 -0.893694,0 -0.893694,0 -0.893693,0 -0.893694,0 -0.893694,0 -0.893693,0 -0.893694,0 -0.893694,0 -0.893693,0 -0.893694,0 -0.893694,0 -0.893694,0 -0.893693,0 -0.893694,0 -0.893694,0 -0.893693,0 -0.893694,0 -0.893694,0 -0.893693,0 -0.893694,0 -0.893694,0 -0.893693,0 -0.893694,0 -0.893694,0 -0.893694,0 -0.893693,0 -0.893694,0 -0.893694,0 -0.893693,0 -0.893694,0 -0.893694,0 -0.893693,0 -0.893694,0 -0.893694,0 -0.893693,0 -0.893694,0 -0.893694,0 -0.893694,0 -0.893693,0 -0.893694,0 -0.893694,0 -0.893693,0 -0.893694,0 -0.893694,0 -0.893693,0 -0.893694,0 -0.893694,0 -0.893693,0 -0.893694,0 -0.893694,0 -0.893694,0 -0.893693,0 -0.893694,0 -0.893694,0 -0.893693,0 -0.893694,0 -0.893694,0 -0.893693,0 -0.893694,0 -0.893694,0 -0.893693,0 -0.893694,0 -0.893694,0 -0.893694,0 -0.223424,0 z" style="fill:gray;fill-opacity:.5;fill-rule:nonzero;stroke:gray;stroke-width:1;stroke-linecap:butt;stroke-linejoin:round;stroke-miterlimit:10;stroke-dasharray:none;stroke-opacity:.5"/></g></g><g id="g28"><g id="g30" clip-path="url(#clipPath32)"><g id="g36" transform="translate(308.22039,184.91586)"><g id="g38"><g id="g40" clip-path="url(#clipPath42)"><path id="path46" d="m 0,-2.236068 c 0.593012,0 1.161816,0.235606 1.581139,0.654929 C 2.000462,-1.161816 2.236068,-0.593012 2.236068,0 c 0,0.593012 -0.235606,1.161816 -0.654929,1.581139 C 1.161816,2.000462 0.593012,2.236068 0,2.236068 c -0.593012,0 -1.161816,-0.235606 -1.581139,-0.654929 C -2.000462,1.161816 -2.236068,0.593012 -2.236068,0 c 0,-0.593012 0.235606,-1.161816 0.654929,-1.581139 C -1.161816,-2.000462 -0.593012,-2.236068 0,-2.236068 Z" style="fill:green;fill-opacity:1;fill-rule:nonzero;stroke:green;stroke-width:3;stroke-linecap:butt;stroke-linejoin:round;stroke-miterlimit:10;stroke-dasharray:none;stroke-opacity:1"/></g></g><g id="g48" transform="translate(65.946181,-121.99929)"><g id="g50"><g id="g52" clip-path="url(#clipPath54)"><path id="path58" d="m 0,-2.236068 c 0.593012,0 1.161816,0.235606 1.581139,0.654929 C 2.000462,-1.161816 2.236068,-0.593012 2.236068,0 c 0,0.593012 -0.235606,1.161816 -0.654929,1.581139 C 1.161816,2.000462 0.593012,2.236068 0,2.236068 c -0.593012,0 -1.161816,-0.235606 -1.581139,-0.654929 C -2.000462,1.161816 -2.236068,0.593012 -2.236068,0 c 0,-0.593012 0.235606,-1.161816 0.654929,-1.581139 C -1.161816,-2.000462 -0.593012,-2.236068 0,-2.236068 Z" style="fill:green;fill-opacity:1;fill-rule:nonzero;stroke:green;stroke-width:3;stroke-linecap:butt;stroke-linejoin:round;stroke-miterlimit:10;stroke-dasharray:none;stroke-opacity:1"/></g></g><g id="g60" transform="translate(-37.079674,-33.935153)"><g id="g62"><g id="g64" clip-path="url(#clipPath66)"><path id="path70" d="m 0,-2.236068 c 0.593012,0 1.161816,0.235606 1.581139,0.654929 C 2.000462,-1.161816 2.236068,-0.593012 2.236068,0 c 0,0.593012 -0.235606,1.161816 -0.654929,1.581139 C 1.161816,2.000462 0.593012,2.236068 0,2.236068 c -0.593012,0 -1.161816,-0.235606 -1.581139,-0.654929 C -2.000462,1.161816 -2.236068,0.593012 -2.236068,0 c 0,-0.593012 0.235606,-1.161816 0.654929,-1.581139 C -1.161816,-2.000462 -0.593012,-2.236068 0,-2.236068 Z" style="fill:green;fill-opacity:1;fill-rule:nonzero;stroke:green;stroke-width:3;stroke-linecap:butt;stroke-linejoin:round;stroke-miterlimit:10;stroke-dasharray:none;stroke-opacity:1"/></g></g><g id="g72" transform="translate(-214.94855,21.986788)"><g id="g74"><g id="g76" clip-path="url(#clipPath78)"><path id="path82" d="m 0,-2.236068 c 0.593012,0 1.161816,0.235606 1.581139,0.654929 C 2.000462,-1.161816 2.236068,-0.593012 2.236068,0 c 0,0.593012 -0.235606,1.161816 -0.654929,1.581139 C 1.161816,2.000462 0.593012,2.236068 0,2.236068 c -0.593012,0 -1.161816,-0.235606 -1.581139,-0.654929 C -2.000462,1.161816 -2.236068,0.593012 -2.236068,0 c 0,-0.593012 0.235606,-1.161816 0.654929,-1.581139 C -1.161816,-2.000462 -0.593012,-2.236068 0,-2.236068 Z" style="fill:green;fill-opacity:1;fill-rule:nonzero;stroke:green;stroke-width:3;stroke-linecap:butt;stroke-linejoin:round;stroke-miterlimit:10;stroke-dasharray:none;stroke-opacity:1"/></g></g><g id="g84" transform="translate(69.898022,35.039724)"><g id="g86"><g id="g88" clip-path="url(#clipPath90)"><path id="path94" d="m 0,-2.236068 c 0.593012,0 1.161816,0.235606 1.581139,0.654929 C 2.000462,-1.161816 2.236068,-0.593012 2.236068,0 c 0,0.593012 -0.235606,1.161816 -0.654929,1.581139 C 1.161816,2.000462 0.593012,2.236068 0,2.236068 c -0.593012,0 -1.161816,-0.235606 -1.581139,-0.654929 C -2.000462,1.161816 -2.236068,0.593012 -2.236068,0 c 0,-0.593012 0.235606,-1.161816 0.654929,-1.581139 C -1.161816,-2.000462 -0.593012,-2.236068 0,-2.236068 Z" style="fill:green;fill-opacity:1;fill-rule:nonzero;stroke:green;stroke-width:3;stroke-linecap:butt;stroke-linejoin:round;stroke-miterlimit:10;stroke-dasharray:none;stroke-opacity:1"/></g></g><g id="g96" transform="translate(21.629208,77.859659)"><g id="g98"><g id="g100" clip-path="url(#clipPath102)"><path id="path106" d="m 0,-2.236068 c 0.593012,0 1.161816,0.235606 1.581139,0.654929 C 2.000462,-1.161816 2.236068,-0.593012 2.236068,0 c 0,0.593012 -0.235606,1.161816 -0.654929,1.581139 C 1.161816,2.000462 0.593012,2.236068 0,2.236068 c -0.593012,0 -1.161816,-0.235606 -1.581139,-0.654929 C -2.000462,1.161816 -2.236068,0.593012 -2.236068,0 c 0,-0.593012 0.235606,-1.161816 0.654929,-1.581139 C -1.161816,-2.000462 -0.593012,-2.236068 0,-2.236068 Z" style="fill:green;fill-opacity:1;fill-rule:nonzero;stroke:green;stroke-width:3;stroke-linecap:butt;stroke-linejoin:round;stroke-miterlimit:10;stroke-dasharray:none;stroke-opacity:1"/></g></g><g id="g108" transform="translate(178.12863,-40.419944)"><g id="g110"><g id="g112" clip-path="url(#clipPath114)"><path id="path118" d="m 0,-2.236068 c 0.593012,0 1.161816,0.235606 1.581139,0.654929 C 2.000462,-1.161816 2.236068,-0.593012 2.236068,0 c 0,0.593012 -0.235606,1.161816 -0.654929,1.581139 C 1.161816,2.000462 0.593012,2.236068 0,2.236068 c -0.593012,0 -1.161816,-0.235606 -1.581139,-0.654929 C -2.000462,1.161816 -2.236068,0.593012 -2.236068,0 c 0,-0.593012 0.235606,-1.161816 0.654929,-1.581139 C -1.161816,-2.000462 -0.593012,-2.236068 0,-2.236068 Z" style="fill:green;fill-opacity:1;fill-rule:nonzero;stroke:green;stroke-width:3;stroke-linecap:butt;stroke-linejoin:round;stroke-miterlimit:10;stroke-dasharray:none;stroke-opacity:1"/></g></g><g id="g120" transform="translate(-98.225591,-10.626391)"><g id="g122"><g id="g124" clip-path="url(#clipPath126)"><path id="path130" d="m 0,-2.236068 c 0.593012,0 1.161816,0.235606 1.581139,0.654929 C 2.000462,-1.161816 2.236068,-0.593012 2.236068,0 c 0,0.593012 -0.235606,1.161816 -0.654929,1.581139 C 1.161816,2.000462 0.593012,2.236068 0,2.236068 c -0.593012,0 -1.161816,-0.235606 -1.581139,-0.654929 C -2.000462,1.161816 -2.236068,0.593012 -2.236068,0 c 0,-0.593012 0.235606,-1.161816 0.654929,-1.581139 C -1.161816,-2.000462 -0.593012,-2.236068 0,-2.236068 Z" style="fill:green;fill-opacity:1;fill-rule:nonzero;stroke:green;stroke-width:3;stroke-linecap:butt;stroke-linejoin:round;stroke-miterlimit:10;stroke-dasharray:none;stroke-opacity:1"/></g></g><g id="g132" transform="translate(-120.68861,55.854243)"><g id="g134"><g id="g136" clip-path="url(#clipPath138)"><path id="path142" d="m 0,-2.236068 c 0.593012,0 1.161816,0.235606 1.581139,0.654929 C 2.000462,-1.161816 2.236068,-0.593012 2.236068,0 c 0,0.593012 -0.235606,1.161816 -0.654929,1.581139 C 1.161816,2.000462 0.593012,2.236068 0,2.236068 c -0.593012,0 -1.161816,-0.235606 -1.581139,-0.654929 C -2.000462,1.161816 -2.236068,0.593012 -2.236068,0 c 0,-0.593012 0.235606,-1.161816 0.654929,-1.581139 C -1.161816,-2.000462 -0.593012,-2.236068 0,-2.236068 Z" style="fill:green;fill-opacity:1;fill-rule:nonzero;stroke:green;stroke-width:3;stroke-linecap:butt;stroke-linejoin:round;stroke-miterlimit:10;stroke-dasharray:none;stroke-opacity:1"/></g></g><g id="g144" transform="translate(73.348647,140.75777)"><g id="g146"><g id="g148" clip-path="url(#clipPath150)"><path id="path154" d="m 0,-2.236068 c 0.593012,0 1.161816,0.235606 1.581139,0.654929 C 2.000462,-1.161816 2.236068,-0.593012 2.236068,0 c 0,0.593012 -0.235606,1.161816 -0.654929,1.581139 C 1.161816,2.000462 0.593012,2.236068 0,2.236068 c -0.593012,0 -1.161816,-0.235606 -1.581139,-0.654929 C -2.000462,1.161816 -2.236068,0.593012 -2.236068,0 c 0,-0.593012 0.235606,-1.161816 0.654929,-1.581139 C -1.161816,-2.000462 -0.593012,-2.236068 0,-2.236068 Z" style="fill:green;fill-opacity:1;fill-rule:nonzero;stroke:green;stroke-width:3;stroke-linecap:butt;stroke-linejoin:round;stroke-miterlimit:10;stroke-dasharray:none;stroke-opacity:1"/></g></g><g id="g156" transform="translate(65.591952,-271.51722)"><g id="g158"><g id="g160" clip-path="url(#clipPath162)"><path id="path166" d="m 0,-2.236068 c 0.593012,0 1.161816,0.235606 1.581139,0.654929 C 2.000462,-1.161816 2.236068,-0.593012 2.236068,0 c 0,0.593012 -0.235606,1.161816 -0.654929,1.581139 C 1.161816,2.000462 0.593012,2.236068 0,2.236068 c -0.593012,0 -1.161816,-0.235606 -1.581139,-0.654929 C -2.000462,1.161816 -2.236068,0.593012 -2.236068,0 c 0,-0.593012 0.235606,-1.161816 0.654929,-1.581139 C -1.161816,-2.000462 -0.593012,-2.236068 0,-2.236068 Z" style="fill:green;fill-opacity:1;fill-rule:nonzero;stroke:green;stroke-width:3;stroke-linecap:butt;stroke-linejoin:round;stroke-miterlimit:10;stroke-dasharray:none;stroke-opacity:1"/></g></g><g id="g168" transform="translate(-33.906078,69.206964)"><g id="g170"><g id="g172" clip-path="url(#clipPath174)"><path id="path178" d="m 0,-2.236068 c 0.593012,0 1.161816,0.235606 1.581139,0.654929 C 2.000462,-1.161816 2.236068,-0.593012 2.236068,0 c 0,0.593012 -0.235606,1.161816 -0.654929,1.581139 C 1.161816,2.000462 0.593012,2.236068 0,2.236068 c -0.593012,0 -1.161816,-0.235606 -1.581139,-0.654929 C -2.000462,1.161816 -2.236068,0.593012 -2.236068,0 c 0,-0.593012 0.235606,-1.161816 0.654929,-1.581139 C -1.161816,-2.000462 -0.593012,-2.236068 0,-2.236068 Z" style="fill:green;fill-opacity:1;fill-rule:nonzero;stroke:green;stroke-width:3;stroke-linecap:butt;stroke-linejoin:round;stroke-miterlimit:10;stroke-dasharray:none;stroke-opacity:1"/></g></g><g id="g180" transform="translate(-202.2953,-53.88969)"><g id="g182"><g id="g184" clip-path="url(#clipPath186)"><path id="path190" d="m 0,-2.236068 c 0.593012,0 1.161816,0.235606 1.581139,0.654929 C 2.000462,-1.161816 2.236068,-0.593012 2.236068,0 c 0,0.593012 -0.235606,1.161816 -0.654929,1.581139 C 1.161816,2.000462 0.593012,2.236068 0,2.236068 c -0.593012,0 -1.161816,-0.235606 -1.581139,-0.654929 C -2.000462,1.161816 -2.236068,0.593012 -2.236068,0 c 0,-0.593012 0.235606,-1.161816 0.654929,-1.581139 C -1.161816,-2.000462 -0.593012,-2.236068 0,-2.236068 Z" style="fill:green;fill-opacity:1;fill-rule:nonzero;stroke:green;stroke-width:3;stroke-linecap:butt;stroke-linejoin:round;stroke-miterlimit:10;stroke-dasharray:none;stroke-opacity:1"/></g></g><g id="g192" transform="translate(135.69486,-9.2236208)"><g id="g194"><g id="g196" clip-path="url(#clipPath198)"><path id="path202" d="m 0,-2.236068 c 0.593012,0 1.161816,0.235606 1.581139,0.654929 C 2.000462,-1.161816 2.236068,-0.593012 2.236068,0 c 0,0.593012 -0.235606,1.161816 -0.654929,1.581139 C 1.161816,2.000462 0.593012,2.236068 0,2.236068 c -0.593012,0 -1.161816,-0.235606 -1.581139,-0.654929 C -2.000462,1.161816 -2.236068,0.593012 -2.236068,0 c 0,-0.593012 0.235606,-1.161816 0.654929,-1.581139 C -1.161816,-2.000462 -0.593012,-2.236068 0,-2.236068 Z" style="fill:green;fill-opacity:1;fill-rule:nonzero;stroke:green;stroke-width:3;stroke-linecap:butt;stroke-linejoin:round;stroke-miterlimit:10;stroke-dasharray:none;stroke-opacity:1"/></g></g><g id="g204" transform="translate(115.60111,32.250973)"><g id="g206"><g id="g208" clip-path="url(#clipPath210)"><path id="path214" d="m 0,-2.236068 c 0.593012,0 1.161816,0.235606 1.581139,0.654929 C 2.000462,-1.161816 2.236068,-0.593012 2.236068,0 c 0,0.593012 -0.235606,1.161816 -0.654929,1.581139 C 1.161816,2.000462 0.593012,2.236068 0,2.236068 c -0.593012,0 -1.161816,-0.235606 -1.581139,-0.654929 C -2.000462,1.161816 -2.236068,0.593012 -2.236068,0 c 0,-0.593012 0.235606,-1.161816 0.654929,-1.581139 C -1.161816,-2.000462 -0.593012,-2.236068 0,-2.236068 Z" style="fill:green;fill-opacity:1;fill-rule:nonzero;stroke:green;stroke-width:3;stroke-linecap:butt;stroke-linejoin:round;stroke-miterlimit:10;stroke-dasharray:none;stroke-opacity:1"/></g></g><g id="g216" transform="translate(-44.717213,8.7805224)"><g id="g218"><g id="g220" clip-path="url(#clipPath222)"><path id="path226" d="m 0,-2.236068 c 0.593012,0 1.161816,0.235606 1.581139,0.654929 C 2.000462,-1.161816 2.236068,-0.593012 2.236068,0 c 0,0.593012 -0.235606,1.161816 -0.654929,1.581139 C 1.161816,2.000462 0.593012,2.236068 0,2.236068 c -0.593012,0 -1.161816,-0.235606 -1.581139,-0.654929 C -2.000462,1.161816 -2.236068,0.593012 -2.236068,0 c 0,-0.593012 0.235606,-1.161816 0.654929,-1.581139 C -1.161816,-2.000462 -0.593012,-2.236068 0,-2.236068 Z" style="fill:green;fill-opacity:1;fill-rule:nonzero;stroke:green;stroke-width:3;stroke-linecap:butt;stroke-linejoin:round;stroke-miterlimit:10;stroke-dasharray:none;stroke-opacity:1"/></g></g><g id="g228" transform="translate(144.29681,-25.810545)"><g id="g230"><g id="g232" clip-path="url(#clipPath234)"><path id="path238" d="m 0,-2.236068 c 0.593012,0 1.161816,0.235606 1.581139,0.654929 C 2.000462,-1.161816 2.236068,-0.593012 2.236068,0 c 0,0.593012 -0.235606,1.161816 -0.654929,1.581139 C 1.161816,2.000462 0.593012,2.236068 0,2.236068 c -0.593012,0 -1.161816,-0.235606 -1.581139,-0.654929 C -2.000462,1.161816 -2.236068,0.593012 -2.236068,0 c 0,-0.593012 0.235606,-1.161816 0.654929,-1.581139 C -1.161816,-2.000462 -0.593012,-2.236068 0,-2.236068 Z" style="fill:green;fill-opacity:1;fill-rule:nonzero;stroke:green;stroke-width:3;stroke-linecap:butt;stroke-linejoin:round;stroke-miterlimit:10;stroke-dasharray:none;stroke-opacity:1"/></g></g><g id="g240" transform="translate(-61.743057,49.858999)"><g id="g242"><g id="g244" clip-path="url(#clipPath246)"><path id="path250" d="m 0,-2.236068 c 0.593012,0 1.161816,0.235606 1.581139,0.654929 C 2.000462,-1.161816 2.236068,-0.593012 2.236068,0 c 0,0.593012 -0.235606,1.161816 -0.654929,1.581139 C 1.161816,2.000462 0.593012,2.236068 0,2.236068 c -0.593012,0 -1.161816,-0.235606 -1.581139,-0.654929 C -2.000462,1.161816 -2.236068,0.593012 -2.236068,0 c 0,-0.593012 0.235606,-1.161816 0.654929,-1.581139 C -1.161816,-2.000462 -0.593012,-2.236068 0,-2.236068 Z" style="fill:green;fill-opacity:1;fill-rule:nonzero;stroke:green;stroke-width:3;stroke-linecap:butt;stroke-linejoin:round;stroke-miterlimit:10;stroke-dasharray:none;stroke-opacity:1"/></g></g><g id="g252" transform="translate(-230.21697,-44.043083)"><g id="g254"><g id="g256" clip-path="url(#clipPath258)"><path id="path262" d="m 0,-2.236068 c 0.593012,0 1.161816,0.235606 1.581139,0.654929 C 2.000462,-1.161816 2.236068,-0.593012 2.236068,0 c 0,0.593012 -0.235606,1.161816 -0.654929,1.581139 C 1.161816,2.000462 0.593012,2.236068 0,2.236068 c -0.593012,0 -1.161816,-0.235606 -1.581139,-0.654929 C -2.000462,1.161816 -2.236068,0.593012 -2.236068,0 c 0,-0.593012 0.235606,-1.161816 0.654929,-1.581139 C -1.161816,-2.000462 -0.593012,-2.236068 0,-2.236068 Z" style="fill:green;fill-opacity:1;fill-rule:nonzero;stroke:green;stroke-width:3;stroke-linecap:butt;stroke-linejoin:round;stroke-miterlimit:10;stroke-dasharray:none;stroke-opacity:1"/></g></g><g id="g264" transform="translate(81.178039,7.4065528)"><g id="g266"><g id="g268" clip-path="url(#clipPath270)"><path id="path274" d="m 0,-2.236068 c 0.593012,0 1.161816,0.235606 1.581139,0.654929 C 2.000462,-1.161816 2.236068,-0.593012 2.236068,0 c 0,0.593012 -0.235606,1.161816 -0.654929,1.581139 C 1.161816,2.000462 0.593012,2.236068 0,2.236068 c -0.593012,0 -1.161816,-0.235606 -1.581139,-0.654929 C -2.000462,1.161816 -2.236068,0.593012 -2.236068,0 c 0,-0.593012 0.235606,-1.161816 0.654929,-1.581139 C -1.161816,-2.000462 -0.593012,-2.236068 0,-2.236068 Z" style="fill:green;fill-opacity:1;fill-rule:nonzero;stroke:green;stroke-width:3;stroke-linecap:butt;stroke-linejoin:round;stroke-miterlimit:10;stroke-dasharray:none;stroke-opacity:1"/></g></g></g></g></g></g></g></g></g></g></g></g></g></g></g></g></g></g></g></g></g></g></g></g><g id="g278"><g id="g280" clip-path="url(#clipPath282)"><g id="g286" transform="translate(216.48032,310.60708)"><g id="g288"><g id="g290" clip-path="url(#clipPath292)"><path id="path296" d="m 0,-2.236068 c 0.593012,0 1.161816,0.235606 1.581139,0.654929 C 2.000462,-1.161816 2.236068,-0.593012 2.236068,0 c 0,0.593012 -0.235606,1.161816 -0.654929,1.581139 C 1.161816,2.000462 0.593012,2.236068 0,2.236068 c -0.593012,0 -1.161816,-0.235606 -1.581139,-0.654929 C -2.000462,1.161816 -2.236068,0.593012 -2.236068,0 c 0,-0.593012 0.235606,-1.161816 0.654929,-1.581139 C -1.161816,-2.000462 -0.593012,-2.236068 0,-2.236068 Z" style="fill:#000;fill-opacity:1;fill-rule:nonzero;stroke:#000;stroke-width:3;stroke-linecap:butt;stroke-linejoin:round;stroke-miterlimit:10;stroke-dasharray:none;stroke-opacity:1"/></g></g><g id="g298" transform="translate(102.4541,-10.998511)"><g id="g300"><g id="g302" clip-path="url(#clipPath304)"><path id="path308" d="m 0,-2.236068 c 0.593012,0 1.161816,0.235606 1.581139,0.654929 C 2.000462,-1.161816 2.236068,-0.593012 2.236068,0 c 0,0.593012 -0.235606,1.161816 -0.654929,1.581139 C 1.161816,2.000462 0.593012,2.236068 0,2.236068 c -0.593012,0 -1.161816,-0.235606 -1.581139,-0.654929 C -2.000462,1.161816 -2.236068,0.593012 -2.236068,0 c 0,-0.593012 0.235606,-1.161816 0.654929,-1.581139 C -1.161816,-2.000462 -0.593012,-2.236068 0,-2.236068 Z" style="fill:#000;fill-opacity:1;fill-rule:nonzero;stroke:#000;stroke-width:3;stroke-linecap:butt;stroke-linejoin:round;stroke-miterlimit:10;stroke-dasharray:none;stroke-opacity:1"/></g></g><g id="g310" transform="translate(-226.52499,-156.82287)"><g id="g312"><g id="g314" clip-path="url(#clipPath316)"><path id="path320" d="m 0,-2.236068 c 0.593012,0 1.161816,0.235606 1.581139,0.654929 C 2.000462,-1.161816 2.236068,-0.593012 2.236068,0 c 0,0.593012 -0.235606,1.161816 -0.654929,1.581139 C 1.161816,2.000462 0.593012,2.236068 0,2.236068 c -0.593012,0 -1.161816,-0.235606 -1.581139,-0.654929 C -2.000462,1.161816 -2.236068,0.593012 -2.236068,0 c 0,-0.593012 0.235606,-1.161816 0.654929,-1.581139 C -1.161816,-2.000462 -0.593012,-2.236068 0,-2.236068 Z" style="fill:#000;fill-opacity:1;fill-rule:nonzero;stroke:#000;stroke-width:3;stroke-linecap:butt;stroke-linejoin:round;stroke-miterlimit:10;stroke-dasharray:none;stroke-opacity:1"/></g></g><g id="g322" transform="translate(76.785223,132.52963)"><g id="g324"><g id="g326" clip-path="url(#clipPath328)"><path id="path332" d="m 0,-2.236068 c 0.593012,0 1.161816,0.235606 1.581139,0.654929 C 2.000462,-1.161816 2.236068,-0.593012 2.236068,0 c 0,0.593012 -0.235606,1.161816 -0.654929,1.581139 C 1.161816,2.000462 0.593012,2.236068 0,2.236068 c -0.593012,0 -1.161816,-0.235606 -1.581139,-0.654929 C -2.000462,1.161816 -2.236068,0.593012 -2.236068,0 c 0,-0.593012 0.235606,-1.161816 0.654929,-1.581139 C -1.161816,-2.000462 -0.593012,-2.236068 0,-2.236068 Z" style="fill:#000;fill-opacity:1;fill-rule:nonzero;stroke:#000;stroke-width:3;stroke-linecap:butt;stroke-linejoin:round;stroke-miterlimit:10;stroke-dasharray:none;stroke-opacity:1"/></g></g><g id="g334" transform="translate(-3.850814,-44.921526)"><g id="g336"><g id="g338" clip-path="url(#clipPath340)"><path id="path344" d="m 0,-2.236068 c 0.593012,0 1.161816,0.235606 1.581139,0.654929 C 2.000462,-1.161816 2.236068,-0.593012 2.236068,0 c 0,0.593012 -0.235606,1.161816 -0.654929,1.581139 C 1.161816,2.000462 0.593012,2.236068 0,2.236068 c -0.593012,0 -1.161816,-0.235606 -1.581139,-0.654929 C -2.000462,1.161816 -2.236068,0.593012 -2.236068,0 c 0,-0.593012 0.235606,-1.161816 0.654929,-1.581139 C -1.161816,-2.000462 -0.593012,-2.236068 0,-2.236068 Z" style="fill:#000;fill-opacity:1;fill-rule:nonzero;stroke:#000;stroke-width:3;stroke-linecap:butt;stroke-linejoin:round;stroke-miterlimit:10;stroke-dasharray:none;stroke-opacity:1"/></g></g><g id="g346" transform="translate(-44.319435,-27.86268)"><g id="g348"><g id="g350" clip-path="url(#clipPath352)"><path id="path356" d="m 0,-2.236068 c 0.593012,0 1.161816,0.235606 1.581139,0.654929 C 2.000462,-1.161816 2.236068,-0.593012 2.236068,0 c 0,0.593012 -0.235606,1.161816 -0.654929,1.581139 C 1.161816,2.000462 0.593012,2.236068 0,2.236068 c -0.593012,0 -1.161816,-0.235606 -1.581139,-0.654929 C -2.000462,1.161816 -2.236068,0.593012 -2.236068,0 c 0,-0.593012 0.235606,-1.161816 0.654929,-1.581139 C -1.161816,-2.000462 -0.593012,-2.236068 0,-2.236068 Z" style="fill:#000;fill-opacity:1;fill-rule:nonzero;stroke:#000;stroke-width:3;stroke-linecap:butt;stroke-linejoin:round;stroke-miterlimit:10;stroke-dasharray:none;stroke-opacity:1"/></g></g></g></g></g></g></g></g></g></g><g id="g360"><g id="g362" clip-path="url(#clipPath364)"><g id="g368" transform="translate(118.30228,328.84113)"><g id="g370"><g id="g372" clip-path="url(#clipPath374)"><path id="path378" d="m 0,-2.236068 c 0.593012,0 1.161816,0.235606 1.581139,0.654929 C 2.000462,-1.161816 2.236068,-0.593012 2.236068,0 c 0,0.593012 -0.235606,1.161816 -0.654929,1.581139 C 1.161816,2.000462 0.593012,2.236068 0,2.236068 c -0.593012,0 -1.161816,-0.235606 -1.581139,-0.654929 C -2.000462,1.161816 -2.236068,0.593012 -2.236068,0 c 0,-0.593012 0.235606,-1.161816 0.654929,-1.581139 C -1.161816,-2.000462 -0.593012,-2.236068 0,-2.236068 Z" style="fill:brown;fill-opacity:1;fill-rule:nonzero;stroke:brown;stroke-width:3;stroke-linecap:butt;stroke-linejoin:round;stroke-miterlimit:10;stroke-dasharray:none;stroke-opacity:1"/></g></g><g id="g380" transform="translate(-36.970729,-139.54226)"><g id="g382"><g id="g384" clip-path="url(#clipPath386)"><path id="path390" d="m 0,-2.236068 c 0.593012,0 1.161816,0.235606 1.581139,0.654929 C 2.000462,-1.161816 2.236068,-0.593012 2.236068,0 c 0,0.593012 -0.235606,1.161816 -0.654929,1.581139 C 1.161816,2.000462 0.593012,2.236068 0,2.236068 c -0.593012,0 -1.161816,-0.235606 -1.581139,-0.654929 C -2.000462,1.161816 -2.236068,0.593012 -2.236068,0 c 0,-0.593012 0.235606,-1.161816 0.654929,-1.581139 C -1.161816,-2.000462 -0.593012,-2.236068 0,-2.236068 Z" style="fill:brown;fill-opacity:1;fill-rule:nonzero;stroke:brown;stroke-width:3;stroke-linecap:butt;stroke-linejoin:round;stroke-miterlimit:10;stroke-dasharray:none;stroke-opacity:1"/></g></g><g id="g392" transform="translate(105.09026,123.89039)"><g id="g394"><g id="g396" clip-path="url(#clipPath398)"><path id="path402" d="m 0,-2.236068 c 0.593012,0 1.161816,0.235606 1.581139,0.654929 C 2.000462,-1.161816 2.236068,-0.593012 2.236068,0 c 0,0.593012 -0.235606,1.161816 -0.654929,1.581139 C 1.161816,2.000462 0.593012,2.236068 0,2.236068 c -0.593012,0 -1.161816,-0.235606 -1.581139,-0.654929 C -2.000462,1.161816 -2.236068,0.593012 -2.236068,0 c 0,-0.593012 0.235606,-1.161816 0.654929,-1.581139 C -1.161816,-2.000462 -0.593012,-2.236068 0,-2.236068 Z" style="fill:brown;fill-opacity:1;fill-rule:nonzero;stroke:brown;stroke-width:3;stroke-linecap:butt;stroke-linejoin:round;stroke-miterlimit:10;stroke-dasharray:none;stroke-opacity:1"/></g></g><g id="g404" transform="translate(237.29813,-89.785019)"><g id="g406"><g id="g408" clip-path="url(#clipPath410)"><path id="path414" d="m 0,-2.236068 c 0.593012,0 1.161816,0.235606 1.581139,0.654929 C 2.000462,-1.161816 2.236068,-0.593012 2.236068,0 c 0,0.593012 -0.235606,1.161816 -0.654929,1.581139 C 1.161816,2.000462 0.593012,2.236068 0,2.236068 c -0.593012,0 -1.161816,-0.235606 -1.581139,-0.654929 C -2.000462,1.161816 -2.236068,0.593012 -2.236068,0 c 0,-0.593012 0.235606,-1.161816 0.654929,-1.581139 C -1.161816,-2.000462 -0.593012,-2.236068 0,-2.236068 Z" style="fill:brown;fill-opacity:1;fill-rule:nonzero;stroke:brown;stroke-width:3;stroke-linecap:butt;stroke-linejoin:round;stroke-miterlimit:10;stroke-dasharray:none;stroke-opacity:1"/></g></g><g id="g416" transform="translate(-0.72652613,70.845624)"><g id="g418"><g id="g420" clip-path="url(#clipPath422)"><path id="path426" d="m 0,-2.236068 c 0.593012,0 1.161816,0.235606 1.581139,0.654929 C 2.000462,-1.161816 2.236068,-0.593012 2.236068,0 c 0,0.593012 -0.235606,1.161816 -0.654929,1.581139 C 1.161816,2.000462 0.593012,2.236068 0,2.236068 c -0.593012,0 -1.161816,-0.235606 -1.581139,-0.654929 C -2.000462,1.161816 -2.236068,0.593012 -2.236068,0 c 0,-0.593012 0.235606,-1.161816 0.654929,-1.581139 C -1.161816,-2.000462 -0.593012,-2.236068 0,-2.236068 Z" style="fill:brown;fill-opacity:1;fill-rule:nonzero;stroke:brown;stroke-width:3;stroke-linecap:butt;stroke-linejoin:round;stroke-miterlimit:10;stroke-dasharray:none;stroke-opacity:1"/></g></g><g id="g428" transform="translate(25.202938,-126.72709)"><g id="g430"><g id="g432" clip-path="url(#clipPath434)"><path id="path438" d="m 0,-2.236068 c 0.593012,0 1.161816,0.235606 1.581139,0.654929 C 2.000462,-1.161816 2.236068,-0.593012 2.236068,0 c 0,0.593012 -0.235606,1.161816 -0.654929,1.581139 C 1.161816,2.000462 0.593012,2.236068 0,2.236068 c -0.593012,0 -1.161816,-0.235606 -1.581139,-0.654929 C -2.000462,1.161816 -2.236068,0.593012 -2.236068,0 c 0,-0.593012 0.235606,-1.161816 0.654929,-1.581139 C -1.161816,-2.000462 -0.593012,-2.236068 0,-2.236068 Z" style="fill:brown;fill-opacity:1;fill-rule:nonzero;stroke:brown;stroke-width:3;stroke-linecap:butt;stroke-linejoin:round;stroke-miterlimit:10;stroke-dasharray:none;stroke-opacity:1"/></g></g><g id="g440" transform="translate(-243.72092,154.35763)"><g id="g442"><g id="g444" clip-path="url(#clipPath446)"><path id="path450" d="m 0,-2.236068 c 0.593012,0 1.161816,0.235606 1.581139,0.654929 C 2.000462,-1.161816 2.236068,-0.593012 2.236068,0 c 0,0.593012 -0.235606,1.161816 -0.654929,1.581139 C 1.161816,2.000462 0.593012,2.236068 0,2.236068 c -0.593012,0 -1.161816,-0.235606 -1.581139,-0.654929 C -2.000462,1.161816 -2.236068,0.593012 -2.236068,0 c 0,-0.593012 0.235606,-1.161816 0.654929,-1.581139 C -1.161816,-2.000462 -0.593012,-2.236068 0,-2.236068 Z" style="fill:brown;fill-opacity:1;fill-rule:nonzero;stroke:brown;stroke-width:3;stroke-linecap:butt;stroke-linejoin:round;stroke-miterlimit:10;stroke-dasharray:none;stroke-opacity:1"/></g></g><g id="g452" transform="translate(187.10522,-88.725146)"><g id="g454"><g id="g456" clip-path="url(#clipPath458)"><path id="path462" d="m 0,-2.236068 c 0.593012,0 1.161816,0.235606 1.581139,0.654929 C 2.000462,-1.161816 2.236068,-0.593012 2.236068,0 c 0,0.593012 -0.235606,1.161816 -0.654929,1.581139 C 1.161816,2.000462 0.593012,2.236068 0,2.236068 c -0.593012,0 -1.161816,-0.235606 -1.581139,-0.654929 C -2.000462,1.161816 -2.236068,0.593012 -2.236068,0 c 0,-0.593012 0.235606,-1.161816 0.654929,-1.581139 C -1.161816,-2.000462 -0.593012,-2.236068 0,-2.236068 Z" style="fill:brown;fill-opacity:1;fill-rule:nonzero;stroke:brown;stroke-width:3;stroke-linecap:butt;stroke-linejoin:round;stroke-miterlimit:10;stroke-dasharray:none;stroke-opacity:1"/></g></g><g id="g464" transform="translate(-343.53008,15.40981)"><g id="g466"><g id="g468" clip-path="url(#clipPath470)"><path id="path474" d="m 0,-2.236068 c 0.593012,0 1.161816,0.235606 1.581139,0.654929 C 2.000462,-1.161816 2.236068,-0.593012 2.236068,0 c 0,0.593012 -0.235606,1.161816 -0.654929,1.581139 C 1.161816,2.000462 0.593012,2.236068 0,2.236068 c -0.593012,0 -1.161816,-0.235606 -1.581139,-0.654929 C -2.000462,1.161816 -2.236068,0.593012 -2.236068,0 c 0,-0.593012 0.235606,-1.161816 0.654929,-1.581139 C -1.161816,-2.000462 -0.593012,-2.236068 0,-2.236068 Z" style="fill:brown;fill-opacity:1;fill-rule:nonzero;stroke:brown;stroke-width:3;stroke-linecap:butt;stroke-linejoin:round;stroke-miterlimit:10;stroke-dasharray:none;stroke-opacity:1"/></g></g><g id="g476" transform="translate(139.9731,75.572664)"><g id="g478"><g id="g480" clip-path="url(#clipPath482)"><path id="path486" d="m 0,-2.236068 c 0.593012,0 1.161816,0.235606 1.581139,0.654929 C 2.000462,-1.161816 2.236068,-0.593012 2.236068,0 c 0,0.593012 -0.235606,1.161816 -0.654929,1.581139 C 1.161816,2.000462 0.593012,2.236068 0,2.236068 c -0.593012,0 -1.161816,-0.235606 -1.581139,-0.654929 C -2.000462,1.161816 -2.236068,0.593012 -2.236068,0 c 0,-0.593012 0.235606,-1.161816 0.654929,-1.581139 C -1.161816,-2.000462 -0.593012,-2.236068 0,-2.236068 Z" style="fill:brown;fill-opacity:1;fill-rule:nonzero;stroke:brown;stroke-width:3;stroke-linecap:butt;stroke-linejoin:round;stroke-miterlimit:10;stroke-dasharray:none;stroke-opacity:1"/></g></g><g id="g488" transform="translate(288.03437,-127.91098)"><g id="g490"><g id="g492" clip-path="url(#clipPath494)"><path id="path498" d="m 0,-2.236068 c 0.593012,0 1.161816,0.235606 1.581139,0.654929 C 2.000462,-1.161816 2.236068,-0.593012 2.236068,0 c 0,0.593012 -0.235606,1.161816 -0.654929,1.581139 C 1.161816,2.000462 0.593012,2.236068 0,2.236068 c -0.593012,0 -1.161816,-0.235606 -1.581139,-0.654929 C -2.000462,1.161816 -2.236068,0.593012 -2.236068,0 c 0,-0.593012 0.235606,-1.161816 0.654929,-1.581139 C -1.161816,-2.000462 -0.593012,-2.236068 0,-2.236068 Z" style="fill:brown;fill-opacity:1;fill-rule:nonzero;stroke:brown;stroke-width:3;stroke-linecap:butt;stroke-linejoin:round;stroke-miterlimit:10;stroke-dasharray:none;stroke-opacity:1"/></g></g><g id="g500" transform="translate(-414.11455,32.73656)"><g id="g502"><g id="g504" clip-path="url(#clipPath506)"><path id="path510" d="m 0,-2.236068 c 0.593012,0 1.161816,0.235606 1.581139,0.654929 C 2.000462,-1.161816 2.236068,-0.593012 2.236068,0 c 0,0.593012 -0.235606,1.161816 -0.654929,1.581139 C 1.161816,2.000462 0.593012,2.236068 0,2.236068 c -0.593012,0 -1.161816,-0.235606 -1.581139,-0.654929 C -2.000462,1.161816 -2.236068,0.593012 -2.236068,0 c 0,-0.593012 0.235606,-1.161816 0.654929,-1.581139 C -1.161816,-2.000462 -0.593012,-2.236068 0,-2.236068 Z" style="fill:brown;fill-opacity:1;fill-rule:nonzero;stroke:brown;stroke-width:3;stroke-linecap:butt;stroke-linejoin:round;stroke-miterlimit:10;stroke-dasharray:none;stroke-opacity:1"/></g></g><g id="g512" transform="translate(-19.473256,-110.47328)"><g id="g514"><g id="g516" clip-path="url(#clipPath518)"><path id="path522" d="m 0,-2.236068 c 0.593012,0 1.161816,0.235606 1.581139,0.654929 C 2.000462,-1.161816 2.236068,-0.593012 2.236068,0 c 0,0.593012 -0.235606,1.161816 -0.654929,1.581139 C 1.161816,2.000462 0.593012,2.236068 0,2.236068 c -0.593012,0 -1.161816,-0.235606 -1.581139,-0.654929 C -2.000462,1.161816 -2.236068,0.593012 -2.236068,0 c 0,-0.593012 0.235606,-1.161816 0.654929,-1.581139 C -1.161816,-2.000462 -0.593012,-2.236068 0,-2.236068 Z" style="fill:brown;fill-opacity:1;fill-rule:nonzero;stroke:brown;stroke-width:3;stroke-linecap:butt;stroke-linejoin:round;stroke-miterlimit:10;stroke-dasharray:none;stroke-opacity:1"/></g></g><g id="g524" transform="translate(373.3626,98.859007)"><g id="g526"><g id="g528" clip-path="url(#clipPath530)"><path id="path534" d="m 0,-2.236068 c 0.593012,0 1.161816,0.235606 1.581139,0.654929 C 2.000462,-1.161816 2.236068,-0.593012 2.236068,0 c 0,0.593012 -0.235606,1.161816 -0.654929,1.581139 C 1.161816,2.000462 0.593012,2.236068 0,2.236068 c -0.593012,0 -1.161816,-0.235606 -1.581139,-0.654929 C -2.000462,1.161816 -2.236068,0.593012 -2.236068,0 c 0,-0.593012 0.235606,-1.161816 0.654929,-1.581139 C -1.161816,-2.000462 -0.593012,-2.236068 0,-2.236068 Z" style="fill:brown;fill-opacity:1;fill-rule:nonzero;stroke:brown;stroke-width:3;stroke-linecap:butt;stroke-linejoin:round;stroke-miterlimit:10;stroke-dasharray:none;stroke-opacity:1"/></g></g></g></g></g></g></g></g></g></g></g></g></g></g></g></g></g></g><g id="g536"><g id="g538" clip-path="url(#clipPath540)"><path id="path544" d="m -1,337.00682 485.89375,0 0,0" style="fill:none;stroke:green;stroke-width:2;stroke-linecap:square;stroke-linejoin:round;stroke-miterlimit:10;stroke-dasharray:none;stroke-opacity:1"/></g></g><g id="g546"><g id="g548" clip-path="url(#clipPath550)"><path id="path554" d="m 19.508129,-1 40.500936,89.050427 11.618018,24.882933 10.724325,22.43821 8.936937,18.21433 8.936935,17.69725 8.04325,15.42752 7.14954,13.27414 7.14955,12.82572 7.14955,12.34483 6.25586,10.38267 6.25585,9.97042 6.25586,9.53887 6.25586,9.08881 5.36216,7.41884 5.36216,7.06467 5.36216,6.70044 5.36216,6.32668 5.36217,5.9439 4.46847,4.65473 4.46847,4.37842 4.46846,4.09779 4.46847,3.8131 4.46847,3.52464 4.46847,3.23269 4.46847,2.93756 4.46846,2.63951 4.46847,2.33885 4.46847,2.03589 3.57478,1.4092 3.57477,1.21312 3.57478,1.01627 3.57477,0.81877 3.57478,0.62076 3.57477,0.42235 3.57478,0.22367 3.57477,0.0249 3.57477,-0.17398 3.57478,-0.3727 3.57477,-0.57119 3.57478,-0.76931 3.57477,-0.96695 3.57478,-1.16397 3.57477,-1.36027 3.57478,-1.55569 4.46847,-2.21793 4.46847,-2.51954 4.46846,-2.81867 4.46847,-3.11501 4.46847,-3.40826 4.46847,-3.69815 4.46847,-3.98439 4.46847,-4.26667 4.46846,-4.54474 4.46847,-4.81832 5.36217,-6.13639 5.36216,-6.51472 5.36216,-6.88378 5.36216,-7.24304 5.36216,-7.59199 6.25586,-9.2839 6.25586,-9.72613 6.25585,-10.14951 6.25586,-10.55323 7.14955,-12.52889 7.14955,-12.99774 7.14955,-13.43369 8.04324,-15.59161 8.93694,-17.85982 8.93693,-18.3555 9.83063,-20.67688 11.61802,-24.960884 14.2991,-31.26599 21.82883,-48.209207 0,0" style="fill:none;stroke:#00f;stroke-width:2;stroke-linecap:square;stroke-linejoin:round;stroke-miterlimit:10;stroke-dasharray:none;stroke-opacity:1"/></g></g><g id="g556"><g id="g558" clip-path="url(#clipPath560)"><path id="path564" d="m 13.368073,-1 239.678827,337.37783 0.8937,0 230.95315,-325.095352 0,0" style="fill:none;stroke:red;stroke-width:2;stroke-linecap:square;stroke-linejoin:round;stroke-miterlimit:10;stroke-dasharray:none;stroke-opacity:1"/></g></g><g id="g566"><path id="path568" d="m 30.29375,22.825 0,345.6" style="fill:none;stroke:#000;stroke-width:1;stroke-linecap:square;stroke-linejoin:miter;stroke-miterlimit:10;stroke-dasharray:none;stroke-opacity:1"/><path id="path570" d="m 30.29375,22.825 446.4,0" style="fill:none;stroke:#000;stroke-width:1;stroke-linecap:square;stroke-linejoin:miter;stroke-miterlimit:10;stroke-dasharray:none;stroke-opacity:1"/><path id="path572" d="m 30.29375,368.425 446.4,0" style="fill:none;stroke:#000;stroke-width:1;stroke-linecap:square;stroke-linejoin:miter;stroke-miterlimit:10;stroke-dasharray:none;stroke-opacity:1"/><path id="path574" d="m 476.69375,22.825 0,345.6" style="fill:none;stroke:#000;stroke-width:1;stroke-linecap:square;stroke-linejoin:miter;stroke-miterlimit:10;stroke-dasharray:none;stroke-opacity:1"/><path id="path576" d="m 30.29375,22.825 0,4" style="fill:#000;fill-opacity:1;fill-rule:nonzero;stroke:#000;stroke-width:.5;stroke-linecap:butt;stroke-linejoin:round;stroke-miterlimit:10;stroke-dasharray:none;stroke-opacity:1"/><path id="path578" d="m 30.29375,368.425 0,-4" style="fill:#000;fill-opacity:1;fill-rule:nonzero;stroke:#000;stroke-width:.5;stroke-linecap:butt;stroke-linejoin:round;stroke-miterlimit:10;stroke-dasharray:none;stroke-opacity:1"/><text id="text580" transform="matrix(1,0,0,-1,20.746875,9.7)" style="font-variant:normal;font-weight:400;font-size:12px;font-family:'Bitstream Vera Sans';-inkscape-font-specification:BitstreamVeraSans-Roman;writing-mode:lr-tb;fill:#000;fill-opacity:1;fill-rule:nonzero;stroke:none"><tspan id="tspan582" x="0 7.632 11.448" y="0">0.0</tspan></text><path id="path584" d="m 101.34052,22.825 0,4" style="fill:#000;fill-opacity:1;fill-rule:nonzero;stroke:#000;stroke-width:.5;stroke-linecap:butt;stroke-linejoin:round;stroke-miterlimit:10;stroke-dasharray:none;stroke-opacity:1"/><path id="path586" d="m 101.34052,368.425 0,-4" style="fill:#000;fill-opacity:1;fill-rule:nonzero;stroke:#000;stroke-width:.5;stroke-linecap:butt;stroke-linejoin:round;stroke-miterlimit:10;stroke-dasharray:none;stroke-opacity:1"/><text id="text588" transform="matrix(1,0,0,-1,91.793642,9.7)" style="font-variant:normal;font-weight:400;font-size:12px;font-family:'Bitstream Vera Sans';-inkscape-font-specification:BitstreamVeraSans-Roman;writing-mode:lr-tb;fill:#000;fill-opacity:1;fill-rule:nonzero;stroke:none"><tspan id="tspan590" x="0 7.632 11.448" y="0">0.5</tspan></text><path id="path592" d="m 172.38728,22.825 0,4" style="fill:#000;fill-opacity:1;fill-rule:nonzero;stroke:#000;stroke-width:.5;stroke-linecap:butt;stroke-linejoin:round;stroke-miterlimit:10;stroke-dasharray:none;stroke-opacity:1"/><path id="path594" d="m 172.38728,368.425 0,-4" style="fill:#000;fill-opacity:1;fill-rule:nonzero;stroke:#000;stroke-width:.5;stroke-linecap:butt;stroke-linejoin:round;stroke-miterlimit:10;stroke-dasharray:none;stroke-opacity:1"/><text id="text596" transform="matrix(1,0,0,-1,162.84041,9.7)" style="font-variant:normal;font-weight:400;font-size:12px;font-family:'Bitstream Vera Sans';-inkscape-font-specification:BitstreamVeraSans-Roman;writing-mode:lr-tb;fill:#000;fill-opacity:1;fill-rule:nonzero;stroke:none"><tspan id="tspan598" x="0 7.632 11.448" y="0">1.0</tspan></text><path id="path600" d="m 243.43405,22.825 0,4" style="fill:#000;fill-opacity:1;fill-rule:nonzero;stroke:#000;stroke-width:.5;stroke-linecap:butt;stroke-linejoin:round;stroke-miterlimit:10;stroke-dasharray:none;stroke-opacity:1"/><path id="path602" d="m 243.43405,368.425 0,-4" style="fill:#000;fill-opacity:1;fill-rule:nonzero;stroke:#000;stroke-width:.5;stroke-linecap:butt;stroke-linejoin:round;stroke-miterlimit:10;stroke-dasharray:none;stroke-opacity:1"/><text id="text604" transform="matrix(1,0,0,-1,233.88717,9.7)" style="font-variant:normal;font-weight:400;font-size:12px;font-family:'Bitstream Vera Sans';-inkscape-font-specification:BitstreamVeraSans-Roman;writing-mode:lr-tb;fill:#000;fill-opacity:1;fill-rule:nonzero;stroke:none"><tspan id="tspan606" x="0 7.632 11.448" y="0">1.5</tspan></text><path id="path608" d="m 314.48082,22.825 0,4" style="fill:#000;fill-opacity:1;fill-rule:nonzero;stroke:#000;stroke-width:.5;stroke-linecap:butt;stroke-linejoin:round;stroke-miterlimit:10;stroke-dasharray:none;stroke-opacity:1"/><path id="path610" d="m 314.48082,368.425 0,-4" style="fill:#000;fill-opacity:1;fill-rule:nonzero;stroke:#000;stroke-width:.5;stroke-linecap:butt;stroke-linejoin:round;stroke-miterlimit:10;stroke-dasharray:none;stroke-opacity:1"/><text id="text612" transform="matrix(1,0,0,-1,304.93394,9.7)" style="font-variant:normal;font-weight:400;font-size:12px;font-family:'Bitstream Vera Sans';-inkscape-font-specification:BitstreamVeraSans-Roman;writing-mode:lr-tb;fill:#000;fill-opacity:1;fill-rule:nonzero;stroke:none"><tspan id="tspan614" x="0 7.632 11.448" y="0">2.0</tspan></text><path id="path616" d="m 385.52758,22.825 0,4" style="fill:#000;fill-opacity:1;fill-rule:nonzero;stroke:#000;stroke-width:.5;stroke-linecap:butt;stroke-linejoin:round;stroke-miterlimit:10;stroke-dasharray:none;stroke-opacity:1"/><path id="path618" d="m 385.52758,368.425 0,-4" style="fill:#000;fill-opacity:1;fill-rule:nonzero;stroke:#000;stroke-width:.5;stroke-linecap:butt;stroke-linejoin:round;stroke-miterlimit:10;stroke-dasharray:none;stroke-opacity:1"/><text id="text620" transform="matrix(1,0,0,-1,375.98071,9.7)" style="font-variant:normal;font-weight:400;font-size:12px;font-family:'Bitstream Vera Sans';-inkscape-font-specification:BitstreamVeraSans-Roman;writing-mode:lr-tb;fill:#000;fill-opacity:1;fill-rule:nonzero;stroke:none"><tspan id="tspan622" x="0 7.632 11.448" y="0">2.5</tspan></text><path id="path624" d="m 456.57435,22.825 0,4" style="fill:#000;fill-opacity:1;fill-rule:nonzero;stroke:#000;stroke-width:.5;stroke-linecap:butt;stroke-linejoin:round;stroke-miterlimit:10;stroke-dasharray:none;stroke-opacity:1"/><path id="path626" d="m 456.57435,368.425 0,-4" style="fill:#000;fill-opacity:1;fill-rule:nonzero;stroke:#000;stroke-width:.5;stroke-linecap:butt;stroke-linejoin:round;stroke-miterlimit:10;stroke-dasharray:none;stroke-opacity:1"/><text id="text628" transform="matrix(1,0,0,-1,447.02747,9.7)" style="font-variant:normal;font-weight:400;font-size:12px;font-family:'Bitstream Vera Sans';-inkscape-font-specification:BitstreamVeraSans-Roman;writing-mode:lr-tb;fill:#000;fill-opacity:1;fill-rule:nonzero;stroke:none"><tspan id="tspan630" x="0 7.632 11.448" y="0">3.0</tspan></text><path id="path632" d="m 30.29375,22.825 4,0" style="fill:#000;fill-opacity:1;fill-rule:nonzero;stroke:#000;stroke-width:.5;stroke-linecap:butt;stroke-linejoin:round;stroke-miterlimit:10;stroke-dasharray:none;stroke-opacity:1"/><path id="path634" d="m 476.69375,22.825 -4,0" style="fill:#000;fill-opacity:1;fill-rule:nonzero;stroke:#000;stroke-width:.5;stroke-linecap:butt;stroke-linejoin:round;stroke-miterlimit:10;stroke-dasharray:none;stroke-opacity:1"/><text id="text636" transform="matrix(1,0,0,-1,7.2,19.5125)" style="font-variant:normal;font-weight:400;font-size:12px;font-family:'Bitstream Vera Sans';-inkscape-font-specification:BitstreamVeraSans-Roman;writing-mode:lr-tb;fill:#000;fill-opacity:1;fill-rule:nonzero;stroke:none"><tspan id="tspan638" x="0 7.632 11.448" y="0">0.0</tspan></text><path id="path640" d="m 30.29375,85.661364 4,0" style="fill:#000;fill-opacity:1;fill-rule:nonzero;stroke:#000;stroke-width:.5;stroke-linecap:butt;stroke-linejoin:round;stroke-miterlimit:10;stroke-dasharray:none;stroke-opacity:1"/><path id="path642" d="m 476.69375,85.661364 -4,0" style="fill:#000;fill-opacity:1;fill-rule:nonzero;stroke:#000;stroke-width:.5;stroke-linecap:butt;stroke-linejoin:round;stroke-miterlimit:10;stroke-dasharray:none;stroke-opacity:1"/><text id="text644" transform="matrix(1,0,0,-1,7.2,82.348864)" style="font-variant:normal;font-weight:400;font-size:12px;font-family:'Bitstream Vera Sans';-inkscape-font-specification:BitstreamVeraSans-Roman;writing-mode:lr-tb;fill:#000;fill-opacity:1;fill-rule:nonzero;stroke:none"><tspan id="tspan646" x="0 7.632 11.448" y="0">0.2</tspan></text><path id="path648" d="m 30.29375,148.49773 4,0" style="fill:#000;fill-opacity:1;fill-rule:nonzero;stroke:#000;stroke-width:.5;stroke-linecap:butt;stroke-linejoin:round;stroke-miterlimit:10;stroke-dasharray:none;stroke-opacity:1"/><path id="path650" d="m 476.69375,148.49773 -4,0" style="fill:#000;fill-opacity:1;fill-rule:nonzero;stroke:#000;stroke-width:.5;stroke-linecap:butt;stroke-linejoin:round;stroke-miterlimit:10;stroke-dasharray:none;stroke-opacity:1"/><text id="text652" transform="matrix(1,0,0,-1,7.2,145.18523)" style="font-variant:normal;font-weight:400;font-size:12px;font-family:'Bitstream Vera Sans';-inkscape-font-specification:BitstreamVeraSans-Roman;writing-mode:lr-tb;fill:#000;fill-opacity:1;fill-rule:nonzero;stroke:none"><tspan id="tspan654" x="0 7.632 11.448" y="0">0.4</tspan></text><path id="path656" d="m 30.29375,211.33409 4,0" style="fill:#000;fill-opacity:1;fill-rule:nonzero;stroke:#000;stroke-width:.5;stroke-linecap:butt;stroke-linejoin:round;stroke-miterlimit:10;stroke-dasharray:none;stroke-opacity:1"/><path id="path658" d="m 476.69375,211.33409 -4,0" style="fill:#000;fill-opacity:1;fill-rule:nonzero;stroke:#000;stroke-width:.5;stroke-linecap:butt;stroke-linejoin:round;stroke-miterlimit:10;stroke-dasharray:none;stroke-opacity:1"/><text id="text660" transform="matrix(1,0,0,-1,7.2,208.02159)" style="font-variant:normal;font-weight:400;font-size:12px;font-family:'Bitstream Vera Sans';-inkscape-font-specification:BitstreamVeraSans-Roman;writing-mode:lr-tb;fill:#000;fill-opacity:1;fill-rule:nonzero;stroke:none"><tspan id="tspan662" x="0 7.632 11.448" y="0">0.6</tspan></text><path id="path664" d="m 30.29375,274.17045 4,0" style="fill:#000;fill-opacity:1;fill-rule:nonzero;stroke:#000;stroke-width:.5;stroke-linecap:butt;stroke-linejoin:round;stroke-miterlimit:10;stroke-dasharray:none;stroke-opacity:1"/><path id="path666" d="m 476.69375,274.17045 -4,0" style="fill:#000;fill-opacity:1;fill-rule:nonzero;stroke:#000;stroke-width:.5;stroke-linecap:butt;stroke-linejoin:round;stroke-miterlimit:10;stroke-dasharray:none;stroke-opacity:1"/><text id="text668" transform="matrix(1,0,0,-1,7.2,270.85795)" style="font-variant:normal;font-weight:400;font-size:12px;font-family:'Bitstream Vera Sans';-inkscape-font-specification:BitstreamVeraSans-Roman;writing-mode:lr-tb;fill:#000;fill-opacity:1;fill-rule:nonzero;stroke:none"><tspan id="tspan670" x="0 7.632 11.448" y="0">0.8</tspan></text><path id="path672" d="m 30.29375,337.00682 4,0" style="fill:#000;fill-opacity:1;fill-rule:nonzero;stroke:#000;stroke-width:.5;stroke-linecap:butt;stroke-linejoin:round;stroke-miterlimit:10;stroke-dasharray:none;stroke-opacity:1"/><path id="path674" d="m 476.69375,337.00682 -4,0" style="fill:#000;fill-opacity:1;fill-rule:nonzero;stroke:#000;stroke-width:.5;stroke-linecap:butt;stroke-linejoin:round;stroke-miterlimit:10;stroke-dasharray:none;stroke-opacity:1"/><text id="text676" transform="matrix(1,0,0,-1,7.2,333.69432)" style="font-variant:normal;font-weight:400;font-size:12px;font-family:'Bitstream Vera Sans';-inkscape-font-specification:BitstreamVeraSans-Roman;writing-mode:lr-tb;fill:#000;fill-opacity:1;fill-rule:nonzero;stroke:none"><tspan id="tspan678" x="0 7.632 11.448" y="0">1.0</tspan></text></g></g></svg>