<svg xmlns="http://www.w3.org/2000/svg" xmlns:svg="http://www.w3.org/2000/svg" id="svg2" width="576" height="450" version="1.1" viewBox="0 0 576 450" xml:space="preserve"><metadata id="metadata8"/><defs id="defs6"><clipPath id="clipPath20" clipPathUnits="userSpaceOnUse"><path id="path22" d="m 7.2,7.2 446.4,0 0,345.6 -446.4,0 0,-345.6 z"/></clipPath><clipPath id="clipPath30" clipPathUnits="userSpaceOnUse"><path id="path32" d="m 7.2,7.2 446.4,0 0,345.6 -446.4,0 0,-345.6 z"/></clipPath><clipPath id="clipPath40" clipPathUnits="userSpaceOnUse"><path id="path42" d="m 7.2,7.2 446.4,0 0,345.6 -446.4,0 0,-345.6 z"/></clipPath><clipPath id="clipPath50" clipPathUnits="userSpaceOnUse"><path id="path52" d="m 7.2,7.2 446.4,0 0,345.6 -446.4,0 0,-345.6 z"/></clipPath></defs><g id="g10" transform="matrix(1.25,0,0,-1.25,0,450)"><path id="path12" d="m 0,0 460.8,0 0,360 L 0,360 0,0 Z" style="fill:#fff;fill-opacity:1;fill-rule:nonzero;stroke:none"/><path id="path14" d="m 7.2,7.2 446.4,0 0,345.6 -446.4,0 0,-345.6 z" style="fill:#fff;fill-opacity:1;fill-rule:nonzero;stroke:none"/><g id="g16"><g id="g18" clip-path="url(#clipPath20)"><path id="path24" d="m 7.2,34.649466 17.873874,12.007801 16.98018,11.143864 16.533333,10.588227 16.086487,10.039637 15.63964,9.500114 15.192796,8.971447 14.74594,8.455204 14.74595,8.19728 14.2991,7.6941 13.85225,7.20691 13.85225,6.95705 13.40541,6.48842 13.4054,6.24231 12.95856,5.79498 12.95856,5.55486 12.95856,5.31005 12.51171,4.89045 12.51171,4.65422 12.51171,4.41434 12.06487,4.02624 12.06486,3.79702 12.06487,3.56503 12.06486,3.33042 12.06487,3.09338 11.61802,2.75268 11.61801,2.52892 11.61802,2.30344 11.61802,2.07641 11.61802,1.84797 11.61802,1.61827 11.61801,1.38748 11.61802,1.15576 11.17117,0.89204 8.93694,0.55848 0,0" style="fill:none;stroke:#000;stroke-width:3;stroke-linecap:square;stroke-linejoin:round;stroke-miterlimit:10;stroke-dasharray:none;stroke-opacity:1"/></g></g><g id="g26"><g id="g28" clip-path="url(#clipPath30)"><path id="path34" d="m 7.2,34.649466 446.4,179.044804 0,0" style="fill:none;stroke:#00f;stroke-width:3;stroke-linecap:butt;stroke-linejoin:round;stroke-miterlimit:10;stroke-dasharray:1,3;stroke-dashoffset:0;stroke-opacity:1"/></g></g><g id="g36"><g id="g38" clip-path="url(#clipPath40)"><path id="path44" d="M 7.2,34.649466 453.6,337.942 l 0,0" style="fill:none;stroke:orange;stroke-width:3;stroke-linecap:butt;stroke-linejoin:round;stroke-miterlimit:10;stroke-dasharray:6,6;stroke-dashoffset:0;stroke-opacity:1"/></g></g><g id="g46"><g id="g48" clip-path="url(#clipPath50)"><path id="path54" d="m 7.2,189.24749 446.4,24.44678 0,0" style="fill:none;stroke:red;stroke-width:3;stroke-linecap:butt;stroke-linejoin:round;stroke-miterlimit:10;stroke-dasharray:6,6;stroke-dashoffset:0;stroke-opacity:1"/></g></g><g id="g56"><path id="path58" d="m 453.6,7.2 0,345.6" style="fill:none;stroke:#000;stroke-width:1;stroke-linecap:square;stroke-linejoin:miter;stroke-miterlimit:10;stroke-dasharray:none;stroke-opacity:1"/><path id="path60" d="m 7.2,7.2 446.4,0" style="fill:none;stroke:#000;stroke-width:1;stroke-linecap:square;stroke-linejoin:miter;stroke-miterlimit:10;stroke-dasharray:none;stroke-opacity:1"/><path id="path62" d="m 7.2,352.8 446.4,0" style="fill:none;stroke:#000;stroke-width:1;stroke-linecap:square;stroke-linejoin:miter;stroke-miterlimit:10;stroke-dasharray:none;stroke-opacity:1"/><path id="path64" d="m 7.2,7.2 0,345.6" style="fill:none;stroke:#000;stroke-width:1;stroke-linecap:square;stroke-linejoin:miter;stroke-miterlimit:10;stroke-dasharray:none;stroke-opacity:1"/><path id="path66" d="m 51.84,7.2 0,4" style="fill:#000;fill-opacity:1;fill-rule:nonzero;stroke:#000;stroke-width:.5;stroke-linecap:butt;stroke-linejoin:round;stroke-miterlimit:10;stroke-dasharray:none;stroke-opacity:1"/><path id="path68" d="m 51.84,352.8 0,-4" style="fill:#000;fill-opacity:1;fill-rule:nonzero;stroke:#000;stroke-width:.5;stroke-linecap:butt;stroke-linejoin:round;stroke-miterlimit:10;stroke-dasharray:none;stroke-opacity:1"/><path id="path70" d="m 141.12,7.2 0,4" style="fill:#000;fill-opacity:1;fill-rule:nonzero;stroke:#000;stroke-width:.5;stroke-linecap:butt;stroke-linejoin:round;stroke-miterlimit:10;stroke-dasharray:none;stroke-opacity:1"/><path id="path72" d="m 141.12,352.8 0,-4" style="fill:#000;fill-opacity:1;fill-rule:nonzero;stroke:#000;stroke-width:.5;stroke-linecap:butt;stroke-linejoin:round;stroke-miterlimit:10;stroke-dasharray:none;stroke-opacity:1"/><path id="path74" d="m 230.4,7.2 0,4" style="fill:#000;fill-opacity:1;fill-rule:nonzero;stroke:#000;stroke-width:.5;stroke-linecap:butt;stroke-linejoin:round;stroke-miterlimit:10;stroke-dasharray:none;stroke-opacity:1"/><path id="path76" d="m 230.4,352.8 0,-4" style="fill:#000;fill-opacity:1;fill-rule:nonzero;stroke:#000;stroke-width:.5;stroke-linecap:butt;stroke-linejoin:round;stroke-miterlimit:10;stroke-dasharray:none;stroke-opacity:1"/><path id="path78" d="m 319.68,7.2 0,4" style="fill:#000;fill-opacity:1;fill-rule:nonzero;stroke:#000;stroke-width:.5;stroke-linecap:butt;stroke-linejoin:round;stroke-miterlimit:10;stroke-dasharray:none;stroke-opacity:1"/><path id="path80" d="m 319.68,352.8 0,-4" style="fill:#000;fill-opacity:1;fill-rule:nonzero;stroke:#000;stroke-width:.5;stroke-linecap:butt;stroke-linejoin:round;stroke-miterlimit:10;stroke-dasharray:none;stroke-opacity:1"/><path id="path82" d="m 408.96,7.2 0,4" style="fill:#000;fill-opacity:1;fill-rule:nonzero;stroke:#000;stroke-width:.5;stroke-linecap:butt;stroke-linejoin:round;stroke-miterlimit:10;stroke-dasharray:none;stroke-opacity:1"/><path id="path84" d="m 408.96,352.8 0,-4" style="fill:#000;fill-opacity:1;fill-rule:nonzero;stroke:#000;stroke-width:.5;stroke-linecap:butt;stroke-linejoin:round;stroke-miterlimit:10;stroke-dasharray:none;stroke-opacity:1"/><path id="path86" d="m 7.2,7.2 4,0" style="fill:#000;fill-opacity:1;fill-rule:nonzero;stroke:#000;stroke-width:.5;stroke-linecap:butt;stroke-linejoin:round;stroke-miterlimit:10;stroke-dasharray:none;stroke-opacity:1"/><path id="path88" d="m 453.6,7.2 -4,0" style="fill:#000;fill-opacity:1;fill-rule:nonzero;stroke:#000;stroke-width:.5;stroke-linecap:butt;stroke-linejoin:round;stroke-miterlimit:10;stroke-dasharray:none;stroke-opacity:1"/><path id="path90" d="m 7.2,76.32 4,0" style="fill:#000;fill-opacity:1;fill-rule:nonzero;stroke:#000;stroke-width:.5;stroke-linecap:butt;stroke-linejoin:round;stroke-miterlimit:10;stroke-dasharray:none;stroke-opacity:1"/><path id="path92" d="m 453.6,76.32 -4,0" style="fill:#000;fill-opacity:1;fill-rule:nonzero;stroke:#000;stroke-width:.5;stroke-linecap:butt;stroke-linejoin:round;stroke-miterlimit:10;stroke-dasharray:none;stroke-opacity:1"/><path id="path94" d="m 7.2,145.44 4,0" style="fill:#000;fill-opacity:1;fill-rule:nonzero;stroke:#000;stroke-width:.5;stroke-linecap:butt;stroke-linejoin:round;stroke-miterlimit:10;stroke-dasharray:none;stroke-opacity:1"/><path id="path96" d="m 453.6,145.44 -4,0" style="fill:#000;fill-opacity:1;fill-rule:nonzero;stroke:#000;stroke-width:.5;stroke-linecap:butt;stroke-linejoin:round;stroke-miterlimit:10;stroke-dasharray:none;stroke-opacity:1"/><path id="path98" d="m 7.2,214.56 4,0" style="fill:#000;fill-opacity:1;fill-rule:nonzero;stroke:#000;stroke-width:.5;stroke-linecap:butt;stroke-linejoin:round;stroke-miterlimit:10;stroke-dasharray:none;stroke-opacity:1"/><path id="path100" d="m 453.6,214.56 -4,0" style="fill:#000;fill-opacity:1;fill-rule:nonzero;stroke:#000;stroke-width:.5;stroke-linecap:butt;stroke-linejoin:round;stroke-miterlimit:10;stroke-dasharray:none;stroke-opacity:1"/><path id="path102" d="m 7.2,283.68 4,0" style="fill:#000;fill-opacity:1;fill-rule:nonzero;stroke:#000;stroke-width:.5;stroke-linecap:butt;stroke-linejoin:round;stroke-miterlimit:10;stroke-dasharray:none;stroke-opacity:1"/><path id="path104" d="m 453.6,283.68 -4,0" style="fill:#000;fill-opacity:1;fill-rule:nonzero;stroke:#000;stroke-width:.5;stroke-linecap:butt;stroke-linejoin:round;stroke-miterlimit:10;stroke-dasharray:none;stroke-opacity:1"/><path id="path106" d="m 7.2,352.8 4,0" style="fill:#000;fill-opacity:1;fill-rule:nonzero;stroke:#000;stroke-width:.5;stroke-linecap:butt;stroke-linejoin:round;stroke-miterlimit:10;stroke-dasharray:none;stroke-opacity:1"/><path id="path108" d="m 453.6,352.8 -4,0" style="fill:#000;fill-opacity:1;fill-rule:nonzero;stroke:#000;stroke-width:.5;stroke-linecap:butt;stroke-linejoin:round;stroke-miterlimit:10;stroke-dasharray:none;stroke-opacity:1"/></g></g></svg>